<svg width="1440" height="665" viewBox="0 0 1440 665" fill="none" xmlns="http://www.w3.org/2000/svg">
<g clip-path="url(#clip0_7_277)">
<rect width="1440" height="665" fill="white"/>
<path d="M765.882 79.2059C765.81 78.5221 765.308 77.0339 765.022 76.355C764.735 75.6761 763.335 73.0088 762.437 73.5556C761.821 73.9305 762.219 75.0433 761.728 75.3077L760.356 72.4973C763.475 71.6006 766.365 74.1894 769.191 75.161L767.319 75.8357C771.97 76.1176 775.107 73.2984 777.358 78.8237C778.795 82.347 778.925 86.4393 779.056 90.1987C775.08 90.6606 771.033 90.4558 767.176 89.3635C767.352 88.3153 767.918 82.8451 766.888 82.6005L765.838 83.289C765.742 81.9851 766.019 80.4787 765.882 79.2059Z" fill="#E4DFD6" fill-opacity="0.36"/>
<path d="M754.901 80.6046L754.391 84.5635L753.123 83.3829C752.946 83.3469 752.975 83.6024 753 83.734C753.085 84.187 755.359 86.4555 755.879 86.9182C762.657 92.9502 771.915 95.3609 780.876 94.8855C780.756 94.1428 779.364 94.5165 779.246 94.4034C779.038 93.1833 779.497 91.9098 779.541 90.7897C779.551 90.5127 778.936 88.5128 779.657 88.8099C782.218 91.7962 785.524 96.1227 781.406 99.3225C777.342 102.479 772.795 99.9767 768.787 98.0636C762.679 95.1478 755.364 90.2742 751.968 84.2842C751.496 83.4525 750.759 82.6399 750.969 81.665C751.297 80.147 753.734 80.6574 754.903 80.6022L754.901 80.6046Z" fill="#E4DFD6" fill-opacity="0.36"/>
<path d="M755.15 79.4384L755.142 80.1359C753.726 80.0815 750.6 79.8892 750.457 81.8517C750.417 82.3981 751.12 83.6017 751.409 84.1324C754.596 89.9986 761.81 95.0388 767.691 97.974L774.273 100.878C769.383 100.676 764.377 98.9925 759.927 97.0308C755.232 94.9618 749.65 91.7844 748.412 86.3722C747.962 84.4106 747.946 80.283 750.461 79.7175C751.009 79.5947 754.989 79.264 755.147 79.4359L755.15 79.4384Z" fill="#E4DFD6" fill-opacity="0.36"/>
<path d="M762.628 77.8867L762.441 73.9177C762.854 73.8566 762.951 73.9136 763.242 74.1695C763.745 74.6102 764.685 76.4654 764.916 77.1461C765.956 80.2202 765.527 82.9889 764.874 86.0761C765.351 86.0327 766.413 82.4226 767.002 83.0659C767.176 84.2126 767.267 85.2783 767.196 86.4491C767.166 86.9228 766.89 89.0977 766.588 89.1187L764.864 88.2733C763.912 85.346 762.62 78.837 760.312 76.8015C760.047 76.5676 759.664 76.4638 760.073 77.0346C762.414 80.3053 763.45 84.3128 764.377 88.1707C762.766 87.4798 760.688 86.8323 759.98 85.0939L762.186 86.0466L762.302 85.7027L757.705 79.8137C757.925 79.4418 758.226 79.9069 758.424 80.0331C759.141 80.4857 760.594 81.8556 761.066 82.0674C761.351 82.1945 761.506 82.0139 761.414 81.726L756.136 74.1937L756.251 73.8498C756.958 74.0885 757.829 75.3596 758.687 75.1599C757.501 73.1246 755.773 71.3069 755.257 68.9386C757.825 69.5088 760.104 72.4993 761.216 74.7623C761.711 75.7667 761.871 77.103 762.621 77.8866L762.628 77.8867Z" fill="#E4DFD6" fill-opacity="0.36"/>
<path d="M779.056 90.6676C779.04 91.4331 779.171 94.3417 778.4 94.5982C769.63 94.519 760.745 91.5436 754.66 85.0987L754.885 82.4712L760.135 86.4495C765.785 90.0384 772.387 91.4963 779.058 90.6677L779.056 90.6676Z" fill="#E4DFD6" fill-opacity="0.36"/>
<path d="M759.8 80.4225C759.665 80.562 757.075 78.2293 757.02 79.3395C756.988 79.9639 761.429 84.8327 761.149 85.1043L759.295 84.3863L759.748 85.4414C759.795 85.5974 759.539 85.6092 759.401 85.5494C759.002 85.3797 755.373 82.3137 755.233 81.9986C754.78 80.9751 756.552 77.4069 756.821 76.192L759.803 80.425L759.8 80.4225Z" fill="#E4DFD6" fill-opacity="0.36"/>
<path d="M790.184 51.2366L789.291 56.7742C789.023 58.4401 792.571 62.2259 793.542 63.6544C792.978 66.2636 792.922 69.3581 792.258 71.9011C792.11 72.4691 791.882 72.95 791.203 72.967C790.525 72.9839 787.426 72.4444 786.806 72.1719C786.115 71.8679 785.777 71.1755 785.755 70.4436C786.051 66.0037 787.807 60.9043 787.991 56.5545C788.007 56.192 788.017 55.8305 787.522 55.8149L785.269 69.7996C784.117 70.2118 781.432 69.7227 781.338 68.1629L783.56 54.1169C784.494 51.0538 787.377 50.5294 790.185 51.2389L790.184 51.2366ZM790.616 67.6763C790.899 66.7791 787.969 66.6257 787.765 66.8316L787.894 67.2376L790.616 67.6763Z" fill="#E4DFD6" fill-opacity="0.36"/>
<path d="M802.299 72.8337L804.598 58.5675C804.124 58.4268 804.021 58.7754 803.921 59.1224C802.738 63.2789 802.941 68.9249 801.681 73.0089C801.46 73.7235 800.739 74.3034 799.993 74.3478C799.325 74.3865 795.296 73.7591 795.089 73.2764C794.974 73.007 795.031 72.6391 795.054 72.3479C795.204 70.386 795.796 66.5113 796.294 64.6315C796.362 64.3696 796.358 64.0942 796.604 63.9131C798.15 62.7861 802.331 60.6997 802.648 58.7345L803.48 53.5724L806.576 54.0716C806.659 54.0849 807.681 54.9878 807.828 55.158C808.678 56.1296 808.919 57.2999 808.831 58.5797C808.612 61.7302 807.551 68.727 806.718 71.7163C806.522 72.421 805.836 73.4038 805.023 73.2727L802.301 72.834L802.299 72.8337ZM800.84 68.7466L798.024 68.2928L797.934 68.8559L800.749 69.3098L800.84 68.7466Z" fill="#E4DFD6" fill-opacity="0.36"/>
<path d="M791.491 73.5951C793.063 73.5153 792.809 70.7682 793.116 70.7715L794.697 71.0264C794.441 71.7594 794.183 74.029 795.243 74.1998L800.404 75.0318L799.573 80.1939L799.246 80.4301L792.77 79.3864C792.954 78.7579 792.879 77.8391 793.151 77.2731C793.372 76.8131 794.479 76.6646 794.188 75.9537L792.942 76.5311L792.208 75.7289C790.904 75.4705 792.444 76.6575 792.512 77.17C792.592 77.7928 792.23 78.6433 792.209 79.2959L785.734 78.2521L785.498 77.9252L786.33 72.7631C787.844 72.7865 790.078 73.6661 791.491 73.5951Z" fill="#E4DFD6" fill-opacity="0.36"/>
<path d="M792.512 57.1006C792.545 58.2814 793.588 60.6804 793.749 62.0123C793.788 62.3416 793.764 62.6508 793.683 62.9706C792.38 61.0194 789.801 58.792 789.947 56.3C789.994 55.5029 790.545 51.8183 790.982 51.4213C791.065 51.3463 792.83 50.3972 792.949 50.3581C793.684 50.1175 799.224 51.0487 800.221 51.3638C801.343 51.7172 802.33 52.7669 802.779 53.8384L801.672 59.4517C800.226 61.0764 798.277 62.1945 796.5 63.4247C796.516 63.0903 796.606 62.8019 796.741 62.4987C797.149 61.5773 799.396 58.5873 799.485 58.032L800.438 52.119L793.494 50.9996C793.443 52.8311 792.461 55.365 792.51 57.1003L792.512 57.1006Z" fill="#E4DFD6" fill-opacity="0.36"/>
<path d="M799.163 52.8766L798.679 55.88C797.914 55.9212 797.075 54.492 796.515 54.3817C795.955 54.2714 794.69 55.3475 793.986 55.1236L794.47 52.1202C795.248 52.0649 796.095 53.4775 796.648 53.5585C797.155 53.6323 798.463 52.499 799.163 52.8766Z" fill="#E4DFD6" fill-opacity="0.36"/>
<path d="M795.15 68.2149L793.459 67.9423L793.126 70.0091L794.817 70.2817L795.15 68.2149Z" fill="#E4DFD6" fill-opacity="0.36"/>
<path d="M788.121 106.915C788.802 107.158 789.684 108.809 790.466 107.831C791.638 106.364 787.758 104.599 786.539 105.241C786.834 102.704 790.277 103.784 791.502 105.138C793.33 104.582 791.951 102.894 790.751 102.402C789.781 102.006 788.696 102.094 787.678 102.157C787.55 102.067 788.475 99.3404 788.643 99.2062C789.728 98.3382 792.081 100.077 792.924 100.813C793.245 101.092 793.531 101.71 793.81 101.827C795.182 102.411 797.91 101.598 799.093 100.745C799.324 100.578 799.875 100.154 799.909 99.8583C798.939 100.351 798.239 101.159 797.13 101.482C796.414 101.691 795.429 101.745 794.688 101.673C793.377 101.546 792.986 100.313 791.868 99.6118C792.201 98.0313 794.011 95.5256 795.552 94.8393C801.178 92.326 803.291 99.4808 802.752 103.739C800.051 106.389 797.923 109.136 796.472 112.656L796.63 112.92C797.833 110.222 799.124 108.05 801.082 105.822C802.281 104.459 803.451 104.25 803.109 101.981C804.408 102.528 805.23 106.226 805.132 107.411C805.014 108.823 802.411 112.069 801.182 112.925L800.457 109.646C799.893 110.228 799.701 111.105 799.534 111.873C799.818 111.404 800.095 110.893 800.433 110.46L800.987 112.968L799.318 112.728C799.477 112.444 799.47 112.165 799.534 111.873C798.619 113.386 798.039 114.872 796.741 116.139C792.98 119.807 783.021 122.739 778.438 119.374C776.514 117.962 777.092 117.434 777.45 115.344L778.3 117.253C783.903 121.074 792.552 118.499 796.405 113.273L793.231 116.053C789.884 118.262 784.987 119.51 781.084 118.344C778.855 117.678 777.72 116.994 777.999 114.454C778.347 111.3 781.259 110.399 783.42 108.802C784.789 107.789 784.705 107.021 786.771 106.825C786.97 106.807 787.983 106.865 788.123 106.914C788.055 106.891 787.948 106.687 787.721 106.643C786.803 106.462 785.785 106.597 784.883 106.803L784.631 106.266C785.493 105.102 788.356 105.236 789.447 106.004C790.078 106.446 790.867 107.51 789.871 107.941C789.26 107.274 788.887 107.177 788.121 106.915ZM795.19 107.781L792.068 111.337C789.322 113.843 786.034 115.218 782.286 114.382L779.249 113.429C785.296 117.096 792.066 113.407 795.19 107.781Z" fill="#E4DFD6" fill-opacity="0.36"/>
<path d="M791.319 104.751C791.158 104.7 790.44 103.845 789.633 103.634C788.369 103.302 787.305 103.978 786.329 103.366C787.28 101.636 791.485 102.187 792.087 103.964C792.28 104.534 791.803 104.903 791.319 104.751Z" fill="#E4DFD6" fill-opacity="0.36"/>
<path d="M1445.88 356.253C1445.21 355.976 1443.75 355.331 1443.26 354.975C1443.01 354.787 1442.91 354.679 1442.9 354.586C1439.08 356.383 1432.22 360.122 1432.04 362.032C1432.04 363.181 1432.86 365.611 1436.15 366.144C1439.44 366.678 1444.6 366.848 1446.77 366.867C1450.01 366.774 1457.14 366.366 1459.77 365.477C1463.05 364.366 1467.55 363.533 1470.16 359.643C1472.77 355.753 1472.82 348.286 1473.33 346.251C1473.9 343.936 1475.51 339.396 1476.33 337.917C1477.83 335.583 1481.22 330.46 1482.77 328.637C1484.71 326.37 1489.28 320.966 1489 317.519C1489 317.502 1489 317.485 1489 317.468C1488.73 314.712 1485.77 310.578 1484.33 308.855C1483.2 307.67 1480.33 305.121 1477.83 304.41C1477.83 304.492 1477.8 304.574 1477.77 304.632L1477.6 305.077C1476.73 307.8 1474.73 313.868 1473.66 316.357C1472.59 318.846 1469.84 330.619 1468.6 336.194C1467.92 339.695 1466.41 348.042 1463.34 351.842C1459.62 356.454 1458.78 356.253 1456.89 357.01C1456.41 357.205 1455.54 357.365 1452.77 357.643C1450.54 357.865 1447.25 356.809 1445.88 356.253Z" fill="#FFB713" fill-opacity="0.27"/>
<path d="M1436.15 366.144C1432.86 365.611 1432.04 363.181 1432.04 362.032C1431.84 363.625 1432.31 366.944 1435.82 367.478C1439.33 368.011 1442.84 368.256 1444.15 368.311C1447.78 368.274 1455.11 367.839 1455.82 367.756C1456.95 367.623 1460.27 367.644 1465.55 365.144C1469.77 363.144 1471.34 359.828 1471.6 358.42C1472.18 355.846 1473.12 350.39 1473.33 349.252C1473.62 347.619 1476.9 338.395 1478.1 336.805C1478.5 336.211 1479.42 334.902 1480.68 333.249C1480.85 333.015 1481.04 332.774 1481.23 332.527C1481.71 331.909 1482.22 331.256 1482.77 330.582C1485.08 327.737 1487.29 324.433 1488.11 323.136C1488.53 322.675 1489.3 320.909 1489 317.519C1489.28 320.966 1484.71 326.37 1482.77 328.637C1481.22 330.46 1477.83 335.583 1476.33 337.917C1475.51 339.396 1473.9 343.936 1473.33 346.251C1472.82 348.286 1472.77 355.753 1470.16 359.643C1467.55 363.533 1463.05 364.366 1459.77 365.477C1457.14 366.366 1450.01 366.774 1446.77 366.867C1444.6 366.848 1439.44 366.678 1436.15 366.144Z" fill="#FFB713" fill-opacity="0.27"/>
<path d="M1458.1 346.974C1454.46 354.397 1447.43 354.957 1444.38 354.309C1451.04 357.254 1455.95 355.788 1456.28 355.621L1456.42 355.554C1460.36 353.581 1462.38 352.573 1465.55 343.418C1466 342.12 1468.12 333.916 1468.99 329.915C1469.77 324.803 1472.21 317.468 1472.77 315.857C1473.21 314.568 1475.7 307.652 1476.77 304.41C1474.77 304.966 1472.88 310.634 1472.21 311.523C1471.68 312.234 1467.73 323.229 1465.82 328.637C1464.77 331.656 1461.75 339.55 1458.1 346.974Z" fill="#FFB713" fill-opacity="0.27"/>
<path d="M1488.11 323.136C1487.29 324.433 1485.08 327.737 1482.77 330.582C1482.22 331.256 1481.71 331.909 1481.23 332.527L1481.95 332.367L1482.99 332.138C1483.44 332.008 1484.37 332.004 1484.55 333.027C1484.85 333.842 1485.59 336.183 1486.22 339.028C1486.84 341.873 1487.66 345.955 1488 347.641L1489.66 357.309L1491.51 357.087L1490.55 351.919L1489.66 346.196L1488.55 338.583C1488.5 337.342 1488.33 334.394 1488.11 332.527C1487.88 330.66 1488.2 328.489 1488.38 327.637C1488.46 327.544 1488.72 326.581 1489.16 323.469C1489.61 320.358 1489.24 318.172 1489 317.468C1489 317.485 1489 317.502 1489 317.519C1489.3 320.909 1488.53 322.675 1488.11 323.136Z" fill="#FFB713" fill-opacity="0.27"/>
<path d="M1481.95 332.367C1483.82 333.212 1484.79 337.213 1484.99 338.861L1488.85 357.087L1489.66 357.309L1488 347.641C1487.66 345.955 1486.84 341.873 1486.22 339.028C1485.59 336.183 1484.85 333.842 1484.55 333.027C1484.37 332.004 1483.44 332.008 1482.99 332.138L1481.95 332.367Z" fill="#FFB713" fill-opacity="0.27"/>
<path d="M1491.27 359.254C1491.85 359.165 1491.85 358.735 1491.77 358.532L1491.51 357.087L1489.66 357.309L1488.85 357.087L1489.27 359.087L1490.16 359.421C1490.29 359.402 1490.7 359.343 1491.27 359.254Z" fill="#FFB713" fill-opacity="0.27"/>
<path d="M1444.38 354.309C1447.43 354.957 1454.46 354.397 1458.1 346.974C1461.75 339.55 1464.77 331.656 1465.82 328.637C1467.73 323.229 1471.68 312.234 1472.21 311.523C1472.88 310.634 1474.77 304.966 1476.77 304.41M1444.38 354.309C1451.04 357.254 1455.95 355.788 1456.28 355.621M1444.38 354.309L1443.99 354.142C1443.61 354.01 1443.53 353.831 1443.26 354.142C1443.07 354.366 1442.9 354.461 1442.9 354.586M1476.77 304.41C1475.7 307.652 1473.21 314.568 1472.77 315.857C1472.21 317.468 1469.77 324.803 1468.99 329.915C1468.12 333.916 1466 342.12 1465.55 343.418C1462.38 352.573 1460.36 353.581 1456.42 355.554M1476.77 304.41C1476.99 303.743 1477.22 304.077 1477.6 304.132C1477.79 304.159 1477.84 304.284 1477.83 304.41M1456.28 355.621L1456.42 355.554M1456.28 355.621C1456.33 355.599 1456.37 355.576 1456.42 355.554M1442.9 354.586C1442.91 354.679 1443.01 354.787 1443.26 354.975C1443.75 355.331 1445.21 355.976 1445.88 356.253C1447.25 356.809 1450.54 357.865 1452.77 357.643C1455.54 357.365 1456.41 357.205 1456.89 357.01C1458.78 356.253 1459.62 356.454 1463.34 351.842C1466.41 348.042 1467.92 339.695 1468.6 336.194C1469.84 330.619 1472.59 318.846 1473.66 316.357C1474.73 313.868 1476.73 307.8 1477.6 305.077L1477.77 304.632C1477.8 304.574 1477.83 304.492 1477.83 304.41M1442.9 354.586C1439.08 356.383 1432.22 360.122 1432.04 362.032M1432.04 362.032C1432.04 363.181 1432.86 365.611 1436.15 366.144C1439.44 366.678 1444.6 366.848 1446.77 366.867C1450.01 366.774 1457.14 366.366 1459.77 365.477C1463.05 364.366 1467.55 363.533 1470.16 359.643C1472.77 355.753 1472.82 348.286 1473.33 346.251C1473.9 343.936 1475.51 339.396 1476.33 337.917C1477.83 335.583 1481.22 330.46 1482.77 328.637C1484.71 326.37 1489.28 320.966 1489 317.519M1432.04 362.032C1431.84 363.625 1432.31 366.944 1435.82 367.478C1439.33 368.011 1442.84 368.256 1444.15 368.311C1447.78 368.274 1455.11 367.839 1455.82 367.756C1456.95 367.623 1460.27 367.644 1465.55 365.144C1469.77 363.144 1471.34 359.828 1471.6 358.42C1472.18 355.846 1473.12 350.39 1473.33 349.252C1473.62 347.619 1476.9 338.395 1478.1 336.805C1478.5 336.211 1479.42 334.902 1480.68 333.249M1489 317.468C1488.73 314.712 1485.77 310.578 1484.33 308.855C1483.2 307.67 1480.33 305.121 1477.83 304.41M1489 317.468C1489.24 318.172 1489.61 320.358 1489.16 323.469C1488.72 326.581 1488.46 327.544 1488.38 327.637C1488.2 328.489 1487.88 330.66 1488.11 332.527C1488.33 334.394 1488.5 337.342 1488.55 338.583L1489.66 346.196L1490.55 351.919L1491.51 357.087M1489 317.468C1489 317.485 1489 317.502 1489 317.519M1489 317.468C1489 317.485 1489 317.502 1489 317.519M1481.95 332.367C1483.82 333.212 1484.79 337.213 1484.99 338.861L1488.85 357.087M1481.95 332.367L1480.68 333.249M1481.95 332.367L1481.23 332.527M1481.95 332.367L1482.99 332.138M1480.68 333.249C1480.85 333.015 1481.04 332.774 1481.23 332.527M1481.23 332.527C1481.71 331.909 1482.22 331.256 1482.77 330.582C1485.08 327.737 1487.29 324.433 1488.11 323.136C1488.53 322.675 1489.3 320.909 1489 317.519M1481.23 332.527L1482.99 332.138M1482.99 332.138C1483.44 332.008 1484.37 332.004 1484.55 333.027C1484.85 333.842 1485.59 336.183 1486.22 339.028C1486.84 341.873 1487.66 345.955 1488 347.641L1489.66 357.309M1489.66 357.309L1488.85 357.087M1489.66 357.309L1491.51 357.087M1488.85 357.087L1489.27 359.087L1490.16 359.421C1490.29 359.402 1490.7 359.343 1491.27 359.254C1491.85 359.165 1491.85 358.735 1491.77 358.532L1491.51 357.087" stroke="white" stroke-width="0.583054"/>
<path d="M800.063 649.486C799.369 652.061 799.699 656.032 798.897 658.423C798.636 659.2 797.69 659.864 797.275 661.445C796.197 665.522 795.627 670.031 794.625 674.138C794.533 674.511 794.088 676.098 793.864 676.135L784.884 674.309L784.242 673.757L788.753 652.989C791.488 652.685 793.914 651.642 794.736 648.791L800.063 649.486Z" fill="#E4DFD6" fill-opacity="0.36"/>
<path d="M805.859 650.242C806.596 653.302 807.828 654.65 810.717 655.87L809.834 677.042L809.007 677.452L799.689 676.872L800.371 661.527C799.307 657.586 800.692 653.606 801.003 649.608L805.859 650.242Z" fill="#E4DFD6" fill-opacity="0.36"/>
<path d="M810.839 649.934L790.162 647.237L790.546 645.353L810.341 647.636C811.441 647.906 810.916 649.087 810.839 649.934Z" fill="#E4DFD6" fill-opacity="0.36"/>
<path d="M793.795 648.672C793.302 650.678 791.232 651.89 789.236 651.902L789.998 648.313L793.795 648.672Z" fill="#E4DFD6" fill-opacity="0.36"/>
<path d="M810.536 654.68C808.39 654.111 807.227 652.511 806.955 650.388L810.718 651.015L810.536 654.68Z" fill="#E4DFD6" fill-opacity="0.36"/>
<path d="M791.069 616.996C790.524 616.687 790.455 615.67 790.516 615.08C791.132 609.271 794.217 600.529 795.888 594.749C797.825 588.049 799.73 581.379 802.331 574.913L808.726 576.646L805.906 596.384C803.619 603.035 803.049 611.507 800.648 617.956C800.451 618.492 800.364 618.917 799.745 619.116L791.065 616.995L791.069 616.996Z" fill="#E4DFD6" fill-opacity="0.36"/>
<path d="M801.195 574.631C795.863 587.436 792.708 600.928 789.501 614.423C789.287 614.959 789.572 615.091 788.799 614.844C785.859 613.917 782.985 612.622 779.991 611.832L779.591 610.788C782.789 597.428 788.033 584.564 795.916 573.341L801.199 574.632L801.195 574.631Z" fill="#E4DFD6" fill-opacity="0.36"/>
<path d="M810.249 576.843C811.437 577.351 814.674 577.449 815.265 578.461C815.855 579.473 816.121 586.569 816.162 588.214C816.33 594.94 815.845 603.133 814.62 609.748C814.224 611.882 813.205 617.054 812.414 618.813C812.231 619.223 812.098 619.549 811.579 619.556L802.742 618.268L802.042 617.5C806.179 604.324 808.218 590.505 810.248 576.847L810.249 576.843Z" fill="#E4DFD6" fill-opacity="0.36"/>
<path d="M794.403 572.971C787.018 584.232 781.527 596.749 778.597 609.945L769.126 606.371C772.243 593.429 779.105 580.622 788.931 571.634L794.403 572.971Z" fill="#E4DFD6" fill-opacity="0.36"/>
<path d="M822.702 579.886C825.174 589.807 826.928 599.393 825.768 609.719C825.592 611.282 824.482 618.997 823.806 619.549C823.556 619.755 823.422 619.91 823.064 619.943C822.016 620.041 816.247 619.17 815.003 618.857C814.688 618.78 814.373 618.691 814.063 618.611C817.015 605.408 818.504 591.847 816.668 578.412L822.706 579.887L822.702 579.886Z" fill="#E4DFD6" fill-opacity="0.36"/>
<path d="M802.752 566.604L801.325 572.461C801.297 572.575 801.733 572.869 801.564 573.12L789.488 570.169C790.007 568.824 789.955 567.143 790.645 565.952C796.651 566.004 795.018 565.056 795.702 565.162L802.752 566.604Z" fill="#E4DFD6" fill-opacity="0.36"/>
<path d="M822.693 578.283L811.372 575.517L812.937 569.093L822.183 571.352C824.259 571.859 823.26 576.879 822.693 578.283Z" fill="#E4DFD6" fill-opacity="0.36"/>
<path d="M804.124 567.54C804.588 566.761 809.174 568.077 810.115 568.403C812.193 569.124 811.714 569.482 811.165 571.462C810.09 571.375 807.273 569.998 806.501 570.927C806.137 571.564 806.889 571.815 807.33 572.018C808.436 572.522 809.645 572.655 810.796 572.974L809.678 575.102L802.696 573.397L804.124 567.54Z" fill="#E4DFD6" fill-opacity="0.36"/>
<path d="M764.682 627.254L771.608 645.76L741.384 657.1L740.59 656.738L733.88 638.81C732.83 639.891 732.462 643.185 730.73 643.336C729.799 643.415 722.168 640.457 723.01 638.501C725.144 635.305 726.829 627.926 729.09 625.278C732.094 621.765 739.744 619.875 741.57 614.413C741.795 613.733 741.399 613.249 741.48 612.706C741.746 610.948 743.06 608.518 739.834 609.078L738.794 611.47C736.664 609.104 741.314 606.874 742.557 609.462C743.566 611.557 739.548 614.095 746.161 614.934C750.493 615.485 755.406 613.847 759.79 613.755L773.063 619.726L773.604 620.572C773.953 621.678 771.32 627.781 770.408 628.449C768.828 629.605 766.382 626.772 764.678 627.255L764.682 627.254ZM749.285 615.448C746.833 616.07 744.475 615.123 742.155 614.583C740.819 616.54 739.887 618.621 737.806 619.965C739.025 621.244 747.463 617.46 748.992 616.423C749.521 616.065 749.772 616.442 749.285 615.448ZM751.402 616.412C747.16 619.584 742.457 621.44 737.159 621.756C741.432 625.754 750.578 622.043 751.402 616.412Z" fill="#E4DFD6" fill-opacity="0.36"/>
<path d="M773.628 651.158C774.835 654.016 775.649 655.36 772.499 656.881C764.72 660.637 755.055 662.78 747.078 666.373C744.873 666.875 742.524 664.692 743.406 662.502L773.63 651.162L773.628 651.158Z" fill="#E4DFD6" fill-opacity="0.36"/>
<path d="M772.041 646.917L773.195 650.001L742.394 661.558L741.538 659.089L741.817 658.257L772.041 646.917Z" fill="#E4DFD6" fill-opacity="0.36"/>
<path d="M1426.91 181.658L1422.54 178.718C1422.42 177.984 1422.34 176.072 1422.63 175.445C1423.66 173.233 1426.08 170.761 1427.3 168.555L1434.89 166.675L1435.12 166.435L1434.22 164.2L1436.53 164.918L1439.61 160.974C1440.36 162.06 1441.27 163.176 1441.43 164.541C1441.33 164.75 1439.69 164.826 1439.25 164.981C1438.87 165.115 1437.58 165.791 1437.41 166.045L1426.91 181.662L1426.91 181.658ZM1428.66 169.374C1427.71 169.074 1426.58 170.594 1427.44 171.494C1429.11 173.225 1431.03 170.117 1428.66 169.374ZM1425.21 173.797C1425.46 175.502 1428.27 175.124 1427.75 173.239C1427.3 171.641 1424.96 172.175 1425.21 173.797ZM1425.89 176.194C1425.57 174.548 1422.92 175.067 1423.24 176.714C1423.56 178.361 1426.23 177.91 1425.89 176.194Z" fill="#E4DFD6" fill-opacity="0.36"/>
<path d="M1424.97 157.875C1425.22 157.367 1425.34 156.108 1425.31 155.519C1425.27 154.74 1424.9 154.177 1424.94 153.447C1425.41 152.955 1428.23 153.597 1428.93 153.786L1426.44 158.131L1427.97 160L1425.57 160.017L1425.37 160.325L1426.55 168.052L1421.93 174.972C1421.38 175.247 1419.28 176.527 1418.79 176.199L1414.56 173.352L1424.97 157.875ZM1422.22 171.248L1418.62 168.822L1416.33 172.223C1416.3 172.263 1416.25 173.08 1416.29 173.195C1416.42 173.692 1418.2 174.93 1418.7 175.083C1418.85 175.13 1419.72 174.97 1419.75 174.927L1422.22 171.248Z" fill="#E4DFD6" fill-opacity="0.36"/>
<path d="M1437.92 166.786C1438.71 165.901 1440.15 165.565 1441.29 165.526C1441.6 165.675 1441.43 165.675 1441.38 165.864C1441.34 166.021 1441.1 166.846 1441.07 166.891L1434.21 177.094L1431.99 175.6L1437.92 166.786Z" fill="#E4DFD6" fill-opacity="0.36"/>
<path d="M1418.25 166.362L1416.03 164.868L1422.99 154.526C1423.05 154.438 1423.92 153.696 1424.08 153.951C1424.24 154.207 1424.49 155.69 1424.47 156.043C1424.46 156.258 1424.23 157.469 1424.18 157.547L1418.25 166.362Z" fill="#E4DFD6" fill-opacity="0.36"/>
<path d="M1429.46 159.587C1430.1 158.233 1430.1 155.666 1430.74 154.446C1430.83 154.256 1431.02 154.037 1431.22 154.12C1431.51 154.234 1432.12 158.377 1432.27 158.983C1432.16 159.233 1429.89 159.553 1429.46 159.587L1429.46 159.587Z" fill="#E4DFD6" fill-opacity="0.36"/>
<path d="M1434.04 162.664C1433.91 162.252 1433.35 160.034 1433.54 159.835L1438.43 158.968L1438.31 159.547L1434.04 162.661L1434.04 162.664Z" fill="#E4DFD6" fill-opacity="0.36"/>
<path d="M1437.12 158.084L1433.25 158.901L1432.54 155.005L1437.12 158.084Z" fill="#E4DFD6" fill-opacity="0.36"/>
<path d="M1427.9 167.002C1427.64 164.889 1429.18 163.787 1430.72 162.651C1430.32 164.57 1429.7 166.041 1427.9 167.002Z" fill="#E4DFD6" fill-opacity="0.36"/>
<path d="M1428.29 161.018L1427.12 165.467C1427.04 164.686 1426.26 161.745 1426.38 161.208C1426.5 160.734 1428.26 160.915 1428.29 161.017L1428.29 161.018Z" fill="#E4DFD6" fill-opacity="0.36"/>
<path d="M1436.21 163.895L1434.75 163.527C1434.5 163.431 1434.52 163.397 1434.69 163.205C1435.18 162.642 1437.72 160.947 1438.49 160.463C1438.68 160.344 1438.83 160.099 1439.1 160.225L1436.21 163.895Z" fill="#E4DFD6" fill-opacity="0.36"/>
<path d="M1428.58 159.396L1427.51 158.038L1429.81 153.974L1428.58 159.396Z" fill="#E4DFD6" fill-opacity="0.36"/>
<path d="M1433.65 177.926L1431.43 176.433L1430.5 177.821L1432.72 179.315L1433.65 177.926Z" fill="#E4DFD6" fill-opacity="0.36"/>
<path d="M1417.7 167.195L1415.48 165.702L1414.54 167.09L1416.76 168.583L1417.7 167.195Z" fill="#E4DFD6" fill-opacity="0.36"/>
<path d="M1432.74 160.874C1432.78 161.056 1432.81 161.23 1432.88 161.407L1432.7 161.611C1431.21 162.429 1430.71 161.979 1430.99 160.341L1432.49 160.024C1432.53 160.32 1432.67 160.59 1432.74 160.876L1432.74 160.874Z" fill="#E4DFD6" fill-opacity="0.36"/>
<path d="M1430.93 164.603C1431.58 163.519 1431.18 162.838 1432.63 162.573C1432.78 162.544 1432.9 162.318 1433.13 162.663C1433.51 163.235 1431.45 164.564 1430.93 164.604L1430.93 164.603Z" fill="#E4DFD6" fill-opacity="0.36"/>
<path d="M1430.15 160.655C1430.24 162 1429.8 162.154 1428.94 163.063C1428.59 162.907 1428.73 162.898 1428.75 162.677C1428.81 162.017 1429.19 160.023 1430.15 160.653L1430.15 160.655Z" fill="#E4DFD6" fill-opacity="0.36"/>
<path d="M1426.44 173.074C1427.04 172.969 1427.18 174.31 1426.31 173.998C1425.92 173.854 1426.3 173.099 1426.44 173.074Z" fill="#E4DFD6" fill-opacity="0.36"/>
<path d="M1424.48 175.989C1424.61 175.959 1425.25 176.514 1424.94 176.799C1424.26 177.414 1423.88 176.123 1424.48 175.989Z" fill="#E4DFD6" fill-opacity="0.36"/>
<path d="M1428.93 170.536C1428.64 171.726 1427.62 171.039 1428.4 170.161L1428.93 170.536Z" fill="#E4DFD6" fill-opacity="0.36"/>
<path d="M1420.13 172.864L1419.01 174.243L1417.19 173.018L1418.05 171.464L1420.13 172.864Z" fill="#E4DFD6" fill-opacity="0.36"/>
<path d="M1421.06 171.476L1420.62 171.999C1420.24 172.152 1418.96 170.97 1418.51 170.77L1418.98 170.074L1421.06 171.474L1421.06 171.476Z" fill="#E4DFD6" fill-opacity="0.36"/>
<path d="M1434.02 165.866C1434.03 166.293 1429.95 167.019 1429.35 167.142L1433.26 164.328L1434.02 165.867L1434.02 165.866Z" fill="#E4DFD6" fill-opacity="0.36"/>
<path d="M1460.81 110.502C1460.08 120.63 1460.33 131.353 1456.08 140.881C1454.87 143.582 1454.25 143.589 1451.56 143.547C1445.83 143.455 1438.19 140.356 1433.43 137.251C1431.89 136.252 1425.95 130.884 1425.54 129.369C1424.91 127.016 1431.58 118.804 1433.45 116.742C1437.66 112.118 1443 108.369 1447.85 104.461L1448.35 104.358C1449.39 106.584 1451.29 105.934 1452.59 106.531C1454.4 107.361 1456.56 109.364 1457.94 110.048C1458.93 110.541 1459.85 110.089 1460.8 110.502L1460.81 110.502Z" fill="#E4DFD6" fill-opacity="0.36"/>
<path d="M1473.81 99.8266L1466.51 107.548C1464.08 107.347 1462.51 104.701 1461.03 103.877C1459.76 103.175 1456.6 102.723 1455.01 101.717C1454.38 101.325 1454.19 100.391 1453.02 99.8642C1451.44 99.1496 1448.8 99.5159 1446.93 97.8299L1448.63 87.1837C1448.11 86.2001 1445.65 88.6139 1444.16 87.2608C1443.6 86.7526 1442.37 82.69 1442.87 81.7337C1443.31 81.022 1449.61 78.8723 1450.75 78.6889C1457.62 77.5827 1459.91 83.5231 1465.25 85.9901C1469.75 88.0658 1476.37 87.2755 1479.17 92.4766C1479.67 93.3985 1481.96 100.604 1481.74 101.191C1481.22 102.551 1477.72 103.812 1476.41 103.452C1474.36 102.886 1475.34 100.756 1473.81 99.8266ZM1471.35 88.5516C1468.23 87.9005 1465.39 87.2875 1462.64 85.5565C1461.23 84.6691 1460.12 83.1255 1458.94 82.3279C1458.39 81.957 1458.3 81.9689 1458.08 82.6152C1457.28 84.9758 1460.38 89.827 1461.77 91.7928C1464.95 91.298 1469.8 92.0114 1471.35 88.5576L1471.35 88.5516Z" fill="#E4DFD6" fill-opacity="0.36"/>
<path d="M1447.64 103.422C1440.64 109.568 1432.5 115.201 1427.3 123.14C1426.6 124.215 1426.22 125.528 1425.55 126.508C1425.22 127.001 1425.43 127.272 1424.71 126.785C1423.7 125.295 1423.19 124.083 1423.83 122.303C1425.54 117.554 1431.83 111.507 1435.73 108.259C1436.95 107.245 1443.22 102.439 1444.21 102.165C1445.37 101.849 1446.56 102.999 1447.64 103.422Z" fill="#E4DFD6" fill-opacity="0.36"/>
<path d="M1407.62 114.643C1408.3 115.347 1406.76 118.211 1406.55 119.243C1405.8 122.931 1407.29 125.23 1407.37 128.797C1407.43 131.527 1406.74 133.868 1406.64 136.309C1406.59 137.43 1407.44 142.673 1407.06 143.142L1398.56 144.602C1398.02 144.368 1397.4 139.365 1396.91 138.382C1395.12 134.784 1392.67 143.749 1391.86 143.924L1383.81 140.79C1383.61 140.389 1385.4 135.4 1385.58 134.41C1386.18 131.105 1385.85 127.334 1387.13 123.963C1388.13 121.319 1389.12 120.921 1389.15 117.455C1389.16 116.429 1388.41 113.737 1388.78 113.141C1389.05 112.704 1391.87 111.987 1392.23 112.206C1392.83 112.577 1392.47 114.174 1392.62 115.042C1393.54 120.063 1402.06 120.694 1403.74 116.047C1404.02 115.26 1403.81 113.752 1404.57 113.456C1404.82 113.361 1407.49 114.497 1407.62 114.641L1407.62 114.643ZM1395.29 122.2C1391.77 119.099 1388.23 123.504 1390.42 126.166C1390.65 126.442 1391.32 126.722 1391.38 126.851C1391.54 127.184 1391.22 128.198 1391.26 128.736C1391.64 133.943 1398.27 135.917 1401.38 131.677C1402.31 130.406 1402.21 128.245 1402.44 127.96C1402.61 127.738 1403.9 127.796 1404.36 126.334C1405.17 123.745 1403.39 121.527 1400.67 122.075C1400.01 122.207 1399.46 123.099 1399.03 123.155C1398.74 123.192 1397.8 122.82 1397.26 122.761C1396.77 122.706 1395.94 122.93 1395.67 122.827C1395.41 122.723 1395.42 122.319 1395.28 122.202L1395.29 122.2Z" fill="#E4DFD6" fill-opacity="0.36"/>
<path d="M1409.29 116.155C1409.71 116.08 1410.01 116.527 1410.3 116.751C1410.94 117.238 1414.54 120.549 1414.62 121.006C1414.72 121.623 1411.95 126.424 1411.41 126.471L1408.43 125.406C1406.9 122.614 1407.35 118.634 1409.29 116.152L1409.29 116.155Z" fill="#E4DFD6" fill-opacity="0.36"/>
<path d="M1386.68 113.881C1387.65 113.721 1387.74 115.52 1387.82 116.233C1388.02 118.021 1387.92 119.383 1387.29 121.077C1386.3 123.696 1385.41 123.176 1382.92 123.606C1382.51 123.461 1381.82 121.246 1381.63 120.661C1381.41 120.006 1380.67 118.079 1380.86 117.592C1380.98 117.27 1386.34 113.938 1386.68 113.884L1386.68 113.881Z" fill="#E4DFD6" fill-opacity="0.36"/>
<path d="M1402.92 113.453C1403 115.597 1401.66 117.81 1399.36 117.89C1396.46 117.991 1393.44 116.975 1393.7 113.512C1393.85 111.43 1395.93 113.069 1397.3 113.321C1398.02 113.454 1399.06 113.541 1399.8 113.538C1400.44 113.536 1402.67 112.941 1402.92 113.453Z" fill="#E4DFD6" fill-opacity="0.36"/>
<path d="M1407.25 145.935C1404.95 146.094 1402.03 147.172 1399.81 147.244C1398.9 147.275 1398.65 146.884 1399.06 146.044C1399.3 145.753 1405.71 144.567 1406.44 144.539C1407.5 144.497 1407.47 145.033 1407.25 145.935Z" fill="#E4DFD6" fill-opacity="0.36"/>
<path d="M1383.56 142.198C1384.26 142.052 1390.04 144.751 1391.07 145.243C1391.28 145.897 1391.11 146.44 1390.33 146.287C1389.48 146.121 1384.42 144.191 1383.66 143.746C1382.99 143.353 1382.84 142.349 1383.56 142.201L1383.56 142.198Z" fill="#E4DFD6" fill-opacity="0.36"/>
<path d="M1396.99 123.953C1402.4 124.085 1402.56 132.511 1397.17 132.679C1390.94 132.876 1391.14 123.811 1396.99 123.953ZM1394.9 125.785C1394.17 125.932 1394.68 126.975 1395.2 126.936C1396.02 126.879 1396.12 125.535 1394.9 125.785ZM1398.43 126.13C1398.28 126.249 1398.3 127.412 1398.88 127.328C1400.13 127.147 1399.1 125.613 1398.43 126.13ZM1395.26 130.816C1397.12 132.905 1399.98 129.608 1397.89 128.142C1395.8 126.677 1393.9 129.295 1395.26 130.816Z" fill="#E4DFD6" fill-opacity="0.36"/>
<path d="M1392.01 125.711C1389.77 124.707 1391.63 121.262 1393.88 122.611C1395.33 123.48 1391.95 124.497 1392.01 125.711Z" fill="#E4DFD6" fill-opacity="0.36"/>
<path d="M1402.07 126.73C1402.03 126.18 1401.72 125.501 1401.41 125.061C1400.99 124.467 1399.52 123.765 1400.85 123.318C1403.35 122.48 1404.5 126.134 1402.07 126.73Z" fill="#E4DFD6" fill-opacity="0.36"/>
<path d="M1397.21 129.01C1397.8 129.541 1396.81 130.625 1396.19 130.054C1395.67 129.573 1396.76 128.598 1397.21 129.01Z" fill="#E4DFD6" fill-opacity="0.36"/>
<g clip-path="url(#clip1_7_277)">
<path d="M1256.57 498.275C1256.52 498.376 1255.43 498.441 1255.39 499.248C1256.89 503.764 1258.95 509.052 1253.84 512.09C1249.96 514.395 1239.91 512.744 1237.33 508.878C1235.9 506.741 1236.37 503.117 1232.77 505.867C1236.28 511.537 1228.18 520.233 1223.24 521.58C1216.42 523.442 1214.3 516.853 1212.89 511.642L1211.15 510.992C1211.3 510.195 1212.34 510.253 1212.63 509.893C1212.78 509.715 1212.68 508.714 1212.94 508.163C1213.68 506.576 1215.42 505.216 1217.01 504.53C1226.29 500.531 1238.33 498.954 1247.89 495.192C1249.3 494.86 1251.61 495.019 1252.89 495.65C1253.75 496.071 1254 496.743 1254.49 497.002C1254.91 497.223 1257.11 497.133 1256.57 498.274L1256.57 498.275ZM1235.72 500.759L1230.51 502.326L1231.87 504.126L1235.23 503.451L1235.72 500.759ZM1218.95 507.316C1218.73 507.442 1216.55 511.577 1216.51 511.828C1216.38 512.534 1216.65 512.51 1217.18 512.768C1217.93 512.689 1220.42 508.408 1219.97 507.584L1218.95 507.316ZM1225.02 505.49C1224.27 505.549 1224.14 505.924 1223.77 506.415C1223.15 507.231 1220.83 511.549 1220.49 512.512C1220.29 513.094 1220.05 513.41 1220.41 514.066C1221.28 513.97 1221.52 513.646 1222.01 513.039C1222.3 512.689 1225.09 507.497 1225.17 507.169C1225.33 506.518 1225.31 506.105 1225.02 505.494L1225.02 505.49ZM1242.39 500.269C1241.68 499.868 1239.35 504.215 1239.18 504.827C1239.07 505.214 1239.39 505.947 1239.58 506.031C1240.34 506.351 1243.6 500.953 1242.39 500.269ZM1247.6 498.702C1246.86 498.761 1246.72 499.136 1246.35 499.627C1245.57 500.667 1243.62 504.443 1243.09 505.734C1242.48 507.215 1243.52 507.546 1244.47 506.475C1244.71 506.205 1247.67 500.714 1247.75 500.378C1247.91 499.727 1247.89 499.314 1247.6 498.702Z" fill="#E4DFD6" fill-opacity="0.36"/>
<path d="M1281.42 538.914C1281.45 540.47 1280.6 540.771 1279.33 541.136C1278.78 542.518 1280.58 542.666 1280.46 543.847C1280.31 545.474 1277.75 544.836 1278.42 546.526C1278.57 546.914 1279.48 547.192 1279.56 547.836C1279.84 550.104 1277.76 548.962 1276.83 549.274C1276.51 549.383 1273.67 552.701 1272.68 553.359C1264.27 558.957 1252.22 554.223 1249.81 544.449C1245.67 527.69 1268.76 517.708 1277.88 534.234C1279.04 536.331 1278.45 538.187 1281.43 538.911L1281.42 538.914ZM1273.95 534.594C1266.06 522.146 1247.07 534.177 1254.65 546.741C1262.23 559.3 1282.2 547.592 1273.95 534.594Z" fill="#E4DFD6" fill-opacity="0.36"/>
<path d="M1267.66 517.876C1265.97 522.295 1270.23 523.177 1270.43 518.449L1274.55 519.677C1275.48 520.78 1273.94 524.278 1273.87 525.762C1270.06 523.491 1266 522.649 1261.6 523.221C1262.55 518.613 1261.95 515.863 1267.67 517.876L1267.66 517.876Z" fill="#E4DFD6" fill-opacity="0.36"/>
<path d="M1267.13 558.201C1266.19 562.793 1266.78 565.564 1261.07 563.546L1261.48 560.714C1259.18 558.771 1258.65 560.805 1258.3 562.973C1252.26 562.554 1253.91 560.253 1254.87 555.66C1258.64 558.006 1262.72 558.95 1267.13 558.201Z" fill="#E4DFD6" fill-opacity="0.36"/>
<path d="M1249.58 551.265C1249.98 550.978 1252.55 553.714 1252.61 554.226C1252.86 556.159 1251.86 559.172 1249.9 556.693C1248.6 555.067 1249.13 553.127 1249.58 551.265Z" fill="#E4DFD6" fill-opacity="0.36"/>
<path d="M1273.72 556.267C1273.4 558.158 1273.11 560.145 1271.28 561.123C1268.49 562.612 1268.77 559.461 1269.77 557.78C1270 557.383 1273.55 555.952 1273.72 556.267Z" fill="#E4DFD6" fill-opacity="0.36"/>
<path d="M1259.71 520.358C1259.69 523.43 1257.98 525.152 1255 525.158C1255.44 522.55 1256.42 519.14 1259.71 520.358Z" fill="#E4DFD6" fill-opacity="0.36"/>
<path d="M1279.14 530.16C1276.39 528.709 1275.51 526.906 1276.73 523.885C1280.22 524.113 1279.91 527.572 1279.14 530.16Z" fill="#E4DFD6" fill-opacity="0.36"/>
<path d="M1264.18 532.11C1273.93 532.463 1276.3 544.995 1267.86 548.63C1259.27 552.326 1251.51 541.568 1258.3 534.614C1259.75 533.138 1262.09 532.038 1264.18 532.11ZM1265.06 542.039C1268.2 537.996 1264.81 532.073 1263.22 539.243L1260.89 538.82C1258.5 541.797 1262.93 541.533 1265.06 542.039Z" fill="#E4DFD6" fill-opacity="0.36"/>
<path d="M1222.28 567.328L1224 571.43L1229.8 569.437L1228.63 565.149L1236.12 562.573C1235.68 569.71 1236.88 576.44 1240.75 582.568L1223.45 588.51C1222.95 583.718 1221.66 579.662 1219.1 575.566C1217.86 573.574 1216.06 571.935 1215.08 569.803L1222.29 567.327L1222.28 567.328ZM1233.31 571.27C1233.06 571.46 1232.59 571.197 1232.49 571.23L1222.98 574.499C1222.88 574.532 1222.67 575.03 1222.36 575.034L1224.39 580.94C1224.47 581.168 1226.36 581.853 1226.85 581.8C1228.04 581.669 1231.95 580.261 1233.17 579.712C1233.94 579.367 1235.65 578.065 1235.34 577.177L1233.31 571.271L1233.31 571.27Z" fill="#E4DFD6" fill-opacity="0.36"/>
<path d="M1214.13 571.74C1217.97 576.878 1221.78 582.573 1221.28 589.254C1218.83 589.308 1216.54 588.205 1215.47 585.939C1214.29 583.415 1213.83 575.467 1213.69 572.363C1213.67 571.901 1213.36 571.919 1214.13 571.743L1214.13 571.74Z" fill="#E4DFD6" fill-opacity="0.36"/>
<path d="M1237.96 563.232L1244.41 572.855C1246.14 576.356 1246.25 579.363 1242.92 581.819C1238.51 576.697 1237.79 569.74 1237.96 563.233L1237.96 563.232Z" fill="#E4DFD6" fill-opacity="0.36"/>
<path d="M1218.98 560.202C1217.94 562.327 1218.51 564.325 1219.38 566.392L1217.65 566.987C1213.49 559.781 1221.68 551.767 1228.69 556.42C1230.28 557.474 1234.35 562.61 1230.37 562.312C1229.68 561.234 1229.66 560.109 1228.85 559.035C1226.33 555.695 1220.76 556.55 1218.98 560.203L1218.98 560.202Z" fill="#E4DFD6" fill-opacity="0.36"/>
<path d="M1226.9 565.743L1224.01 566.735L1224.9 569.33L1227.79 568.339L1226.9 565.743Z" fill="#E4DFD6" fill-opacity="0.36"/>
<path d="M1227.56 575.197C1228.3 577.437 1230.11 576.809 1229.31 574.593L1232.18 573.592L1233.35 577.401C1233.19 577.981 1226.45 580.227 1226 579.859L1224.68 576.167L1227.56 575.196L1227.56 575.197Z" fill="#E4DFD6" fill-opacity="0.36"/>
</g>
<path d="M998.764 112.128C999.682 113.617 998.065 114.358 997.326 115.591C995.29 118.981 995.646 122.568 999.465 124.373C1002.31 125.716 1008.74 125.623 1011.78 124.812C1015.72 123.759 1023.83 120.316 1022.74 115.132C1021.05 107.077 1010.83 107.99 1004.79 109.92L1004.46 109.018C1012.33 105.846 1026.3 107.161 1026.11 118.202C1025.91 129.106 1010.32 132.842 1001.65 130.983C991.063 128.715 990.851 117.739 998.761 112.129L998.764 112.128Z" fill="#E4DFD6" fill-opacity="0.36"/>
<path d="M999.015 131.538C984.174 141.508 970.288 123.173 979.783 109.693C988.408 97.4487 1005.96 102.684 1005.9 117.828C1005.89 118.842 1005.17 124.377 1004.15 124.529C1002.8 124.73 1004.29 121.703 1004.38 121.134C1006.7 107.754 992.545 101.072 984.661 112.212C979.125 120.032 983.463 134.169 993.95 131.937C995.75 131.552 997.472 130.014 999.015 131.538Z" fill="#E4DFD6" fill-opacity="0.36"/>
<path d="M1021.73 116.042L1018.48 114.164C1014.63 112.97 1010.62 113.511 1006.8 114.508L1005.43 110.714C1011.07 108.649 1020.7 108.304 1021.73 116.042Z" fill="#E4DFD6" fill-opacity="0.36"/>
<path d="M997.746 108.394C1003.8 110.988 1004.94 118.618 1002.3 124.118L998.846 122.582C1000.9 117.988 1000.91 112.5 997.746 108.394Z" fill="#E4DFD6" fill-opacity="0.36"/>
<path d="M994.833 128.69L996.433 130.087C994.495 131.06 992.36 130.978 990.264 130.975L994.833 128.69Z" fill="#E4DFD6" fill-opacity="0.36"/>
<path d="M999.448 117.959L997.777 119.315C997.401 119.571 997.22 119.505 997.193 119.041C997.149 118.308 998.973 114.436 999.341 114.654L999.448 117.959Z" fill="#E4DFD6" fill-opacity="0.36"/>
<path d="M1032.36 73.5455C1032.71 73.567 1032.71 73.8687 1032.79 74.1318C1033.19 75.3851 1033.29 77.6271 1033.61 79.0885C1034.91 85.0494 1037.77 97.1765 1046.25 93.6647C1048.11 94.8585 1052.04 99.0095 1048.85 100.788C1046.87 101.893 1037.98 100.127 1036.15 98.657C1034.17 97.0788 1031.66 88.8323 1030.37 86.0729C1029.68 84.5995 1026.82 80.1157 1026.74 79.0196C1026.54 76.01 1030.14 74.5817 1032.36 73.5455Z" fill="#E4DFD6" fill-opacity="0.36"/>
<path d="M1049.21 101.71C1047.69 103.881 1048.54 106.099 1045.49 106.849C1042.91 107.483 1034.67 107.161 1033.88 104.126C1033.72 103.514 1034.08 97.7479 1034.37 97.588C1035.09 98.028 1035.25 98.7965 1035.98 99.3594C1039.06 101.741 1045.43 101.484 1049.21 101.71Z" fill="#E4DFD6" fill-opacity="0.36"/>
<path d="M1045.25 92.9641C1044.42 94.1927 1042.37 93.7984 1041.2 93.2381C1036.33 90.8972 1034.38 79.0018 1033.38 74.1536C1033.74 73.9678 1034.68 76.0884 1034.83 76.4168C1036.49 79.9789 1039.83 90.0602 1042.88 91.9871C1043.65 92.4735 1044.39 92.7158 1045.25 92.9667L1045.25 92.9641Z" fill="#E4DFD6" fill-opacity="0.36"/>
<path d="M1022.99 101.218L1021.75 100.806L1025.58 88.4694L1026.49 80.38L1029.79 86.5689C1029.38 86.563 1027.99 86.1961 1027.81 86.7351L1022.99 101.219L1022.99 101.218Z" fill="#E4DFD6" fill-opacity="0.36"/>
<path d="M1021.46 157.307L1019.56 156.841L1020.63 152.471L1020.02 153.327C1019.52 152.652 1019.11 151.997 1018.25 151.734C1017.55 151.524 1016.67 151.889 1016.31 151.767C1015.95 151.644 1015.47 151.041 1014.88 150.895C1013.97 150.672 1013.19 151.067 1012.43 151.464L1012.32 150.23L1011.28 154.505C1010.69 154.915 1009.95 154.406 1009.31 154.324L1010.54 149.289C1010.83 148.117 1013.4 146.77 1014.59 147.141C1015.36 147.38 1015.7 148.78 1016.37 149.316L1015.62 149.93L1016.57 151.257L1017.89 150.488L1017.51 149.595C1018.35 149.429 1019.3 148.348 1020.09 148.491C1021.43 148.734 1022.95 151.183 1022.64 152.46L1021.45 157.306L1021.46 157.307Z" fill="#E4DFD6" fill-opacity="0.36"/>
<path d="M1035.27 143.593C1034.86 145.709 1034.31 149.507 1031.37 149.25C1027.56 148.92 1028.5 144.647 1029.42 142.159C1030.17 142.419 1030.77 141.635 1031.4 141.795C1031.84 141.907 1032 142.389 1032.44 142.496C1032.91 142.612 1033.29 142.184 1033.85 142.41C1034.31 142.593 1034.56 143.529 1035.27 143.593ZM1031.36 144.023C1031.57 143.287 1030.57 143.03 1030.1 143.417L1031.36 144.023ZM1034.01 144.676C1034.23 143.939 1033.22 143.682 1032.76 144.069L1034.01 144.676ZM1030.32 144.576C1029.79 144.589 1029.82 145.44 1030.51 145.424C1031.04 145.411 1031 144.56 1030.32 144.576ZM1032.98 145.228C1032.45 145.241 1032.48 146.093 1033.17 146.077C1033.7 146.064 1033.66 145.212 1032.98 145.228ZM1032.07 145.208C1031.17 144.687 1031.02 146.122 1031.51 146.274C1031.8 146.366 1031.91 145.354 1032.07 145.208ZM1032.41 147.102C1031.69 147.239 1030.9 147.047 1030.33 146.591L1030.2 147.064C1030.76 147.695 1031.36 147.817 1032.16 147.661L1032.41 147.102Z" fill="#E4DFD6" fill-opacity="0.36"/>
<path d="M1022.1 140.743C1021.61 143.153 1021.1 146.848 1017.71 145.925C1014.45 145.039 1015.78 141.639 1016.4 139.343C1017.95 140.184 1018.66 138.719 1020.05 138.818C1020.74 139.62 1020.74 140.662 1022.1 140.743ZM1018.26 140.807C1018.47 140.139 1017.71 140.043 1017.26 139.96L1017.12 140.528L1018.26 140.807ZM1021.05 140.89C1020.61 140.752 1019.9 140.486 1019.78 141.179L1020.92 141.458L1021.05 140.89ZM1017.88 141.521L1017.12 141.335L1016.94 142.093L1017.69 142.279L1017.88 141.521ZM1020.54 142.173L1019.78 141.988L1019.6 142.746L1020.35 142.932L1020.54 142.173ZM1018.97 141.991C1017.79 141.766 1018.27 143.623 1018.74 142.812C1018.88 142.575 1018.9 142.255 1018.97 141.991ZM1017.51 143.45L1017.23 143.778C1017.35 144.515 1019.27 144.742 1019.43 144.218C1019.57 143.78 1017.68 143.995 1017.51 143.45L1017.51 143.45Z" fill="#E4DFD6" fill-opacity="0.36"/>
<path d="M1019.18 156.748L1011.59 154.884C1011.88 153.095 1012.45 150.927 1014.75 151.413C1015.76 151.626 1015.82 152.206 1016.17 152.353C1016.35 152.428 1017.08 152.007 1017.79 152.159C1020.2 152.675 1019.81 154.921 1019.18 156.748Z" fill="#E4DFD6" fill-opacity="0.36"/>
<path d="M1023.14 140.596C1022.36 140.456 1021.32 140.188 1020.91 139.436C1020.77 139.168 1020.88 138.678 1020.68 138.572C1019.19 137.779 1018.51 139.259 1017.34 139.16C1016.75 139.11 1016.13 138.825 1015.54 138.731C1016.81 133.368 1024.5 135.252 1023.14 140.595L1023.14 140.596Z" fill="#E4DFD6" fill-opacity="0.36"/>
<path d="M1036.05 143.764C1035.51 143.795 1035.82 143.413 1035.62 143.265C1034.75 142.619 1035.07 142.784 1034.5 142.202C1033.64 141.308 1033.04 142.219 1032.53 142.096C1031.87 141.934 1031.66 140.45 1030.05 141.738L1028.45 141.902C1028.77 139.917 1029.15 139.313 1031.07 138.878C1032.03 138.66 1032.69 138.5 1033.65 138.991C1034.12 139.226 1034.19 139.708 1034.52 139.919C1034.83 140.115 1035.24 140.117 1035.62 140.386C1036.55 141.057 1036.74 142.851 1036.05 143.764Z" fill="#E4DFD6" fill-opacity="0.36"/>
<path d="M1034.94 160.616L1030.95 159.637C1031.57 158.406 1033.81 156.383 1034.21 155.249C1034.4 154.695 1034.16 154.596 1033.63 154.451C1034.18 153.656 1035.06 154.048 1034.48 152.648C1035.42 152.971 1036.23 155.367 1036.03 156.151L1034.94 160.616Z" fill="#E4DFD6" fill-opacity="0.36"/>
<path d="M1022.93 152.935C1023.31 152.023 1024.81 150.477 1025.93 150.551L1025.32 151.475L1025.85 152.54L1025.12 152.551C1024.96 152.66 1024.98 152.819 1024.97 152.985C1024.83 154.26 1025.83 156.944 1025.82 158.379L1021.84 157.4C1022.32 156.063 1022.4 154.203 1022.93 152.934L1022.93 152.935Z" fill="#E4DFD6" fill-opacity="0.36"/>
<path d="M1026.17 132.115C1027.28 132.135 1027.29 132.729 1027.83 133.476C1028.74 132.993 1030.77 132.445 1030.9 134.029C1031.03 135.703 1028.16 136.373 1027.06 137.326C1026.77 136.524 1024.92 134.28 1024.88 133.63C1024.85 132.875 1025.36 132.099 1026.17 132.115Z" fill="#E4DFD6" fill-opacity="0.36"/>
<path d="M1014.49 140.827C1014.63 141.087 1015.19 141.385 1015.22 141.514C1015.29 141.75 1015.02 142.41 1015.03 142.848C1015.05 144.324 1016.37 145.341 1015.22 146.613L1012.88 146.739L1014.14 144.432C1013.16 144.326 1013.35 146.093 1012.36 146.4C1010.82 145.325 1012.88 143.904 1013.39 142.512C1014.13 140.471 1013.55 137.593 1016.1 136.451C1016.02 136.865 1015.65 137.01 1015.47 137.413C1015.3 137.817 1015.33 138.275 1015.11 138.677C1014.77 139.307 1013.78 139.557 1014.49 140.827L1014.49 140.827Z" fill="#E4DFD6" fill-opacity="0.36"/>
<path d="M1022.12 146.389C1021.76 146.282 1021.76 146.206 1021.67 146.584C1021.47 147.381 1021.72 148.182 1021.9 148.953L1019.78 147.732C1019.31 146.216 1020.62 145.998 1021.27 145.112C1021.66 144.575 1021.95 143.432 1022.2 143.184C1022.49 142.897 1023.29 143.242 1023.72 142.199C1024.03 141.462 1023.55 141.209 1023.56 140.589C1023.56 140.08 1023.85 139.34 1023.8 138.745C1025.37 140.908 1023.44 143.234 1023.21 145.332C1023.07 146.593 1024.25 148.929 1022.34 148.775L1022.12 146.392L1022.12 146.389Z" fill="#E4DFD6" fill-opacity="0.36"/>
<path d="M1029.03 159.139L1027.85 158.884L1028.33 152.376C1029 152.098 1029.42 152.614 1029.92 152.739C1030.37 152.849 1031.43 152.545 1031.48 153.252L1029.03 159.139ZM1029.55 153.453C1029.02 153.466 1029.05 154.317 1029.74 154.302C1030.27 154.289 1030.24 153.437 1029.55 153.453ZM1029.61 156.084C1030.14 155.645 1029.08 154.744 1028.78 155.38C1028.57 155.82 1029.32 156.317 1029.61 156.084ZM1028.9 156.922C1028.7 156.873 1027.94 157.516 1028.48 157.82C1029.33 158.292 1029.34 157.031 1028.9 156.922Z" fill="#E4DFD6" fill-opacity="0.36"/>
<path d="M1033.73 154.881L1030.55 159.512L1029.62 159.311C1030.43 157.554 1031.05 155.102 1031.99 153.468C1032.34 152.859 1033.5 152.91 1033.1 151.705C1034.74 152.221 1034.33 153.781 1032.71 154.126L1033.73 154.881Z" fill="#E4DFD6" fill-opacity="0.36"/>
<path d="M1027.59 150.353C1026.68 151.235 1027.72 151.715 1027.76 152.43C1027.86 154.316 1027.24 156.77 1027.15 158.705L1026.24 158.452C1026.36 156.937 1025.32 154.527 1025.5 153.148C1025.58 152.534 1027.13 153.41 1026.84 152.417C1026.79 152.221 1025.83 151.809 1025.95 151.267C1026.08 150.726 1026.99 149.909 1027.59 150.351L1027.59 150.353Z" fill="#E4DFD6" fill-opacity="0.36"/>
<path d="M1019.28 146.497C1018.94 146.918 1019.31 147.767 1019.24 147.998C1019.17 148.254 1018.14 148.949 1017.81 149.005C1016.59 149.205 1015.96 148.389 1015.59 147.345L1016.24 145.752C1017.16 146.278 1018.21 146.537 1019.28 146.497Z" fill="#E4DFD6" fill-opacity="0.36"/>
<path d="M1032.38 149.713C1032.21 150.355 1032.33 150.837 1031.58 150.95C1030.94 151.047 1030.89 150.565 1030.48 150.465C1030.18 150.39 1029.89 150.644 1029.54 150.532C1028.68 150.255 1028.94 149.603 1029.15 148.919C1030.19 149.449 1031.21 149.7 1032.38 149.711L1032.38 149.713Z" fill="#E4DFD6" fill-opacity="0.36"/>
<path d="M1021.55 135.573L1019.28 135.014C1019.64 132.963 1022.18 133.582 1021.55 135.573Z" fill="#E4DFD6" fill-opacity="0.36"/>
<path d="M1032.42 152.72C1032.11 153.026 1030.41 152.395 1031.43 151.482C1032.03 150.942 1033.15 152.01 1032.42 152.72Z" fill="#E4DFD6" fill-opacity="0.36"/>
<path d="M1029.01 151.886C1028.43 152.288 1027.24 151.294 1028.01 150.641C1028.78 149.988 1029.7 151.406 1029.01 151.886Z" fill="#E4DFD6" fill-opacity="0.36"/>
<path d="M1029.99 150.964C1031.4 150.855 1030.99 152.528 1030.04 152.288C1029.35 152.115 1029.33 151.017 1029.99 150.964Z" fill="#E4DFD6" fill-opacity="0.36"/>
<path d="M1028.51 144.131C1027.43 143.93 1027.51 142.423 1028.65 142.357C1029.05 142.889 1028.59 143.555 1028.51 144.131Z" fill="#E4DFD6" fill-opacity="0.36"/>
<path d="M1035.16 145.763C1035.35 145.212 1035.26 144.413 1035.86 144.128C1036.84 144.715 1036.21 146.086 1035.16 145.763Z" fill="#E4DFD6" fill-opacity="0.36"/>
<path d="M1015.83 139.205C1015.68 139.401 1015.62 141.186 1015.13 140.844C1014.52 140.414 1014.78 138.779 1015.83 139.205Z" fill="#E4DFD6" fill-opacity="0.36"/>
<path d="M1022.25 142.593C1022.4 142.397 1022.46 140.61 1022.95 140.954C1023.61 141.422 1023.18 142.834 1022.25 142.593Z" fill="#E4DFD6" fill-opacity="0.36"/>
<path d="M1016.8 149.734C1017.44 150.125 1017.44 150.475 1016.71 150.684C1016.07 150.293 1016.08 149.943 1016.8 149.734Z" fill="#E4DFD6" fill-opacity="0.36"/>
<path d="M-6.23594 568.818C-5.31793 570.308 -6.93504 571.049 -7.6744 572.282C-9.7098 575.671 -9.35392 579.259 -5.53539 581.063C-2.69002 582.407 3.74434 582.313 6.77874 581.502C10.7185 580.45 18.8253 577.007 17.7368 571.823C16.0483 563.768 5.82727 564.68 -0.210425 566.611L-0.540069 565.708C7.33112 562.537 21.3045 563.852 21.1058 574.893C20.9106 585.797 5.31994 589.532 -3.34858 587.674C-13.9371 585.405 -14.1493 574.429 -6.23908 568.82L-6.23594 568.818Z" fill="#FDF3DC"/>
<path d="M-5.98497 588.229C-20.8263 598.199 -34.7123 579.863 -25.2169 566.384C-16.5921 554.139 0.96104 559.374 0.897004 574.518C0.893276 575.532 0.172575 581.068 -0.84757 581.22C-2.19548 581.421 -0.711685 578.393 -0.616889 577.824C1.69813 564.444 -12.4546 557.762 -20.3396 568.902C-25.8749 576.723 -21.5375 590.859 -11.0506 588.627C-9.24965 588.243 -7.52842 586.704 -5.98497 588.229Z" fill="#FDF3DC"/>
<path d="M16.7298 572.733L13.4753 570.854C9.6341 569.661 5.62144 570.202 1.79647 571.198L0.424986 567.405C6.07145 565.339 15.6949 564.995 16.7298 572.733Z" fill="#FDF3DC"/>
<path d="M-7.25443 565.085C-1.19913 567.678 -0.0647457 575.308 -2.70426 580.808L-6.15419 579.272C-4.10252 574.679 -4.09488 569.19 -7.25443 565.085Z" fill="#FDF3DC"/>
<path d="M27.3576 530.236C27.7141 530.257 27.7082 530.559 27.7924 530.822C28.1913 532.076 28.2897 534.318 28.6078 535.779C29.9079 541.74 32.7718 553.867 41.2477 550.355C43.1094 551.549 47.0419 555.7 43.8502 557.478C41.8705 558.583 32.9838 556.817 31.1452 555.347C29.1709 553.769 26.6617 545.523 25.3726 542.763C24.6834 541.29 21.8151 536.806 21.7418 535.71C21.541 532.7 25.1374 531.272 27.3576 530.236Z" fill="#FDF3DC"/>
<path d="M44.2088 558.401C42.693 560.572 43.5352 562.789 40.4909 563.539C37.9148 564.173 29.6697 563.851 28.8764 560.816C28.7165 560.204 29.084 554.438 29.3692 554.278C30.0874 554.718 30.2525 555.487 30.9785 556.05C34.0568 558.432 40.4273 558.174 44.2088 558.401Z" fill="#FDF3DC"/>
<path d="M40.2516 549.654C39.4159 550.883 37.3654 550.489 36.2004 549.928C31.3276 547.588 29.3808 535.692 28.3749 530.844C28.7374 530.658 29.675 532.779 29.8262 533.107C31.4864 536.669 34.8332 546.751 37.8796 548.677C38.6511 549.164 39.3865 549.406 40.2507 549.657L40.2516 549.654Z" fill="#FDF3DC"/>
<path d="M17.9904 557.909L16.7533 557.496L20.5825 545.16L21.4918 537.07L24.7915 543.259C24.3783 543.253 22.9943 542.887 22.8149 543.426L17.9929 557.91L17.9904 557.909Z" fill="#FDF3DC"/>
<path d="M16.459 613.997L14.5601 613.531L15.6313 609.161L15.0167 610.017C14.5237 609.342 14.1118 608.687 13.2452 608.424C12.5523 608.214 11.6722 608.579 11.3101 608.457C10.9479 608.334 10.473 607.731 9.87766 607.585C8.96977 607.362 8.19355 607.757 7.42524 608.154L7.32294 606.92L6.27502 611.196C5.69447 611.605 4.9488 611.097 4.3063 611.014L5.54053 605.979C5.82774 604.807 8.40166 603.46 9.58979 603.831C10.3575 604.07 10.7021 605.471 11.3698 606.006L10.6173 606.621L11.5691 607.948L12.89 607.179L12.5071 606.285C13.3466 606.12 14.2996 605.038 15.0905 605.182C16.4297 605.424 17.9536 607.874 17.6407 609.15L16.453 613.996L16.459 613.997Z" fill="#FDF3DC"/>
<path d="M30.2652 600.284C29.8558 602.399 29.3066 606.197 26.3728 605.941C22.564 605.61 23.5022 601.337 24.4223 598.85C25.1659 599.11 25.7734 598.325 26.4009 598.485C26.8391 598.597 27.0017 599.08 27.4369 599.187C27.9077 599.302 28.2935 598.874 28.8547 599.1C29.3109 599.284 29.5576 600.219 30.2652 600.284ZM26.356 600.713C26.5701 599.977 25.5657 599.72 25.0997 600.107L26.356 600.713ZM29.0144 601.366C29.2285 600.629 28.2241 600.372 27.7581 600.76L29.0144 601.366ZM25.3167 601.266C24.7873 601.279 24.8197 602.131 25.5072 602.115C26.0367 602.102 26.0042 601.25 25.3167 601.266ZM27.9751 601.919C27.4456 601.932 27.4781 602.783 28.1656 602.767C28.6951 602.754 28.6626 601.903 27.9751 601.919ZM27.0721 601.899C26.1703 601.377 26.024 602.812 26.5088 602.965C26.7967 603.056 26.9147 602.045 27.0721 601.899ZM27.411 603.793C26.6874 603.93 25.9041 603.738 25.3262 603.281L25.2038 603.755C25.7643 604.385 26.3571 604.508 27.1566 604.351L27.411 603.793Z" fill="#FDF3DC"/>
<path d="M17.0967 597.433C16.6066 599.844 16.0994 603.538 12.7063 602.615C9.4487 601.73 10.7791 598.329 11.4007 596.033C12.9475 596.874 13.6567 595.41 15.0501 595.508C15.7447 596.31 15.7429 597.353 17.0967 597.433ZM13.256 597.498C13.4724 596.829 12.7137 596.733 12.2579 596.651L12.1187 597.219L13.256 597.498ZM16.0542 597.58C15.612 597.442 14.895 597.176 14.7776 597.869L15.9149 598.148L16.0542 597.58ZM12.8799 598.211L12.1223 598.025L11.9365 598.783L12.694 598.969L12.8799 598.211ZM15.5383 598.864L14.7807 598.678L14.5949 599.436L15.3524 599.622L15.5383 598.864ZM13.9726 598.681C12.7906 598.456 13.2705 600.313 13.7441 599.502C13.8818 599.265 13.8952 598.945 13.9726 598.681ZM12.5056 600.14L12.226 600.468C12.3493 601.206 14.2649 601.432 14.431 600.909C14.5698 600.471 12.6844 600.686 12.5076 600.141L12.5056 600.14Z" fill="#FDF3DC"/>
<path d="M14.1805 613.438L6.58701 611.574C6.88086 609.785 7.45211 607.617 9.75067 608.103C10.7553 608.316 10.8187 608.896 11.1685 609.043C11.3452 609.118 12.0838 608.697 12.7888 608.849C15.1996 609.365 14.8105 611.612 14.1805 613.438Z" fill="#FDF3DC"/>
<path d="M18.1393 597.286C17.3622 597.146 16.3163 596.879 15.9113 596.127C15.7674 595.859 15.8833 595.369 15.6827 595.263C14.187 594.47 13.5139 595.95 12.3388 595.85C11.7533 595.801 11.1311 595.516 10.5419 595.422C11.8082 590.058 19.4951 591.943 18.1373 597.286L18.1393 597.286Z" fill="#FDF3DC"/>
<path d="M31.0475 600.455C30.5072 600.486 30.8232 600.104 30.6225 599.956C29.7512 599.31 30.0651 599.475 29.5034 598.892C28.6404 597.998 28.0438 598.91 27.533 598.786C26.8743 598.625 26.6593 597.141 25.0498 598.429L23.4536 598.593C23.7683 596.607 24.1469 596.004 26.0675 595.568C27.0267 595.351 27.6889 595.19 28.6548 595.681C29.1172 595.916 29.192 596.398 29.5219 596.609C29.826 596.806 30.2449 596.808 30.6195 597.076C31.5497 597.747 31.7389 599.542 31.0475 600.455Z" fill="#FDF3DC"/>
<path d="M29.9389 617.306L25.9514 616.328C26.5697 615.096 28.8082 613.073 29.2077 611.939C29.4024 611.385 29.1559 611.287 28.6317 611.141C29.1809 610.346 30.0579 610.738 29.4762 609.338C30.4246 609.661 31.2256 612.057 31.0334 612.841L29.9389 617.306Z" fill="#FDF3DC"/>
<path d="M17.9333 609.625C18.312 608.713 19.8127 607.168 20.9333 607.241L20.321 608.165L20.8483 609.231L20.1242 609.242C19.9592 609.35 19.9832 609.509 19.9656 609.675C19.8335 610.95 20.8259 613.634 20.8244 615.069L16.8368 614.09C17.3238 612.753 17.4045 610.893 17.9313 609.625L17.9333 609.625Z" fill="#FDF3DC"/>
<path d="M21.1681 588.805C22.2786 588.826 22.2862 589.42 22.8309 590.166C23.7376 589.683 25.7717 589.136 25.8993 590.72C26.0342 592.394 23.1609 593.063 22.0611 594.017C21.7691 593.215 19.9181 590.97 19.8846 590.32C19.8452 589.565 20.3624 588.79 21.1681 588.805Z" fill="#FDF3DC"/>
<path d="M9.4891 597.518C9.63301 597.778 10.189 598.076 10.2247 598.204C10.2924 598.441 10.0197 599.1 10.0256 599.538C10.0495 601.015 11.3709 602.032 10.2246 603.303L7.87646 603.43L9.14454 601.122C8.15765 601.016 8.3537 602.783 7.35778 603.091C5.81581 602.015 7.88163 600.594 8.38619 599.203C9.12545 597.162 8.54559 594.283 11.1007 593.141C11.0161 593.555 10.6492 593.7 10.4727 594.104C10.2962 594.507 10.3264 594.966 10.1064 595.367C9.76537 595.997 8.78352 596.247 9.48712 597.517L9.4891 597.518Z" fill="#FDF3DC"/>
<path d="M17.1196 603.08C16.7581 602.972 16.7577 602.896 16.6651 603.274C16.4656 604.071 16.7221 604.873 16.8959 605.644L14.7774 604.423C14.3122 602.907 15.6197 602.688 16.2668 601.802C16.6606 601.265 16.9534 600.122 17.2007 599.874C17.4849 599.587 18.2852 599.933 18.7192 598.889C19.0256 598.152 18.5508 597.899 18.556 597.279C18.5611 596.771 18.8537 596.031 18.7982 595.436C20.3672 597.598 18.4383 599.924 18.2071 602.022C18.0679 603.283 19.2525 605.62 17.3402 605.465L17.1211 603.082L17.1196 603.08Z" fill="#FDF3DC"/>
<path d="M24.0331 615.829L22.8479 615.574L23.3317 609.066C23.9973 608.789 24.416 609.305 24.9243 609.43C25.3733 609.54 26.4251 609.236 26.4846 609.943L24.0331 615.829ZM24.5501 610.144C24.0207 610.156 24.0531 611.008 24.7406 610.992C25.2701 610.979 25.2377 610.128 24.5501 610.144ZM24.6078 612.774C25.1432 612.335 24.0807 611.434 23.7758 612.071C23.5654 612.51 24.3243 613.007 24.6078 612.774ZM23.8992 613.612C23.6994 613.563 22.9357 614.206 23.4799 614.51C24.3286 614.983 24.3378 613.722 23.8992 613.612Z" fill="#FDF3DC"/>
<path d="M28.7275 611.572L25.5522 616.202L24.6222 616.001C25.4343 614.245 26.0458 611.793 26.9874 610.158C27.3379 609.55 28.5038 609.601 28.0969 608.395C29.7381 608.911 29.3306 610.471 27.709 610.816L28.7275 611.572Z" fill="#FDF3DC"/>
<path d="M22.5902 607.043C21.6799 607.926 22.7198 608.406 22.7585 609.12C22.8603 611.007 22.2399 613.461 22.1537 615.395L21.2363 615.143C21.356 613.628 20.3174 611.218 20.5024 609.838C20.5836 609.224 22.1346 610.1 21.8432 609.107C21.7865 608.911 20.8348 608.499 20.9549 607.958C21.075 607.416 21.9861 606.599 22.5907 607.041L22.5902 607.043Z" fill="#FDF3DC"/>
<path d="M14.277 603.188C13.939 603.608 14.3118 604.457 14.2427 604.688C14.1673 604.945 13.1414 605.639 12.8068 605.696C11.594 605.895 10.9636 605.079 10.5904 604.035L11.2408 602.443C12.1604 602.968 13.2147 603.227 14.277 603.188Z" fill="#FDF3DC"/>
<path d="M27.3771 606.403C27.2051 607.045 27.3302 607.527 26.5789 607.641C25.9387 607.737 25.8892 607.255 25.4837 607.156C25.1791 607.081 24.8863 607.334 24.5425 607.222C23.6793 606.946 23.9377 606.293 24.1535 605.61C25.1917 606.14 26.2143 606.391 27.3796 606.402L27.3771 606.403Z" fill="#FDF3DC"/>
<path d="M16.552 592.263L14.2754 591.705C14.6377 589.653 17.1784 590.273 16.552 592.263Z" fill="#FDF3DC"/>
<path d="M27.4222 609.411C27.1103 609.716 25.4133 609.086 26.4297 608.173C27.0319 607.632 28.1456 608.701 27.4222 609.411Z" fill="#FDF3DC"/>
<path d="M24.0052 608.577C23.4266 608.978 22.2421 607.984 23.0103 607.331C23.7784 606.678 24.6976 608.096 24.0052 608.577Z" fill="#FDF3DC"/>
<path d="M24.9862 607.655C26.4033 607.545 25.9889 609.219 25.035 608.978C24.3497 608.806 24.3275 607.707 24.9862 607.655Z" fill="#FDF3DC"/>
<path d="M23.5113 600.821C22.4282 600.62 22.506 599.114 23.6462 599.047C24.0462 599.58 23.5937 600.245 23.5113 600.821Z" fill="#FDF3DC"/>
<path d="M30.1594 602.453C30.3531 601.902 30.2596 601.103 30.86 600.818C31.8401 601.405 31.2125 602.776 30.1594 602.453Z" fill="#FDF3DC"/>
<path d="M10.8303 595.895C10.6815 596.092 10.6174 597.876 10.1308 597.534C9.52327 597.104 9.77928 595.469 10.8303 595.895Z" fill="#FDF3DC"/>
<path d="M17.2492 599.284C17.398 599.087 17.4627 597.301 17.9487 597.645C18.6078 598.113 18.1799 599.525 17.2492 599.284Z" fill="#FDF3DC"/>
<path d="M11.802 606.424C12.4444 606.815 12.4361 607.166 11.7139 607.374C11.0715 606.984 11.0798 606.633 11.802 606.424Z" fill="#FDF3DC"/>
<path d="M6.95772 187.598L2.58678 184.658C2.46564 183.923 2.39283 182.012 2.68192 181.385C3.70371 179.172 6.12333 176.701 7.34608 174.495L14.9348 172.615L15.1677 172.375L14.2648 170.14L16.5741 170.857L19.6583 166.913C20.408 167.999 21.3219 169.116 21.4772 170.48C21.3826 170.69 19.7405 170.765 19.2978 170.921C18.9161 171.055 17.6286 171.73 17.4575 171.985L6.95722 187.602L6.95772 187.598ZM8.71 175.314C7.75896 175.014 6.62408 176.533 7.4905 177.433C9.156 179.165 11.0758 176.056 8.71 175.314ZM5.25517 179.737C5.51097 181.442 8.31765 181.064 7.79445 179.179C7.35123 177.581 5.01062 178.115 5.25517 179.737ZM5.94246 182.133C5.62168 180.487 2.96564 181.007 3.28786 182.654C3.61009 184.3 6.27697 183.849 5.94246 182.133Z" fill="#E4DFD6" fill-opacity="0.36"/>
<path d="M5.01633 163.814C5.26338 163.306 5.38984 162.047 5.35748 161.459C5.31431 160.68 4.94799 160.117 4.98724 159.387C5.46081 158.895 8.27875 159.537 8.97466 159.725L6.48354 164.07L8.02044 165.94L5.61625 165.957L5.41544 166.265L6.59723 173.991L1.97546 180.912C1.42306 181.187 -0.671317 182.466 -1.15842 182.139L-5.3906 179.292L5.01633 163.814ZM2.27104 177.188L-1.33672 174.761L-3.62344 178.162C-3.65067 178.203 -3.698 179.019 -3.66659 179.135C-3.52804 179.631 -1.74939 180.87 -1.25625 181.023C-1.10522 181.07 -0.231522 180.91 -0.202354 180.867L2.27104 177.188Z" fill="#E4DFD6" fill-opacity="0.36"/>
<path d="M17.965 172.725C18.7596 171.84 20.1939 171.505 21.3333 171.465C21.6526 171.615 21.4743 171.615 21.4271 171.803C21.3888 171.96 21.1487 172.786 21.1185 172.831L14.2583 183.033L12.0382 181.54L17.965 172.725Z" fill="#E4DFD6" fill-opacity="0.36"/>
<path d="M-1.69753 172.301L-3.91768 170.808L3.03582 160.466C3.09513 160.378 3.96399 159.635 4.12575 159.891C4.28751 160.147 4.54133 161.63 4.52006 161.983C4.50806 162.198 4.28179 163.408 4.22929 163.486L-1.69753 172.301Z" fill="#E4DFD6" fill-opacity="0.36"/>
<path d="M9.50974 165.526C10.1449 164.173 10.1497 161.606 10.7833 160.385C10.8816 160.195 11.0661 159.977 11.2707 160.06C11.5552 160.174 12.1701 164.317 12.3149 164.922C12.2033 165.173 9.93746 165.493 9.50732 165.527L9.50974 165.526Z" fill="#E4DFD6" fill-opacity="0.36"/>
<path d="M14.0844 168.603C13.9537 168.192 13.3942 165.974 13.5849 165.775L18.4813 164.908L18.361 165.486L14.0839 168.601L14.0844 168.603Z" fill="#E4DFD6" fill-opacity="0.36"/>
<path d="M17.1675 164.024L13.2932 164.841L12.5884 160.944L17.1675 164.024Z" fill="#E4DFD6" fill-opacity="0.36"/>
<path d="M7.94568 172.941C7.68915 170.828 9.22719 169.727 10.7721 168.591C10.368 170.509 9.75225 171.981 7.94568 172.941Z" fill="#E4DFD6" fill-opacity="0.36"/>
<path d="M8.34129 166.958L7.16338 171.407C7.08833 170.626 6.30328 167.685 6.4316 167.148C6.54468 166.673 8.30354 166.855 8.33984 166.957L8.34129 166.958Z" fill="#E4DFD6" fill-opacity="0.36"/>
<path d="M16.256 169.835L14.797 169.467C14.5486 169.371 14.5656 169.336 14.7341 169.145C15.2302 168.582 17.7679 166.887 18.5366 166.402C18.7255 166.284 18.8821 166.038 19.1517 166.165L16.256 169.835Z" fill="#E4DFD6" fill-opacity="0.36"/>
<path d="M8.62785 165.336L7.55991 163.977L9.8576 159.914L8.62785 165.336Z" fill="#E4DFD6" fill-opacity="0.36"/>
<path d="M13.6984 183.866L11.4782 182.373L10.5448 183.761L12.765 185.254L13.6984 183.866Z" fill="#E4DFD6" fill-opacity="0.36"/>
<path d="M12.7854 166.814C12.8286 166.996 12.8588 167.17 12.9287 167.347L12.7452 167.551C11.2595 168.368 10.7536 167.919 11.0367 166.28L12.5387 165.963C12.5766 166.26 12.7185 166.529 12.7845 166.815L12.7854 166.814Z" fill="#E4DFD6" fill-opacity="0.36"/>
<path d="M10.973 170.543C11.6244 169.458 11.2253 168.778 12.6782 168.512C12.832 168.483 12.9522 168.258 13.1818 168.603C13.5596 169.174 11.4964 170.504 10.9745 170.544L10.973 170.543Z" fill="#E4DFD6" fill-opacity="0.36"/>
<path d="M10.1956 166.595C10.2843 167.939 9.84883 168.094 8.98364 169.003C8.63303 168.847 8.77318 168.838 8.7939 168.617C8.85557 167.957 9.23485 165.963 10.1966 166.593L10.1956 166.595Z" fill="#E4DFD6" fill-opacity="0.36"/>
<path d="M6.48411 179.014C7.08992 178.909 7.22547 180.25 6.36241 179.938C5.96393 179.794 6.34583 179.039 6.48411 179.014Z" fill="#E4DFD6" fill-opacity="0.36"/>
<path d="M4.5241 181.929C4.66241 181.898 5.30077 182.454 4.98504 182.739C4.30317 183.354 3.92394 182.063 4.5241 181.929Z" fill="#E4DFD6" fill-opacity="0.36"/>
<path d="M8.97364 176.476C8.69189 177.666 7.66612 176.978 8.44325 176.1L8.97364 176.476Z" fill="#E4DFD6" fill-opacity="0.36"/>
<path d="M0.177168 178.804L-0.938787 180.182L-2.76001 178.957L-1.90424 177.404L0.177168 178.804Z" fill="#E4DFD6" fill-opacity="0.36"/>
<path d="M1.11053 177.416L0.670614 177.939C0.288769 178.091 -0.990543 176.91 -1.4376 176.71L-0.96991 176.014L1.1115 177.414L1.11053 177.416Z" fill="#E4DFD6" fill-opacity="0.36"/>
<path d="M14.0704 171.806C14.0774 172.232 9.99713 172.959 9.39849 173.081L13.3076 170.268L14.0719 171.806L14.0704 171.806Z" fill="#E4DFD6" fill-opacity="0.36"/>
<path d="M40.8545 116.442C40.1256 126.57 40.3824 137.293 36.1278 146.821C34.9219 149.521 34.3013 149.528 31.61 149.487C25.8735 149.395 18.2423 146.296 13.4754 143.191C11.9414 142.192 5.99679 136.823 5.58754 135.309C4.95689 132.956 11.6261 124.744 13.4974 122.682C17.7041 118.058 23.0491 114.309 27.8972 110.4L28.3966 110.298C29.4393 112.524 31.338 111.874 32.6359 112.471C34.4486 113.301 36.6036 115.304 37.9869 115.988C38.9787 116.481 39.9024 116.029 40.8445 116.442L40.8545 116.442Z" fill="#E4DFD6" fill-opacity="0.36"/>
<path d="M53.8611 105.766L46.5621 113.488C44.1297 113.287 42.5567 110.641 41.0742 109.817C39.8043 109.115 36.6522 108.662 35.0566 107.657C34.4326 107.264 34.2392 106.331 33.0705 105.804C31.4883 105.089 28.8461 105.456 26.9751 103.77L28.6755 93.1235C28.154 92.1399 25.6934 94.5538 24.2078 93.2006C23.6516 92.6925 22.4211 88.6298 22.916 87.6735C23.3627 86.9618 29.6619 84.8122 30.7941 84.6287C37.6644 83.5225 39.958 89.4629 45.2988 91.9299C49.8008 94.0056 56.418 93.2154 59.2221 98.4164C59.7198 99.3383 62.0054 106.544 61.7856 107.131C61.2722 108.491 57.7632 109.751 56.4609 109.391C54.411 108.825 55.3853 106.696 53.8611 105.766ZM51.3933 94.4914C48.2814 93.8403 45.4339 93.2273 42.6898 91.4963C41.2789 90.6089 40.1676 89.0653 38.9853 88.2677C38.435 87.8969 38.3494 87.9087 38.1295 88.555C37.328 90.9156 40.427 95.7669 41.8142 97.7327C44.9937 97.2379 49.846 97.9512 51.3953 94.4974L51.3933 94.4914Z" fill="#E4DFD6" fill-opacity="0.36"/>
<path d="M27.6919 109.362C20.6859 115.508 12.5489 121.141 7.3501 129.08C6.64615 130.155 6.26605 131.468 5.60006 132.448C5.26308 132.941 5.47547 133.212 4.75422 132.725C3.75017 131.235 3.23897 130.023 3.87844 128.243C5.58501 123.494 11.8747 117.447 15.7788 114.199C16.9999 113.184 23.2637 108.378 24.2567 108.105C25.4209 107.789 26.6105 108.938 27.6919 109.362Z" fill="#E4DFD6" fill-opacity="0.36"/>
<path d="M44.7747 118.011C45.1178 118.577 44.7851 129.75 44.6454 131.258C44.2 135.953 42.9998 143.64 40.1352 147.374C39.4156 148.312 37.8083 148.352 36.793 148.808C35.8546 148.536 36.448 148.167 36.6976 147.58C40.8852 137.66 41.1008 127.602 41.526 117.018C41.6652 115.858 44.6715 117.84 44.7786 118.013L44.7747 118.011Z" fill="#E4DFD6" fill-opacity="0.36"/>
<path d="M32.2495 111.575C26.3464 111.12 30.0334 103.278 34.0361 107.737L32.2495 111.575Z" fill="#E4DFD6" fill-opacity="0.36"/>
<path d="M39.5581 110.121C44.5513 111.089 40.6455 117.781 37.6865 114.802C37.0332 114.14 38.7329 109.96 39.5581 110.121Z" fill="#E4DFD6" fill-opacity="0.36"/>
<path d="M35.5485 108.591C36.2028 108.685 37.9419 109.533 38.0402 110.22L36.1969 113.417L33.383 111.765C33.5736 110.781 34.3951 108.42 35.5485 108.591Z" fill="#E4DFD6" fill-opacity="0.36"/>
<path d="M46.3211 114.95L44.9752 116.868L41.8147 115.49L43.1559 112.818L46.3211 114.95Z" fill="#E4DFD6" fill-opacity="0.36"/>
<path d="M29.4222 105.924L28.0791 108.6L24.9853 106.604C24.8593 105.824 25.6066 104.969 26.3488 104.819L29.4222 105.924Z" fill="#E4DFD6" fill-opacity="0.36"/>
<path d="M47.1241 133.449L45.7826 139.939C44.6335 139.591 45.2484 139.397 45.3431 138.673C45.5567 136.998 46.1662 135.328 46.175 133.605L47.1281 133.451L47.1241 133.449Z" fill="#E4DFD6" fill-opacity="0.36"/>
<path d="M47.1311 131.541L46.5666 131.257C46.168 130.554 46.312 130.099 46.7586 129.447L47.4145 130.976L47.1311 131.541Z" fill="#E4DFD6" fill-opacity="0.36"/>
<path d="M29.4641 83.0051L30.0607 81.9256L31.3673 82.0488C31.4778 82.6021 30.0228 83.1412 29.4641 83.0051Z" fill="#E4DFD6" fill-opacity="0.36"/>
<path fill-rule="evenodd" clip-rule="evenodd" d="M34.7715 82.9072C34.5516 82.5809 34.4607 82.2746 34.4432 82.0802C34.4436 82.0799 34.444 82.0795 34.4444 82.0792C33.5073 81.9248 32.7529 82.0292 32.514 82.6295C33.331 82.5331 34.0714 82.6634 34.7715 82.9072Z" fill="#E4DFD6" fill-opacity="0.36"/>
</g>
<defs>
<clipPath id="clip0_7_277">
<rect width="1440" height="665" fill="white"/>
</clipPath>
<clipPath id="clip1_7_277">
<rect width="71" height="104.185" fill="white" transform="translate(1210 489)"/>
</clipPath>
</defs>
</svg>
