<svg width="18" height="20" viewBox="0 0 18 20" fill="none" xmlns="http://www.w3.org/2000/svg">
<path d="M15.0341 10.6245C15.009 8.14371 17.3227 6.93681 17.4285 6.88062C16.1181 5.18496 14.0871 4.95328 13.3734 4.93481C11.6676 4.77548 10.0129 5.84075 9.144 5.84075C8.25771 5.84075 6.91959 4.9502 5.47741 4.97637C3.62157 5.00177 1.88541 5.95544 0.933206 7.43635C-1.0319 10.4559 0.433691 14.8932 2.31641 17.334C3.25821 18.5293 4.35871 19.864 5.79915 19.817C7.20837 19.7655 7.73477 19.0196 9.43538 19.0196C11.1204 19.0196 11.6147 19.817 13.0838 19.787C14.5962 19.7655 15.5484 18.5863 16.4572 17.3802C17.5456 16.0101 17.9827 14.6608 18 14.5915C17.9644 14.5807 15.0627 13.5978 15.0341 10.6245Z" fill="#32302A"/>
<path d="M12.259 3.32921C13.017 2.48792 13.5356 1.34337 13.3916 0.181885C12.2946 0.224988 10.9227 0.855376 10.1326 1.67819C9.43365 2.40325 8.80925 3.59168 8.97056 4.70929C10.2029 4.79088 11.4681 4.15741 12.259 3.32921Z" fill="#32302A"/>
</svg>
