<svg width="252" height="210" viewBox="0 0 252 210" fill="none" xmlns="http://www.w3.org/2000/svg">
<path opacity="0.5" d="M224.803 206.134C230.284 211.289 20.6112 211.289 26.0945 206.133C20.613 200.978 230.286 200.978 224.803 206.134Z" fill="#C5C5C4"/>
<g opacity="0.3">
<path opacity="0.8" d="M216.828 102.168C214.777 238.403 36.1359 238.381 34.1025 102.164C36.1534 -34.0663 214.795 -34.0447 216.828 102.168Z" fill="#ED7E4A" fill-opacity="0.31"/>
<path opacity="0.6" d="M107.51 144.916C106.308 224.737 1.63955 224.725 0.447998 144.913C1.6496 65.0938 106.318 65.1064 107.51 144.916Z" fill="#FFB713" fill-opacity="0.27"/>
<path opacity="0.6" d="M143.386 144.916C144.588 224.737 249.256 224.725 250.448 144.913C249.246 65.0938 144.578 65.1065 143.386 144.916Z" fill="#FFB713" fill-opacity="0.27"/>
<path opacity="0.5" d="M177.096 83.0911C177.92 137.78 249.632 137.771 250.448 83.0894C249.625 28.4023 177.913 28.4109 177.096 83.0911Z" fill="#FFB713" fill-opacity="0.27"/>
<path opacity="0.5" d="M73.7996 83.0912C72.9762 137.78 1.26422 137.771 0.447998 83.0894C1.27121 28.4023 72.9832 28.411 73.7996 83.0912Z" fill="#FFB713" fill-opacity="0.27"/>
</g>
<g opacity="0.5">
<path d="M52.8014 159.343H28.7943C27.618 159.343 26.6643 160.345 26.6643 161.58V203.672C26.6643 204.908 27.618 205.909 28.7943 205.909H52.8012C53.9774 205.909 54.9311 204.908 54.9311 203.672V161.58C54.9311 160.344 53.9776 159.343 52.8014 159.343Z" fill="#D2A8BA"/>
<path d="M71.5671 176.269H56.2867C55.538 176.269 54.9309 176.907 54.9309 177.693V204.485C54.9309 205.271 55.5378 205.909 56.2867 205.909H71.5671C72.3158 205.909 72.9229 205.272 72.9229 204.485V177.693C72.9229 176.907 72.3158 176.269 71.5671 176.269Z" fill="#D2A8BA"/>
<path d="M69.0521 164.03C54.8054 164.567 58.616 160.583 58.1 175.533C58.1 175.94 58.414 176.269 58.8012 176.269H69.0521C69.4393 176.269 69.7534 175.94 69.7534 175.533V164.766C69.7534 164.359 69.4393 164.03 69.0521 164.03Z" fill="#D2A8BA"/>
</g>
<g opacity="0.8">
<path opacity="0.8" d="M234.631 192.564C229.629 190.419 223.154 188.989 220.52 183.193C219.455 180.659 220.146 177.993 219.498 175.414C218.929 173.148 218.144 170.962 217.112 168.882C216.044 166.732 214.479 164.126 218.081 165.128C239.489 169.776 223.753 176.098 233.788 178.582C236.105 179.986 232.792 186.846 235.254 190.862C237.717 194.876 234.633 192.565 234.631 192.564Z" fill="#D2A8BA"/>
<path d="M232.617 187.759C221.41 183.141 228.637 174.532 222.498 169.536C222.907 169.723 223.294 169.984 223.616 170.31C228.297 176.833 222.77 182.834 232.617 187.759Z" fill="white"/>
<path opacity="0.8" d="M232.022 194.355C236.355 193.556 241.97 193.461 244.915 189.336C246.185 187.486 246.062 185.214 247.003 183.252C247.83 181.529 248.817 179.908 249.988 178.418C251.197 176.877 252.881 175.058 249.817 175.219C231.813 175.124 243.464 183.04 234.975 183.241C232.88 183.956 234.434 190.078 231.797 192.871C229.16 195.665 232.02 194.356 232.022 194.355Z" fill="#D2A8BA"/>
<path d="M237.231 187.759C242.629 186.647 241.588 179.236 247.017 177.492C241.676 180.045 242.968 187.148 237.231 187.759Z" fill="white"/>
<path d="M228.648 181.839C229.724 175.028 236.57 173.558 234.545 163.876C233.974 160.769 232.049 146.982 238.771 151.785C243.45 155.127 238.005 165.755 244.192 167.248C248.648 168.324 242.633 173.903 241.805 175.192C240.599 177.07 240.809 179.706 241.116 181.839C241.768 186.362 241.276 188.43 239.144 188.257C237.012 188.085 228.976 189.718 228.648 181.839Z" fill="#D2A8BA"/>
<path d="M235.673 184.933C234.583 183.371 235.098 181.211 235.698 179.541C236.657 176.825 239.179 175.076 240.133 172.412C240.23 172.035 240.158 171.632 240.049 171.267C238.972 168.552 237.495 165.886 237.596 162.831C237.374 160.195 238.265 157.298 237.233 154.825C238.216 156.509 237.744 158.909 237.86 160.803C237.588 164.493 238.8 167.677 240.335 170.904C241.26 173.6 238.328 175.471 237.139 177.499C235.753 179.531 234.369 182.536 235.673 184.933Z" fill="white"/>
<path d="M232.617 187.757C232.617 187.757 234.115 190.152 234.006 191.243C233.897 192.334 236.209 191.243 236.209 191.243C239.435 185.196 240.244 186.702 232.617 187.757Z" fill="#D2A8BA"/>
<path d="M245.297 195.076C244.281 212.916 219.046 207.092 225.203 190.468H244.341C244.954 191.871 245.297 193.431 245.297 195.076Z" fill="#131B27"/>
</g>
<path d="M179.318 206.128H91.5766C88.1954 206.128 85.4543 203.249 85.4543 199.698V43.9994C85.4543 40.448 88.1954 37.5689 91.5766 37.5689H179.318C182.699 37.5689 185.44 40.448 185.44 43.9994V199.698C185.44 203.249 182.699 206.128 179.318 206.128Z" fill="#323232"/>
<path d="M175.194 198.923H95.6998C93.1638 198.923 91.1082 196.764 91.1082 194.1V49.5959C91.1082 46.9322 93.164 44.7731 95.6998 44.7731H175.194C177.73 44.7731 179.786 46.9325 179.786 49.5959V194.1C179.786 196.764 177.73 198.923 175.194 198.923Z" fill="#FDFBF7"/>
<path d="M170.352 203.267C170.352 203.267 173.912 204.823 176.725 203.099C177.427 206.245 167.487 209.341 164.658 208.496C164.359 203.773 166.311 202.728 170.352 203.267Z" fill="url(#paint0_linear_4232_51316)"/>
<path d="M169.521 200.79C169.521 200.79 169.88 202.439 170.099 203.253C170.195 203.611 167.197 204.682 165.614 204.028L165.65 201.926L168.415 200.019L169.521 200.79Z" fill="url(#paint1_linear_4232_51316)"/>
<path d="M114.058 161.802L111.403 160.636L122.985 133.979L118.931 158.986C118.547 161.352 116.167 162.728 114.058 161.802Z" fill="url(#paint2_linear_4232_51316)"/>
<path d="M111.403 160.635C85.2561 149.161 91.5527 156.046 109.007 127.842L122.985 133.979L115.652 158.559C115.094 160.429 113.125 161.392 111.403 160.635Z" fill="url(#paint3_linear_4232_51316)"/>
<path d="M120.04 132.686L118.547 132.031C120.041 128.226 114.545 125.816 113.019 129.604L111.526 128.949C113.878 123.11 122.342 126.83 120.04 132.686Z" fill="url(#paint4_linear_4232_51316)"/>
<path d="M198.259 139.259L199.663 136.619L174.882 123.161L192.771 140.203C194.463 141.815 197.144 141.354 198.259 139.259Z" fill="url(#paint5_linear_4232_51316)"/>
<path d="M199.663 136.619C213.525 110.608 212.499 120.126 182.271 109.269L174.882 123.162L195.1 137.741C196.638 138.851 198.752 138.331 199.663 136.619Z" fill="url(#paint6_linear_4232_51316)"/>
<path d="M176.439 120.234L177.229 118.75C173.816 116.726 176.723 111.266 180.151 113.257L180.94 111.773C175.657 108.706 171.186 117.12 176.439 120.234Z" fill="url(#paint7_linear_4232_51316)"/>
<path d="M117.448 123.944C117.416 123.909 117.384 123.873 117.353 123.836C116.666 124.984 115.767 126.016 114.811 126.881C114.662 127.235 114.555 127.306 114.466 127.68C114.332 128.197 114.079 129.636 114.918 129.421C115.376 130.424 115.516 129.945 116.308 130.11C116.549 130.527 116.832 130.831 117.309 130.404C117.828 130.725 118.166 130.406 118.363 129.944C118.363 129.995 118.369 131.017 118.531 131.275C118.672 131.691 119.088 132.078 119.114 131.401C119.14 131.03 119.132 130.445 119.419 129.977C120.26 128.021 119.826 127.443 120.798 125.941C119.428 125.823 118.374 125.011 117.448 123.944Z" fill="url(#paint8_linear_4232_51316)"/>
<path d="M171.844 117.452C172.862 117.353 173.239 117.508 174.026 117.766C174.772 117.805 175.48 118.219 176.195 117.864C176.609 117.692 177.701 117.125 177.118 116.621C177.544 115.782 177.153 115.894 176.849 115.24C177.001 114.844 177.056 114.477 176.522 114.35C176.479 113.818 176.058 113.711 175.664 113.816C175.698 113.789 176.376 113.251 176.463 112.996C176.666 112.675 176.706 112.167 176.242 112.502C175.982 112.677 175.596 112.989 175.133 113.023C173.391 113.427 173.233 114.049 171.724 114.121C172.362 115.189 171.853 117.41 171.844 117.452Z" fill="url(#paint9_linear_4232_51316)"/>
<path d="M152.781 83.157C152.753 80.4462 152.083 76.5796 149.383 75.4202C149.188 75.3481 147.46 75.068 147.524 75.6229C147.095 71.9161 142.989 72.1853 140.524 73.415C137.387 74.9798 134.998 78.0425 133.557 81.3022C130.034 92.464 125.925 102.832 117.118 110.654C116.273 111.478 116.692 112.966 117.83 113.159C126.374 114.605 136.995 118.724 136.995 118.724C146.655 113.119 151.49 95.181 152.781 83.157Z" fill="url(#paint10_linear_4232_51316)"/>
<path d="M156.869 171.699C157.396 181.873 165.245 201.98 165.65 201.926C168.332 202.552 169.521 200.789 169.521 200.789C167.985 191.523 160.498 142.12 153.485 133.329L147.225 133.034C146.261 135.266 145.136 138.333 145.18 142.698C145.521 150.037 154.523 166.271 156.869 171.699Z" fill="url(#paint11_linear_4232_51316)"/>
<path d="M147.477 91.3766C147.477 91.3766 146.832 98.9689 149.103 99.8722C149.103 99.8722 145.665 103.906 141.97 98.1634C141.97 98.1634 142.617 94.1655 141.844 91.0569L147.477 91.3766Z" fill="url(#paint12_linear_4232_51316)"/>
<path d="M150.232 82.4632C148.863 86.5997 152.749 91.5172 147.389 95.649C145.774 95.4369 139.28 94.9863 138.813 88.9794C138.524 87.9613 137.054 87.5343 137.581 85.8067C138.109 84.079 138.913 85.1241 138.913 85.1241C138.913 85.1241 138.996 83.8086 139.151 82.7013C139.306 81.5943 150.232 82.4632 150.232 82.4632Z" fill="url(#paint13_linear_4232_51316)"/>
<path d="M150.232 82.4642C150.232 82.4642 147.697 89.3241 138.599 85.221C132.281 82.372 144.347 80.0054 144.347 80.0054L150.232 82.4642Z" fill="url(#paint14_linear_4232_51316)"/>
<path d="M109.252 186.496C109.252 186.496 106.694 191.697 109.809 194.984C106.842 196.273 102.13 186.038 102.483 182.834C105.914 181.946 107.905 182.949 109.252 186.496Z" fill="url(#paint15_linear_4232_51316)"/>
<path d="M111.025 184.613C111.025 184.613 109.823 185.847 109.252 186.496C109.002 186.781 106.46 184.56 106.151 182.724L107.952 181.612L111.076 183.159L111.025 184.613Z" fill="url(#paint16_linear_4232_51316)"/>
<path d="M126.743 158.542C119.993 165.844 112.777 173.197 107.641 181.906C108.231 183.321 109.03 184.722 110.61 185.007C127.008 170.02 146.277 152.773 153.683 130.502C152.26 128.97 150.958 127.001 149.653 125.267C145.591 126.624 141.545 128.574 138.794 132.821C134.281 140.434 130.413 150.422 126.743 158.542Z" fill="url(#paint17_linear_4232_51316)"/>
<path d="M152.611 101.464C147.362 109.851 150.715 116.284 157.622 120.955C157.664 120.936 157.706 120.915 157.748 120.894C159.301 121.414 160.964 120.873 162.523 120.404C165.997 119.354 169.56 118.733 172.962 117.426C172.962 117.426 172.04 115.964 172.137 114.046C168.096 114.337 160.197 114.846 160.047 114.853C160.046 114.852 160.045 114.853 160.045 114.853C156.995 113.473 152.611 101.464 152.611 101.464Z" fill="url(#paint18_linear_4232_51316)"/>
<path d="M154.697 120.438C154.156 124.679 154.258 132.046 154.89 135.334C154.826 135.8 143.959 136.199 138.117 133.928C136.568 128.095 135.256 121.992 134.438 115.943C133.073 108.727 133.511 99.6014 141.921 98.0881C141.921 98.0881 143.355 100.362 146.677 100.429C148.631 100.391 147.766 98.1905 147.683 97.9895C148.294 99.0239 149.584 99.6356 150.564 100.169C153.23 100.979 153.685 103.884 154.62 106.246C158.46 113.162 155.492 113.749 154.697 120.438Z" fill="url(#paint19_linear_4232_51316)"/>
<path opacity="0.3" d="M152.42 115.593C152.388 115.601 152.279 115.635 152.1 115.684C152.232 115.657 152.34 115.626 152.42 115.593Z" fill="url(#paint20_linear_4232_51316)"/>
<path d="M158.253 110.341L158.403 110.499C158.364 110.436 158.312 110.382 158.253 110.341Z" fill="url(#paint21_linear_4232_51316)"/>
<path d="M137.231 101.36L137.048 100.599C123.076 110.357 123.002 110.248 116.621 124.916C118.031 125.241 119.207 126.035 120.246 127.056C122.346 122.427 129.186 113.68 129.406 113.397C130.789 112.544 132.241 111.93 133.721 111.392C133.72 111.391 138.726 107.559 138.726 107.559L137.231 101.36Z" fill="url(#paint22_linear_4232_51316)"/>
<path opacity="0.5" d="M154.89 135.335C154.815 135.804 143.967 136.197 138.118 133.929C136.188 126.582 134.557 118.891 133.945 111.248C134.673 110.792 136.95 109.422 137.412 109.81C137.965 110.271 137.295 116.603 144.84 116.768C152.384 116.932 153.184 117.021 153.184 117.021C153.184 117.021 141.254 117.789 140.011 121.481C138.769 125.174 138.493 133.956 154.89 135.335Z" fill="url(#paint23_linear_4232_51316)"/>
<path d="M102.172 127.846L95.1459 123.014C100.276 96.2924 61.189 91.4817 60.3086 118.728C59.9804 137.554 85.0259 144.163 93.3411 127.846H102.172Z" fill="white"/>
<path d="M67.157 104.536C70.7471 101.667 75.4167 100.575 79.9207 101.13C84.4243 101.684 88.7303 103.881 91.5964 107.548C94.4552 111.205 95.9133 116.366 94.655 122.92L94.5935 123.241L94.863 123.426L100.562 127.346H93.0349L92.8953 127.62C88.8614 135.535 80.7823 137.897 73.7146 135.983C66.6489 134.07 60.6521 127.895 60.8083 118.744C61.0243 112.061 63.5765 107.397 67.157 104.536Z" stroke="#C7C4BC" stroke-opacity="0.27"/>
<path opacity="0.8" d="M86.9344 114.933C87.4008 107.268 76.2948 107.33 76.7358 114.968C76.7528 115.18 76.5015 115.284 76.3763 115.116C73.2499 110.697 66.1105 114.035 67.2945 119.548C67.7315 121.738 69.2026 122.814 71.0329 123.718C73.6815 125.026 76.2857 126.433 78.8389 127.935C80.2043 128.738 82.1929 129.291 82.8736 127.271C84.0652 123.121 85.9655 119.124 86.9344 114.933Z" fill="#ED6666"/>
<path d="M167.859 93.8745L176.594 85.854C164.719 50.3195 217.328 35.9014 223.483 73.0054C227.353 98.6993 194.284 112.763 179.942 92.1043L167.859 93.8745Z" fill="white"/>
<path d="M193.409 52.6724C199.516 50.999 206.156 51.5604 211.636 54.7935C217.103 58.019 221.469 63.9347 222.989 73.0787V73.0797C224.885 85.6726 217.741 95.4103 208.344 99.4781C198.948 103.546 187.365 101.92 180.353 91.8189L180.176 91.565L179.869 91.6099L169.393 93.1441L176.933 86.2222L177.171 86.0025L177.069 85.6959C174.141 76.9358 175.198 69.5227 178.478 63.8892C181.763 58.2454 187.303 54.3458 193.409 52.6724Z" stroke="#C7C4BC" stroke-opacity="0.27"/>
<path opacity="0.8" d="M181.523 73.0027C180.095 67.7274 187.975 66.0654 188.673 71.4679C188.69 71.6191 188.881 71.6533 188.945 71.5167C192.293 65.7299 199.455 72.8664 193.881 76.7259C185.069 83.9154 187.997 83.9707 181.523 73.0027Z" fill="#ED6666"/>
<path opacity="0.8" d="M198.729 70.9913C201.263 62.9378 212.615 67.8156 209.162 75.448C209.062 75.6582 209.278 75.873 209.472 75.7556C214.411 72.5833 220.413 79.0983 217.034 84.2321C215.726 86.2857 213.796 86.7504 211.566 86.8829C208.339 87.0745 205.119 87.3868 201.913 87.8188C200.198 88.0497 197.944 87.7536 198.04 85.3902C198.451 80.6232 198.075 75.705 198.729 70.9913Z" fill="#ED6666"/>
<path d="M127.673 87.8836L121.119 80.7889V66.7746C121.119 64.9495 119.711 63.4702 117.973 63.4702H40.6623C38.9248 63.4702 37.5164 64.9498 37.5164 66.7746V83.2268C37.5164 85.0519 38.925 86.5312 40.6623 86.5312H117.973C119.054 86.5312 120.007 85.9584 120.574 85.0863L127.673 87.8836Z" fill="#F9FCFF"/>
<path d="M49.9684 69.2232C51.4797 73.8058 50.1518 72.7624 54.7417 72.8658C55.1001 72.8658 55.249 73.3475 54.9593 73.5689C51.2919 76.4705 51.8101 74.8747 53.1361 79.4628C53.2468 79.8206 52.8567 80.1185 52.5667 79.8972L49.8342 77.812C49.3248 77.1773 46.034 81.3252 46.0972 79.4628C46.084 79.1478 47.503 75.8192 47.0065 75.6541C43.0511 72.7027 42.9911 72.8078 47.869 72.8658C48.6464 73.0541 48.9626 67.6945 49.9684 69.2232Z" fill="#F7B96F"/>
<path d="M65.2026 69.2232C66.7138 73.8058 65.3859 72.7624 69.9759 72.8658C70.3343 72.8658 70.4832 73.3475 70.1934 73.5689C66.526 76.4705 67.0442 74.8747 68.3702 79.4628C68.4809 79.8206 68.0909 80.1185 67.8009 79.8972L65.0683 77.812C64.5591 77.1773 61.2681 81.3252 61.3313 79.4628C61.3181 79.1478 62.7371 75.8192 62.2407 75.6541C58.2852 72.703 58.2253 72.8078 63.1031 72.8658C63.8805 73.0541 64.1967 67.6945 65.2026 69.2232Z" fill="#F7B96F"/>
<path d="M108.233 69.2232C106.722 73.8058 108.05 72.7624 103.46 72.8658C103.101 72.8658 102.952 73.3475 103.242 73.5689C106.91 76.4705 106.392 74.8747 105.066 79.4628C104.955 79.8206 105.345 80.1185 105.635 79.8972L108.368 77.812C108.877 77.1773 112.168 81.3252 112.105 79.4628C112.118 79.1478 110.699 75.8192 111.195 75.6541C115.151 72.703 115.211 72.8078 110.333 72.8658C109.555 73.0541 109.239 67.6945 108.233 69.2232Z" fill="#F7B96F"/>
<path d="M92.9995 69.2232C91.4883 73.8058 92.8162 72.7624 88.2262 72.8658C87.8678 72.8658 87.7187 73.3475 88.0087 73.5689C91.6761 76.4705 91.1579 74.8747 89.8319 79.4628C89.7212 79.8206 90.1112 80.1185 90.4012 79.8972L93.1338 77.812C93.6432 77.1773 96.934 81.3252 96.8708 79.4628C96.884 79.1478 95.465 75.8192 95.9612 75.6541C99.9167 72.703 99.9766 72.8078 95.0988 72.8658C94.3215 73.0541 94.0054 67.6945 92.9995 69.2232Z" fill="#F7B96F"/>
<path d="M79.6708 69.2232C81.1821 73.8058 79.8541 72.7624 84.4441 72.8658C84.8025 72.8658 84.9516 73.3475 84.6616 73.5689C80.9942 76.4705 81.5124 74.8747 82.8385 79.4628C82.9491 79.8206 82.5588 80.1185 82.2689 79.8972L79.5363 77.812C79.0269 77.1773 75.7361 81.3252 75.7993 79.4628C75.7861 79.1478 77.2051 75.8192 76.7087 75.6541C72.7532 72.703 72.6932 72.8078 77.5713 72.8658C78.3488 73.0541 78.6649 67.6945 79.6708 69.2232Z" fill="#F7B96F"/>
<defs>
<linearGradient id="paint0_linear_4232_51316" x1="169.057" y1="200.388" x2="171.091" y2="206.489" gradientUnits="userSpaceOnUse">
<stop stop-color="#001745"/>
<stop offset="0.137" stop-color="#05204A"/>
<stop offset="0.3604" stop-color="#113859"/>
<stop offset="0.6424" stop-color="#256070"/>
<stop offset="0.9693" stop-color="#409691"/>
<stop offset="1" stop-color="#439C94"/>
</linearGradient>
<linearGradient id="paint1_linear_4232_51316" x1="167.824" y1="199.284" x2="167.868" y2="204.436" gradientUnits="userSpaceOnUse">
<stop stop-color="#F0877E"/>
<stop offset="1" stop-color="#FABEB2"/>
</linearGradient>
<linearGradient id="paint2_linear_4232_51316" x1="115.82" y1="157.633" x2="129.68" y2="114.692" gradientUnits="userSpaceOnUse">
<stop stop-color="#FF5B00"/>
<stop offset="1" stop-color="#FFDC5C"/>
</linearGradient>
<linearGradient id="paint3_linear_4232_51316" x1="101.754" y1="160.105" x2="122.24" y2="124.452" gradientUnits="userSpaceOnUse">
<stop stop-color="#FF7200"/>
<stop offset="1" stop-color="#FFDC5C"/>
</linearGradient>
<linearGradient id="paint4_linear_4232_51316" x1="114.589" y1="132.422" x2="125.239" y2="118.439" gradientUnits="userSpaceOnUse">
<stop stop-color="#FF7200"/>
<stop offset="1" stop-color="#FFDC5C"/>
</linearGradient>
<linearGradient id="paint5_linear_4232_51316" x1="194.422" y1="137.121" x2="157.871" y2="112.946" gradientUnits="userSpaceOnUse">
<stop stop-color="#FF5B00"/>
<stop offset="1" stop-color="#FFDC5C"/>
</linearGradient>
<linearGradient id="paint6_linear_4232_51316" x1="206.94" y1="129.943" x2="169.995" y2="114.875" gradientUnits="userSpaceOnUse">
<stop stop-color="#FF7200"/>
<stop offset="1" stop-color="#FFDC5C"/>
</linearGradient>
<linearGradient id="paint7_linear_4232_51316" x1="180.572" y1="116.491" x2="164.079" y2="112.011" gradientUnits="userSpaceOnUse">
<stop stop-color="#FF7200"/>
<stop offset="1" stop-color="#FFDC5C"/>
</linearGradient>
<linearGradient id="paint8_linear_4232_51316" x1="121.989" y1="120.362" x2="114.05" y2="133.064" gradientUnits="userSpaceOnUse">
<stop stop-color="#F0877E"/>
<stop offset="1" stop-color="#FABEB2"/>
</linearGradient>
<linearGradient id="paint9_linear_4232_51316" x1="166.996" y1="116.206" x2="180.059" y2="114.892" gradientUnits="userSpaceOnUse">
<stop stop-color="#F0877E"/>
<stop offset="1" stop-color="#FABEB2"/>
</linearGradient>
<linearGradient id="paint10_linear_4232_51316" x1="134.957" y1="100.17" x2="154.661" y2="50.4817" gradientUnits="userSpaceOnUse">
<stop stop-color="#5C3100"/>
<stop offset="1" stop-color="#B94900"/>
</linearGradient>
<linearGradient id="paint11_linear_4232_51316" x1="153.061" y1="142.036" x2="163.019" y2="204.938" gradientUnits="userSpaceOnUse">
<stop stop-color="#001745"/>
<stop offset="0.137" stop-color="#05204A"/>
<stop offset="0.3604" stop-color="#113859"/>
<stop offset="0.6424" stop-color="#256070"/>
<stop offset="0.9693" stop-color="#409691"/>
<stop offset="1" stop-color="#439C94"/>
</linearGradient>
<linearGradient id="paint12_linear_4232_51316" x1="145.06" y1="91.9134" x2="145.576" y2="98.8811" gradientUnits="userSpaceOnUse">
<stop stop-color="#F0877E"/>
<stop offset="1" stop-color="#FABEB2"/>
</linearGradient>
<linearGradient id="paint13_linear_4232_51316" x1="142.196" y1="78.6786" x2="145.432" y2="91.8736" gradientUnits="userSpaceOnUse">
<stop stop-color="#F0877E"/>
<stop offset="1" stop-color="#FABEB2"/>
</linearGradient>
<linearGradient id="paint14_linear_4232_51316" x1="139.805" y1="93.2023" x2="154.36" y2="56.4998" gradientUnits="userSpaceOnUse">
<stop stop-color="#5C3100"/>
<stop offset="1" stop-color="#B94900"/>
</linearGradient>
<linearGradient id="paint15_linear_4232_51316" x1="111.623" y1="185.991" x2="105.394" y2="188.999" gradientUnits="userSpaceOnUse">
<stop stop-color="#001745"/>
<stop offset="0.137" stop-color="#05204A"/>
<stop offset="0.3604" stop-color="#113859"/>
<stop offset="0.6424" stop-color="#256070"/>
<stop offset="0.9693" stop-color="#409691"/>
<stop offset="1" stop-color="#439C94"/>
</linearGradient>
<linearGradient id="paint16_linear_4232_51316" x1="111.377" y1="182.206" x2="106.915" y2="184.854" gradientUnits="userSpaceOnUse">
<stop stop-color="#F0877E"/>
<stop offset="1" stop-color="#FABEB2"/>
</linearGradient>
<linearGradient id="paint17_linear_4232_51316" x1="146.486" y1="135.658" x2="103.084" y2="181.571" gradientUnits="userSpaceOnUse">
<stop stop-color="#001745"/>
<stop offset="0.137" stop-color="#05204A"/>
<stop offset="0.3604" stop-color="#113859"/>
<stop offset="0.6424" stop-color="#256070"/>
<stop offset="0.9693" stop-color="#409691"/>
<stop offset="1" stop-color="#439C94"/>
</linearGradient>
<linearGradient id="paint18_linear_4232_51316" x1="142.667" y1="109.887" x2="179.3" y2="113.439" gradientUnits="userSpaceOnUse">
<stop stop-color="#FF7200"/>
<stop offset="1" stop-color="#FFDC5C"/>
</linearGradient>
<linearGradient id="paint19_linear_4232_51316" x1="141.89" y1="133.356" x2="151.026" y2="94.0235" gradientUnits="userSpaceOnUse">
<stop stop-color="#FF7200"/>
<stop offset="1" stop-color="#FFDC5C"/>
</linearGradient>
<linearGradient id="paint20_linear_4232_51316" x1="152.247" y1="115.74" x2="152.266" y2="115.606" gradientUnits="userSpaceOnUse">
<stop stop-color="#E75B00"/>
<stop offset="1" stop-color="#FFA345"/>
</linearGradient>
<linearGradient id="paint21_linear_4232_51316" x1="158.301" y1="110.346" x2="158.371" y2="110.519" gradientUnits="userSpaceOnUse">
<stop stop-color="#00D1D0"/>
<stop offset="1" stop-color="#0098D0"/>
</linearGradient>
<linearGradient id="paint22_linear_4232_51316" x1="124.908" y1="129.373" x2="134.034" y2="90.0829" gradientUnits="userSpaceOnUse">
<stop stop-color="#FF7200"/>
<stop offset="1" stop-color="#FFDC5C"/>
</linearGradient>
<linearGradient id="paint23_linear_4232_51316" x1="142.126" y1="134.175" x2="147.859" y2="109.492" gradientUnits="userSpaceOnUse">
<stop stop-color="#FF7200"/>
<stop offset="1" stop-color="#FFDC5C"/>
</linearGradient>
</defs>
</svg>
