<svg width="19" height="20" viewBox="0 0 19 20" fill="none" xmlns="http://www.w3.org/2000/svg">
<path d="M1.08943 18.978C0.874425 18.7565 0.75 18.4116 0.75 17.965V2.03446C0.75 1.58784 0.874425 1.24297 1.08943 1.02146L1.14249 0.972839L10.2128 9.89619V10.1069L1.14249 19.0302L1.08943 18.978Z" fill="white"/>
<path d="M14.3314 6.92023L11.3113 9.89618V10.1069L14.335 13.0828L14.4027 13.0441L17.9836 11.0388C19.0056 10.4698 19.0056 9.5333 17.9836 8.96062L14.4027 6.95895L14.3314 6.92023Z" fill="white"/>
<path d="M13.8525 6.40481L10.7611 9.44739L1.6377 0.467317C1.97712 0.116146 2.53063 0.0738242 3.16008 0.424995L13.8525 6.40481Z" fill="white"/>
<path d="M13.8525 13.5983L3.16008 19.5781C2.53063 19.9257 1.97712 19.8834 1.6377 19.5322L10.7611 10.5557L13.8525 13.5983Z" fill="white"/>
</svg>
