<svg width="18" height="20" viewBox="0 0 18 20" fill="none" xmlns="http://www.w3.org/2000/svg">
<path d="M0.339426 18.9781C0.124425 18.7566 0 18.4117 0 17.9651V2.03452C0 1.5879 0.124425 1.24303 0.339426 1.02152L0.392491 0.9729L9.46278 9.89625V10.107L0.392491 19.0303L0.339426 18.9781Z" fill="#32302A"/>
<path d="M13.5811 6.92041L10.561 9.89636V10.1071L13.5848 13.083L13.6525 13.0443L17.2334 11.039C18.2553 10.4699 18.2553 9.53348 17.2334 8.9608L13.6525 6.95913L13.5811 6.92041V6.92041Z" fill="#32302A"/>
<path d="M13.1025 6.40487L10.0111 9.44745L0.887695 0.467378C1.22712 0.116207 1.78063 0.0738853 2.41008 0.425056L13.1025 6.40487" fill="#32302A"/>
<path d="M13.1025 13.5982L2.41008 19.5781C1.78063 19.9256 1.22712 19.8833 0.887695 19.5321L10.0111 10.5557L13.1025 13.5982Z" fill="#32302A"/>
</svg>
