<svg width="1440" height="805" viewBox="0 0 1440 805" fill="none" xmlns="http://www.w3.org/2000/svg">
<g clip-path="url(#clip0_1_7)">
<rect width="1440" height="805" fill="#FDFBF7"/>
<path d="M831.964 210.253C831.297 209.976 829.841 209.331 829.352 208.975C829.094 208.787 828.994 208.679 828.991 208.586C825.166 210.383 818.31 214.122 818.128 216.032C818.128 217.181 818.95 219.611 822.24 220.144C825.529 220.678 830.686 220.848 832.853 220.867C836.094 220.774 843.233 220.366 845.856 219.477C849.134 218.366 853.635 217.533 856.246 213.643C858.858 209.753 858.909 202.286 859.414 200.251C859.988 197.936 861.596 193.396 862.414 191.917C863.915 189.583 867.304 184.46 868.86 182.637C870.795 180.37 875.372 174.966 875.088 171.519C875.086 171.502 875.085 171.485 875.083 171.468C874.817 168.712 871.861 164.578 870.416 162.855C869.291 161.67 866.417 159.121 863.922 158.41C863.917 158.492 863.888 158.574 863.859 158.632L863.692 159.077C862.822 161.8 860.814 167.868 859.747 170.357C858.68 172.846 855.932 184.619 854.691 190.194C854.005 193.695 852.495 202.042 849.427 205.842C845.704 210.454 844.871 210.253 842.982 211.01C842.495 211.205 841.633 211.365 838.854 211.643C836.632 211.865 833.335 210.809 831.964 210.253Z" fill="#FFB713" fill-opacity="0.15"/>
<path d="M822.24 220.144C818.95 219.611 818.128 217.181 818.128 216.032C817.924 217.625 818.395 220.944 821.907 221.478C825.418 222.011 828.926 222.256 830.241 222.311C833.872 222.274 841.198 221.839 841.91 221.756C843.037 221.623 846.356 221.644 851.634 219.144C855.857 217.144 857.432 213.828 857.691 212.42C858.265 209.846 859.209 204.39 859.414 203.252C859.707 201.619 862.985 192.395 864.192 190.805C864.589 190.211 865.508 188.902 866.764 187.249C866.942 187.015 867.127 186.774 867.318 186.527C867.796 185.909 868.313 185.256 868.86 184.582C871.172 181.737 873.379 178.433 874.194 177.136C874.618 176.675 875.387 174.909 875.088 171.519C875.372 174.966 870.795 180.37 868.86 182.637C867.304 184.46 863.915 189.583 862.414 191.917C861.596 193.396 859.988 197.936 859.414 200.251C858.909 202.286 858.858 209.753 856.246 213.643C853.635 217.533 849.134 218.366 845.856 219.477C843.233 220.366 836.094 220.774 832.853 220.867C830.686 220.848 825.529 220.678 822.24 220.144Z" fill="#FFB713" fill-opacity="0.15"/>
<path d="M844.189 200.974C840.543 208.397 833.52 208.957 830.464 208.309C837.132 211.254 842.037 209.788 842.37 209.621L842.504 209.554C846.452 207.581 848.468 206.573 851.634 197.418C852.083 196.12 854.209 187.916 855.08 183.915C855.857 178.803 858.302 171.468 858.858 169.857C859.303 168.568 861.785 161.652 862.859 158.41C860.858 158.966 858.969 164.634 858.302 165.523C857.769 166.234 853.82 177.229 851.912 182.637C850.857 185.656 847.834 193.55 844.189 200.974Z" fill="#FFB713" fill-opacity="0.15"/>
<path d="M874.194 177.136C873.379 178.433 871.172 181.737 868.86 184.582C868.313 185.256 867.796 185.909 867.318 186.527L868.042 186.367L869.082 186.138C869.527 186.008 870.46 186.004 870.638 187.027C870.934 187.842 871.683 190.183 872.305 193.028C872.927 195.873 873.75 199.955 874.083 201.641L875.75 211.309L877.595 211.087L876.639 205.919L875.75 200.196L874.639 192.583C874.583 191.342 874.417 188.394 874.194 186.527C873.972 184.66 874.287 182.489 874.472 181.637C874.546 181.544 874.806 180.581 875.25 177.469C875.695 174.358 875.324 172.172 875.083 171.468C875.085 171.485 875.086 171.502 875.088 171.519C875.387 174.909 874.618 176.675 874.194 177.136Z" fill="#FFB713" fill-opacity="0.15"/>
<path d="M868.042 186.367C869.909 187.212 870.879 191.213 871.083 192.861L874.938 211.087L875.75 211.309L874.083 201.641C873.75 199.955 872.927 195.873 872.305 193.028C871.683 190.183 870.934 187.842 870.638 187.027C870.46 186.004 869.527 186.008 869.082 186.138L868.042 186.367Z" fill="#FFB713" fill-opacity="0.15"/>
<path d="M877.362 213.254C877.939 213.165 877.936 212.735 877.862 212.532L877.595 211.087L875.75 211.309L874.938 211.087L875.361 213.087L876.25 213.421C876.38 213.402 876.784 213.343 877.362 213.254Z" fill="#FFB713" fill-opacity="0.15"/>
<path d="M830.464 208.309C833.52 208.957 840.543 208.397 844.189 200.974C847.834 193.55 850.857 185.656 851.912 182.637C853.82 177.229 857.769 166.234 858.302 165.523C858.969 164.634 860.858 158.966 862.859 158.41M830.464 208.309C837.132 211.254 842.037 209.788 842.37 209.621M830.464 208.309L830.075 208.142C829.701 208.01 829.619 207.831 829.352 208.142C829.16 208.366 828.987 208.461 828.991 208.586M862.859 158.41C861.785 161.652 859.303 168.568 858.858 169.857C858.302 171.468 855.857 178.803 855.08 183.915C854.209 187.916 852.083 196.12 851.634 197.418C848.468 206.573 846.452 207.581 842.504 209.554M862.859 158.41C863.081 157.743 863.303 158.077 863.692 158.132C863.881 158.159 863.93 158.284 863.922 158.41M842.37 209.621L842.504 209.554M842.37 209.621C842.415 209.599 842.46 209.576 842.504 209.554M828.991 208.586C828.994 208.679 829.094 208.787 829.352 208.975C829.841 209.331 831.297 209.976 831.964 210.253C833.335 210.809 836.632 211.865 838.854 211.643C841.633 211.365 842.495 211.205 842.982 211.01C844.871 210.253 845.704 210.454 849.427 205.842C852.495 202.042 854.005 193.695 854.691 190.194C855.932 184.619 858.68 172.846 859.747 170.357C860.814 167.868 862.822 161.8 863.692 159.077L863.859 158.632C863.888 158.574 863.917 158.492 863.922 158.41M828.991 208.586C825.166 210.383 818.31 214.122 818.128 216.032M818.128 216.032C818.128 217.181 818.95 219.611 822.24 220.144C825.529 220.678 830.686 220.848 832.853 220.867C836.094 220.774 843.233 220.366 845.856 219.477C849.134 218.366 853.635 217.533 856.246 213.643C858.858 209.753 858.909 202.286 859.414 200.251C859.988 197.936 861.596 193.396 862.414 191.917C863.915 189.583 867.304 184.46 868.86 182.637C870.795 180.37 875.372 174.966 875.088 171.519M818.128 216.032C817.924 217.625 818.395 220.944 821.907 221.478C825.418 222.011 828.926 222.256 830.241 222.311C833.872 222.274 841.198 221.839 841.91 221.756C843.037 221.623 846.356 221.644 851.634 219.144C855.857 217.144 857.432 213.828 857.691 212.42C858.265 209.846 859.209 204.39 859.414 203.252C859.707 201.619 862.985 192.395 864.192 190.805C864.589 190.211 865.508 188.902 866.764 187.249M875.083 171.468C874.817 168.712 871.861 164.578 870.416 162.855C869.291 161.67 866.417 159.121 863.922 158.41M875.083 171.468C875.324 172.172 875.695 174.358 875.25 177.469C874.806 180.581 874.546 181.544 874.472 181.637C874.287 182.489 873.972 184.66 874.194 186.527C874.417 188.394 874.583 191.342 874.639 192.583L875.75 200.196L876.639 205.919L877.595 211.087M875.083 171.468C875.085 171.485 875.086 171.502 875.088 171.519M875.083 171.468C875.085 171.485 875.086 171.502 875.088 171.519M868.042 186.367C869.909 187.212 870.879 191.213 871.083 192.861L874.938 211.087M868.042 186.367L866.764 187.249M868.042 186.367L867.318 186.527M868.042 186.367L869.082 186.138M866.764 187.249C866.942 187.015 867.127 186.774 867.318 186.527M867.318 186.527C867.796 185.909 868.313 185.256 868.86 184.582C871.172 181.737 873.379 178.433 874.194 177.136C874.618 176.675 875.387 174.909 875.088 171.519M867.318 186.527L869.082 186.138M869.082 186.138C869.527 186.008 870.46 186.004 870.638 187.027C870.934 187.842 871.683 190.183 872.305 193.028C872.927 195.873 873.75 199.955 874.083 201.641L875.75 211.309M875.75 211.309L874.938 211.087M875.75 211.309L877.595 211.087M874.938 211.087L875.361 213.087L876.25 213.421C876.38 213.402 876.784 213.343 877.362 213.254C877.939 213.165 877.936 212.735 877.862 212.532L877.595 211.087" stroke="white" stroke-width="0.583054"/>
<path d="M857.515 228.227C857.051 227.673 856.055 226.431 855.785 225.89C855.641 225.604 855.603 225.462 855.643 225.379C851.42 225.214 843.613 225.38 842.572 226.992C842.044 228.012 841.656 230.548 844.331 232.535C847.007 234.522 851.507 237.045 853.422 238.059C856.343 239.468 862.868 242.39 865.606 242.808C869.028 243.329 873.408 244.66 877.516 242.408C881.624 240.156 885.105 233.549 886.489 231.975C888.064 230.183 891.581 226.892 892.988 225.955C895.394 224.573 900.76 221.584 902.98 220.681C905.742 219.559 912.291 216.866 913.625 213.674C913.631 213.659 913.638 213.643 913.644 213.628C914.675 211.058 913.953 206.027 913.462 203.833C913.009 202.263 911.63 198.678 909.741 196.899C909.699 196.969 909.636 197.029 909.584 197.067L909.231 197.385C907.205 199.402 902.631 203.866 900.539 205.585C898.446 207.305 890.589 216.493 886.923 220.872C884.704 223.665 879.522 230.382 875.05 232.344C869.623 234.727 868.975 234.165 866.95 233.967C866.428 233.916 865.589 233.662 862.994 232.63C860.918 231.805 858.477 229.351 857.515 228.227Z" fill="#FFB713" fill-opacity="0.15"/>
<path d="M844.331 232.535C841.656 230.548 842.044 228.012 842.572 226.992C841.658 228.313 840.549 231.476 843.422 233.565C846.294 235.655 849.297 237.486 850.439 238.14C853.679 239.777 860.384 242.762 861.055 243.015C862.116 243.416 865.053 244.962 870.89 245.17C875.56 245.337 878.483 243.118 879.361 241.987C881.055 239.965 884.404 235.555 885.109 234.639C886.12 233.324 893.275 226.643 895.078 225.786C895.703 225.441 897.122 224.701 898.998 223.812C899.263 223.686 899.539 223.557 899.822 223.425C900.53 223.097 901.289 222.754 902.085 222.408C905.447 220.945 908.927 219.027 910.247 218.251C910.836 218.037 912.331 216.822 913.625 213.674C912.291 216.866 905.742 219.559 902.98 220.681C900.76 221.584 895.394 224.573 892.988 225.955C891.581 226.892 888.064 230.183 886.489 231.975C885.105 233.549 881.624 240.156 877.516 242.408C873.408 244.66 869.028 243.329 865.606 242.808C862.868 242.39 856.343 239.468 853.422 238.059C851.507 237.045 847.007 234.522 844.331 232.535Z" fill="#FFB713" fill-opacity="0.15"/>
<path d="M872.639 225.612C865.987 230.526 859.493 227.791 857.078 225.81C861.644 231.492 866.673 232.447 867.046 232.453L867.195 232.455C871.609 232.519 873.863 232.552 880.886 225.88C881.881 224.934 887.543 218.628 890.157 215.476C893.199 211.295 898.745 205.907 899.979 204.732C900.967 203.792 906.353 198.793 908.798 196.41C906.766 195.983 902.481 200.146 901.48 200.628C900.679 201.014 892.115 208.96 887.933 212.884C885.606 215.079 879.29 220.697 872.639 225.612Z" fill="#FFB713" fill-opacity="0.15"/>
<path d="M910.247 218.251C908.927 219.027 905.447 220.945 902.085 222.408C901.289 222.754 900.53 223.097 899.822 223.425L900.538 223.617L901.567 223.892C902.021 223.981 902.852 224.407 902.539 225.397C902.428 226.257 902.015 228.68 901.259 231.492C900.502 234.304 899.354 238.307 898.875 239.957L895.907 249.309L897.647 249.96L899.176 244.932L901.02 239.441L903.535 232.171C904.057 231.044 905.265 228.349 905.927 226.589C906.589 224.829 907.867 223.046 908.423 222.375C908.532 222.327 909.205 221.591 911.031 219.033C912.858 216.474 913.534 214.363 913.644 213.628C913.638 213.643 913.632 213.659 913.625 213.674C912.331 216.822 910.836 218.037 910.247 218.251Z" fill="#FFB713" fill-opacity="0.15"/>
<path d="M900.538 223.617C901.807 225.225 900.827 229.224 900.25 230.782L895.288 248.738L895.907 249.309L898.875 239.957C899.354 238.307 900.502 234.304 901.259 231.492C902.015 228.68 902.428 226.257 902.539 225.397C902.852 224.407 902.021 223.981 901.567 223.892L900.538 223.617Z" fill="#FFB713" fill-opacity="0.15"/>
<path d="M896.443 251.777C896.997 251.964 897.191 251.58 897.219 251.365L897.647 249.96L895.907 249.309L895.288 248.738L894.743 250.708L895.379 251.413C895.503 251.457 895.889 251.59 896.443 251.777Z" fill="#FFB713" fill-opacity="0.15"/>
<path d="M857.078 225.81C859.493 227.791 865.987 230.526 872.639 225.612C879.29 220.697 885.606 215.079 887.933 212.884C892.115 208.96 900.679 201.014 901.48 200.628C902.481 200.146 906.766 195.983 908.798 196.41M857.078 225.81C861.644 231.492 866.673 232.447 867.046 232.453M857.078 225.81L856.809 225.483C856.539 225.193 856.548 224.997 856.168 225.15C855.894 225.261 855.696 225.265 855.643 225.379M908.798 196.41C906.353 198.793 900.967 203.792 899.979 204.732C898.745 205.907 893.199 211.295 890.157 215.476C887.543 218.628 881.881 224.934 880.886 225.88C873.863 232.552 871.609 232.519 867.195 232.455M908.798 196.41C909.302 195.92 909.346 196.318 909.666 196.546C909.821 196.657 909.807 196.79 909.741 196.899M867.046 232.453L867.195 232.455M867.046 232.453C867.096 232.453 867.146 232.454 867.195 232.455M855.643 225.379C855.603 225.462 855.641 225.604 855.785 225.89C856.055 226.431 857.051 227.673 857.515 228.227C858.477 229.351 860.918 231.805 862.994 232.63C865.589 233.662 866.428 233.916 866.95 233.967C868.975 234.165 869.623 234.727 875.05 232.344C879.522 230.382 884.704 223.665 886.923 220.872C890.589 216.493 898.446 207.305 900.539 205.585C902.631 203.866 907.205 199.402 909.231 197.385L909.584 197.067C909.636 197.029 909.699 196.969 909.741 196.899M855.643 225.379C851.42 225.214 843.613 225.38 842.572 226.992M842.572 226.992C842.044 228.012 841.656 230.548 844.331 232.535C847.007 234.522 851.507 237.045 853.422 238.059C856.343 239.468 862.868 242.39 865.606 242.808C869.028 243.329 873.408 244.66 877.516 242.408C881.624 240.156 885.105 233.549 886.489 231.975C888.064 230.183 891.581 226.892 892.988 225.955C895.394 224.573 900.76 221.584 902.98 220.681C905.742 219.559 912.291 216.866 913.625 213.674M842.572 226.992C841.658 228.313 840.549 231.476 843.422 233.565C846.294 235.655 849.297 237.486 850.439 238.14C853.679 239.777 860.384 242.762 861.055 243.015C862.116 243.416 865.053 244.962 870.89 245.17C875.56 245.337 878.483 243.118 879.361 241.987C881.055 239.965 884.404 235.555 885.109 234.639C886.12 233.324 893.275 226.643 895.078 225.786C895.703 225.441 897.122 224.701 898.998 223.812M913.644 213.628C914.675 211.058 913.953 206.027 913.462 203.833C913.009 202.263 911.63 198.678 909.741 196.899M913.644 213.628C913.534 214.363 912.858 216.474 911.031 219.033C909.205 221.591 908.532 222.327 908.423 222.375C907.867 223.046 906.589 224.829 905.927 226.589C905.265 228.349 904.057 231.044 903.535 232.171L901.02 239.441L899.176 244.932L897.647 249.96M913.644 213.628C913.638 213.643 913.631 213.659 913.625 213.674M913.644 213.628C913.638 213.643 913.632 213.659 913.625 213.674M900.538 223.617C901.807 225.225 900.827 229.224 900.25 230.782L895.288 248.738M900.538 223.617L898.998 223.812M900.538 223.617L899.822 223.425M900.538 223.617L901.567 223.892M898.998 223.812C899.263 223.686 899.539 223.557 899.822 223.425M899.822 223.425C900.53 223.097 901.289 222.754 902.085 222.408C905.447 220.945 908.927 219.027 910.247 218.251C910.836 218.037 912.331 216.822 913.625 213.674M899.822 223.425L901.567 223.892M901.567 223.892C902.021 223.981 902.852 224.407 902.539 225.397C902.428 226.257 902.015 228.68 901.259 231.492C900.502 234.304 899.354 238.307 898.875 239.957L895.907 249.309M895.907 249.309L895.288 248.738M895.907 249.309L897.647 249.96M895.288 248.738L894.743 250.708L895.379 251.413C895.503 251.457 895.889 251.59 896.443 251.777C896.997 251.964 897.191 251.58 897.219 251.365L897.647 249.96" stroke="white" stroke-width="0.583054"/>
<g clip-path="url(#clip1_1_7)">
<path d="M803.647 544.275C803.598 544.376 802.505 544.441 802.471 545.248C803.965 549.764 806.027 555.052 800.919 558.09C797.042 560.395 786.986 558.744 784.405 554.878C782.976 552.741 783.444 549.117 779.848 551.867C783.355 557.537 775.257 566.233 770.319 567.58C763.495 569.442 761.381 562.853 759.966 557.642L758.231 556.992C758.378 556.195 759.417 556.253 759.711 555.893C759.855 555.715 759.763 554.714 760.02 554.163C760.761 552.576 762.503 551.216 764.092 550.53C773.367 546.531 785.408 544.954 794.971 541.192C796.379 540.86 798.684 541.019 799.967 541.65C800.824 542.071 801.082 542.743 801.57 543.002C801.992 543.223 804.191 543.133 803.65 544.274L803.647 544.275ZM782.802 546.759L777.59 548.326L778.949 550.126L782.309 549.451L782.802 546.759ZM766.028 553.316C765.805 553.442 763.633 557.577 763.586 557.828C763.455 558.534 763.732 558.51 764.263 558.768C765.009 558.689 767.498 554.408 767.052 553.584L766.028 553.316ZM772.101 551.49C771.353 551.549 771.221 551.924 770.848 552.415C770.233 553.231 767.91 557.549 767.569 558.512C767.365 559.094 767.125 559.41 767.488 560.066C768.359 559.97 768.597 559.646 769.093 559.039C769.379 558.689 772.169 553.497 772.248 553.169C772.407 552.518 772.389 552.105 772.102 551.494L772.101 551.49ZM789.47 546.269C788.757 545.868 786.431 550.215 786.26 550.827C786.152 551.214 786.467 551.947 786.662 552.031C787.421 552.351 790.683 546.953 789.47 546.269ZM794.682 544.702C793.934 544.761 793.802 545.136 793.429 545.627C792.645 546.667 790.699 550.443 790.168 551.734C789.556 553.215 790.595 553.546 791.548 552.475C791.79 552.205 794.747 546.714 794.827 546.378C794.986 545.727 794.969 545.314 794.682 544.702Z" fill="#FFB713" fill-opacity="0.15"/>
<path d="M828.502 584.914C828.524 586.47 827.674 586.771 826.407 587.136C825.858 588.518 827.655 588.666 827.543 589.847C827.391 591.474 824.831 590.836 825.499 592.526C825.651 592.914 826.557 593.192 826.638 593.836C826.92 596.104 824.835 594.962 823.91 595.274C823.586 595.383 820.747 598.701 819.755 599.359C811.346 604.957 799.301 600.223 796.891 590.449C792.747 573.69 815.841 563.708 824.957 580.234C826.114 582.331 825.531 584.187 828.507 584.911L828.502 584.914ZM821.029 580.594C813.135 568.146 794.149 580.177 801.731 592.741C809.309 605.3 829.274 593.592 821.029 580.594Z" fill="#FFB713" fill-opacity="0.15"/>
<path d="M814.74 563.876C813.044 568.295 817.304 569.177 817.507 564.449L821.63 565.677C822.558 566.78 821.02 570.278 820.944 571.762C817.14 569.491 813.074 568.649 808.68 569.221C809.628 564.613 809.029 561.863 814.744 563.876L814.74 563.876Z" fill="#FFB713" fill-opacity="0.15"/>
<path d="M814.208 604.201C813.264 608.793 813.863 611.564 808.149 609.546L808.56 606.714C806.258 604.771 805.724 606.805 805.382 608.973C799.336 608.554 800.987 606.253 801.945 601.66C805.72 604.006 809.795 604.95 814.208 604.201Z" fill="#FFB713" fill-opacity="0.15"/>
<path d="M796.663 597.265C797.059 596.978 799.626 599.714 799.692 600.226C799.936 602.159 798.941 605.172 796.974 602.693C795.681 601.067 796.212 599.127 796.663 597.265Z" fill="#FFB713" fill-opacity="0.15"/>
<path d="M820.803 602.267C820.475 604.158 820.192 606.145 818.359 607.123C815.568 608.612 815.852 605.461 816.846 603.78C817.083 603.383 820.632 601.952 820.803 602.267Z" fill="#FFB713" fill-opacity="0.15"/>
<path d="M806.788 566.358C806.766 569.43 805.058 571.152 802.081 571.158C802.519 568.55 803.502 565.14 806.788 566.358Z" fill="#FFB713" fill-opacity="0.15"/>
<path d="M826.22 576.16C823.468 574.709 822.586 572.906 823.811 569.885C827.299 570.113 826.985 573.572 826.22 576.16Z" fill="#FFB713" fill-opacity="0.15"/>
<path d="M811.261 578.11C821.011 578.463 823.378 590.995 814.934 594.63C806.348 598.326 798.585 587.568 805.383 580.614C806.825 579.138 809.173 578.038 811.261 578.11ZM812.139 588.039C815.278 583.996 811.893 578.073 810.302 585.243L807.972 584.82C805.578 587.797 810.011 587.533 812.139 588.039Z" fill="#FFB713" fill-opacity="0.15"/>
<path d="M769.363 613.328L771.077 617.43L776.879 615.437L775.706 611.149L783.202 608.573C782.763 615.71 783.96 622.44 787.825 628.568L770.53 634.51C770.033 629.718 768.741 625.662 766.18 621.566C764.934 619.574 763.134 617.935 762.159 615.803L769.366 613.327L769.363 613.328ZM780.391 617.27C780.141 617.46 779.668 617.197 779.571 617.23L770.058 620.499C769.961 620.532 769.75 621.03 769.436 621.034L771.468 626.94C771.547 627.168 773.438 627.853 773.927 627.8C775.118 627.669 779.029 626.261 780.247 625.712C781.015 625.367 782.726 624.065 782.421 623.177L780.388 617.271L780.391 617.27Z" fill="#FFB713" fill-opacity="0.15"/>
<path d="M761.21 617.74C765.046 622.878 768.863 628.573 768.355 635.254C765.912 635.308 763.615 634.205 762.553 631.939C761.372 629.415 760.91 621.467 760.773 618.363C760.751 617.901 760.435 617.919 761.211 617.743L761.21 617.74Z" fill="#FFB713" fill-opacity="0.15"/>
<path d="M785.043 609.232L791.492 618.855C793.217 622.356 793.325 625.363 789.995 627.819C785.593 622.697 784.865 615.74 785.04 609.233L785.043 609.232Z" fill="#FFB713" fill-opacity="0.15"/>
<path d="M766.058 606.202C765.019 608.327 765.593 610.325 766.462 612.392L764.729 612.987C760.574 605.781 768.76 597.767 775.768 602.42C777.357 603.474 781.424 608.61 777.446 608.312C776.756 607.234 776.739 606.109 775.929 605.035C773.413 601.695 767.84 602.55 766.055 606.203L766.058 606.202Z" fill="#FFB713" fill-opacity="0.15"/>
<path d="M773.976 611.743L771.09 612.735L771.983 615.33L774.869 614.339L773.976 611.743Z" fill="#FFB713" fill-opacity="0.15"/>
<path d="M774.637 621.197C775.374 623.437 777.19 622.809 776.393 620.593L779.259 619.592L780.429 623.401C780.266 623.981 773.533 626.227 773.081 625.859L771.763 622.167L774.64 621.196L774.637 621.197Z" fill="#FFB713" fill-opacity="0.15"/>
</g>
<ellipse cx="1133.37" cy="728.721" rx="325.416" ry="491.978" transform="rotate(51.2522 1133.37 728.721)" fill="white"/>
<path d="M861.726 558.867C861.639 558.04 861.033 556.241 860.686 555.421C860.34 554.6 858.648 551.377 857.563 552.037C856.817 552.49 857.299 553.835 856.705 554.155L855.047 550.758C858.816 549.674 862.31 552.803 865.725 553.978L863.463 554.793C869.085 555.134 872.876 551.726 875.597 558.405C877.333 562.663 877.49 567.609 877.649 572.153C872.843 572.711 867.952 572.464 863.29 571.144C863.503 569.877 864.187 563.265 862.942 562.969L861.672 563.802C861.557 562.226 861.892 560.405 861.726 558.867Z" fill="#FFB713" fill-opacity="0.17"/>
<path d="M848.454 560.557L847.837 565.342L846.305 563.915C846.091 563.872 846.126 564.181 846.156 564.34C846.259 564.887 849.008 567.629 849.636 568.188C857.828 575.479 869.018 578.393 879.849 577.818C879.703 576.92 878.021 577.372 877.878 577.235C877.627 575.761 878.182 574.221 878.235 572.868C878.247 572.533 877.504 570.116 878.375 570.475C881.47 574.084 885.467 579.313 880.489 583.181C875.577 586.996 870.082 583.971 865.237 581.659C857.855 578.135 849.013 572.244 844.909 565.005C844.339 563.999 843.448 563.017 843.702 561.839C844.098 560.004 847.043 560.621 848.457 560.554L848.454 560.557Z" fill="#FFB713" fill-opacity="0.17"/>
<path d="M848.754 559.148L848.745 559.991C847.033 559.925 843.255 559.692 843.082 562.064C843.034 562.725 843.885 564.18 844.233 564.821C848.086 571.911 856.805 578.003 863.913 581.551L871.868 585.06C865.957 584.816 859.907 582.782 854.528 580.411C848.854 577.91 842.108 574.07 840.611 567.528C840.067 565.157 840.048 560.168 843.087 559.485C843.75 559.336 848.56 558.937 848.751 559.145L848.754 559.148Z" fill="#FFB713" fill-opacity="0.17"/>
<path d="M857.793 557.272L857.567 552.475C858.067 552.401 858.184 552.47 858.536 552.78C859.144 553.312 860.279 555.554 860.558 556.377C861.816 560.093 861.298 563.439 860.508 567.17C861.084 567.118 862.368 562.755 863.08 563.532C863.291 564.918 863.4 566.206 863.314 567.621C863.278 568.194 862.944 570.822 862.579 570.848L860.496 569.826C859.345 566.288 857.783 558.421 854.993 555.961C854.673 555.678 854.211 555.553 854.705 556.242C857.535 560.196 858.786 565.039 859.907 569.702C857.96 568.867 855.448 568.084 854.593 565.983L857.259 567.135L857.399 566.719L851.843 559.601C852.109 559.152 852.473 559.714 852.712 559.867C853.579 560.414 855.335 562.069 855.905 562.325C856.25 562.479 856.437 562.261 856.326 561.913L849.946 552.809L850.086 552.393C850.94 552.682 851.993 554.218 853.029 553.977C851.596 551.517 849.508 549.32 848.885 546.457C851.988 547.146 854.742 550.761 856.087 553.496C856.684 554.71 856.878 556.325 857.784 557.272L857.793 557.272Z" fill="#FFB713" fill-opacity="0.17"/>
<path d="M877.649 572.72C877.63 573.645 877.788 577.161 876.856 577.471C866.256 577.375 855.518 573.779 848.162 565.989L848.435 562.813L854.78 567.622C861.609 571.959 869.589 573.722 877.652 572.72L877.649 572.72Z" fill="#FFB713" fill-opacity="0.17"/>
<path d="M854.375 560.337C854.212 560.506 851.082 557.687 851.014 559.028C850.977 559.783 856.344 565.668 856.005 565.996L853.765 565.128L854.312 566.403C854.368 566.592 854.06 566.606 853.893 566.534C853.411 566.329 849.025 562.623 848.855 562.242C848.308 561.005 850.45 556.692 850.774 555.224L854.378 560.34L854.375 560.337Z" fill="#FFB713" fill-opacity="0.17"/>
<path d="M891.099 525.062L890.02 531.755C889.695 533.768 893.984 538.344 895.158 540.07C894.475 543.224 894.408 546.964 893.605 550.038C893.427 550.724 893.151 551.305 892.331 551.326C891.51 551.347 887.765 550.694 887.016 550.365C886.181 549.998 885.772 549.161 885.745 548.276C886.103 542.91 888.226 536.746 888.448 531.489C888.468 531.051 888.48 530.614 887.882 530.595L885.158 547.498C883.766 547.996 880.52 547.405 880.407 545.52L883.092 528.543C884.222 524.841 887.706 524.207 891.1 525.064L891.099 525.062ZM891.62 544.931C891.962 543.847 888.421 543.662 888.175 543.911L888.331 544.401L891.62 544.931Z" fill="#FFB713" fill-opacity="0.17"/>
<path d="M905.742 551.165L908.521 533.922C907.947 533.752 907.823 534.173 907.702 534.593C906.272 539.616 906.518 546.44 904.995 551.377C904.727 552.24 903.856 552.941 902.955 552.995C902.147 553.042 897.278 552.283 897.027 551.7C896.888 551.374 896.957 550.93 896.985 550.578C897.166 548.206 897.882 543.523 898.483 541.251C898.566 540.935 898.561 540.602 898.858 540.383C900.726 539.021 905.78 536.499 906.163 534.124L907.169 527.885L910.912 528.488C911.011 528.504 912.246 529.595 912.424 529.801C913.452 530.975 913.743 532.39 913.636 533.937C913.372 537.745 912.089 546.201 911.082 549.814C910.846 550.666 910.017 551.854 909.034 551.695L905.744 551.165L905.742 551.165ZM903.978 546.225L900.575 545.677L900.465 546.357L903.868 546.906L903.978 546.225Z" fill="#FFB713" fill-opacity="0.17"/>
<path d="M892.679 552.085C894.578 551.989 894.272 548.669 894.642 548.672L896.554 548.981C896.244 549.867 895.933 552.61 897.213 552.816L903.452 553.822L902.446 560.061L902.051 560.346L894.225 559.085C894.447 558.325 894.356 557.215 894.685 556.531C894.952 555.975 896.29 555.795 895.938 554.936L894.432 555.634L893.546 554.664C891.969 554.352 893.83 555.787 893.912 556.406C894.009 557.159 893.572 558.187 893.547 558.976L885.72 557.714L885.435 557.319L886.44 551.08C888.271 551.108 890.97 552.171 892.679 552.085Z" fill="#FFB713" fill-opacity="0.17"/>
<path d="M893.913 532.149C893.952 533.576 895.213 536.476 895.407 538.086C895.455 538.484 895.426 538.857 895.327 539.244C893.753 536.886 890.635 534.193 890.813 531.181C890.869 530.218 891.536 525.765 892.064 525.285C892.163 525.194 894.297 524.047 894.441 524C895.329 523.709 902.026 524.835 903.23 525.215C904.587 525.643 905.779 526.911 906.321 528.206L904.983 534.991C903.236 536.955 900.88 538.306 898.733 539.793C898.752 539.389 898.861 539.04 899.025 538.674C899.517 537.56 902.233 533.946 902.341 533.275L903.492 526.128L895.099 524.775C895.038 526.989 893.851 530.051 893.911 532.149L893.913 532.149Z" fill="#FFB713" fill-opacity="0.17"/>
<path d="M901.951 527.044L901.366 530.674C900.441 530.724 899.428 528.996 898.751 528.863C898.074 528.73 896.546 530.03 895.695 529.76L896.28 526.13C897.219 526.063 898.243 527.77 898.911 527.868C899.525 527.957 901.106 526.587 901.951 527.044Z" fill="#FFB713" fill-opacity="0.17"/>
<path d="M897.101 545.582L895.057 545.253L894.655 547.751L896.699 548.08L897.101 545.582Z" fill="#FFB713" fill-opacity="0.17"/>
<path d="M888.605 592.357C889.429 592.651 890.494 594.647 891.44 593.464C892.856 591.692 888.167 589.558 886.693 590.335C887.049 587.268 891.212 588.574 892.691 590.21C894.901 589.538 893.235 587.497 891.784 586.903C890.611 586.424 889.3 586.531 888.069 586.607C887.916 586.499 889.033 583.202 889.237 583.04C890.548 581.991 893.391 584.093 894.411 584.983C894.798 585.32 895.144 586.066 895.481 586.208C897.14 586.913 900.437 585.932 901.867 584.9C902.146 584.698 902.812 584.186 902.853 583.828C901.68 584.424 900.834 585.401 899.495 585.791C898.629 586.044 897.438 586.109 896.543 586.021C894.958 585.868 894.486 584.378 893.135 583.53C893.537 581.62 895.725 578.592 897.586 577.762C904.387 574.724 906.941 583.372 906.289 588.519C903.024 591.722 900.453 595.042 898.699 599.296L898.89 599.616C900.343 596.355 901.905 593.73 904.271 591.036C905.72 589.389 907.134 589.137 906.721 586.393C908.29 587.055 909.284 591.524 909.165 592.956C909.023 594.664 905.877 598.587 904.392 599.621L903.515 595.658C902.833 596.362 902.602 597.422 902.399 598.35C902.743 597.783 903.077 597.166 903.486 596.643L904.156 599.673L902.139 599.383C902.33 599.04 902.322 598.703 902.399 598.35C901.294 600.179 900.593 601.974 899.024 603.506C894.478 607.94 882.442 611.484 876.902 607.416C874.576 605.71 875.276 605.071 875.708 602.546L876.735 604.853C883.507 609.47 893.96 606.358 898.617 600.043L894.781 603.403C890.737 606.073 884.818 607.581 880.1 606.172C877.406 605.367 876.034 604.539 876.371 601.469C876.791 597.658 880.312 596.568 882.923 594.638C884.578 593.414 884.477 592.486 886.974 592.249C887.214 592.227 888.439 592.297 888.607 592.357C888.525 592.329 888.397 592.082 888.122 592.028C887.012 591.81 885.782 591.973 884.691 592.222L884.387 591.573C885.429 590.166 888.89 590.328 890.208 591.256C890.97 591.79 891.925 593.077 890.721 593.598C889.982 592.791 889.531 592.674 888.605 592.357ZM897.149 593.404L893.376 597.703C890.057 600.732 886.082 602.393 881.552 601.383L877.883 600.231C885.191 604.663 893.374 600.204 897.149 593.404Z" fill="#FFB713" fill-opacity="0.17"/>
<path d="M892.471 589.742C892.276 589.68 891.409 588.647 890.433 588.392C888.905 587.991 887.619 588.808 886.439 588.068C887.589 585.977 892.672 586.643 893.399 588.79C893.633 589.48 893.056 589.926 892.471 589.742Z" fill="#FFB713" fill-opacity="0.17"/>
<path d="M630.308 807.378C624.524 816.199 620.222 826.003 617.928 836.341L610.509 833.541C612.95 823.403 618.325 813.371 626.022 806.33L630.308 807.378Z" fill="#FFB713" fill-opacity="0.15"/>
<path d="M636.849 802.39L635.73 806.978C635.709 807.068 636.051 807.298 635.918 807.494L626.458 805.183C626.865 804.129 626.824 802.812 627.365 801.879C632.069 801.92 630.79 801.178 631.326 801.26L636.849 802.39Z" fill="#FFB713" fill-opacity="0.15"/>
<path d="M652.469 811.539L643.601 809.372L644.827 804.34L652.07 806.11C653.696 806.507 652.913 810.439 652.469 811.539Z" fill="#FFB713" fill-opacity="0.15"/>
<path d="M637.923 803.123C638.287 802.513 641.879 803.544 642.616 803.8C644.244 804.364 643.869 804.645 643.438 806.196C642.597 806.127 640.39 805.049 639.785 805.777C639.5 806.276 640.089 806.472 640.435 806.631C641.301 807.026 642.248 807.13 643.15 807.38L642.274 809.047L636.805 807.711L637.923 803.123Z" fill="#FFB713" fill-opacity="0.15"/>
<path d="M1349.61 273.841L1344.29 270.263C1344.14 269.369 1344.06 267.043 1344.41 266.28C1345.65 263.588 1348.6 260.58 1350.08 257.896L1359.32 255.608L1359.6 255.315L1358.5 252.596L1361.31 253.469L1365.07 248.67C1365.98 249.991 1367.09 251.35 1367.28 253.01C1367.16 253.265 1365.17 253.357 1364.63 253.547C1364.16 253.71 1362.6 254.531 1362.39 254.841L1349.61 273.845L1349.61 273.841ZM1351.74 258.892C1350.59 258.528 1349.2 260.376 1350.26 261.471C1352.29 263.578 1354.62 259.796 1351.74 258.892ZM1347.54 264.275C1347.85 266.35 1351.27 265.89 1350.63 263.596C1350.09 261.651 1347.24 262.301 1347.54 264.275ZM1348.38 267.191C1347.98 265.188 1344.75 265.82 1345.14 267.824C1345.54 269.828 1348.78 269.279 1348.38 267.191Z" fill="#FFB713" fill-opacity="0.15"/>
<path d="M1347.25 244.898C1347.55 244.28 1347.7 242.748 1347.66 242.032C1347.61 241.084 1347.17 240.398 1347.21 239.51C1347.79 238.912 1351.22 239.692 1352.07 239.922L1349.03 245.21L1350.9 247.485L1347.98 247.505L1347.73 247.88L1349.17 257.283L1343.55 265.705C1342.88 266.04 1340.33 267.596 1339.73 267.198L1334.58 263.733L1347.25 244.898ZM1343.91 261.173L1339.52 258.22L1336.73 262.359C1336.7 262.408 1336.64 263.402 1336.68 263.542C1336.85 264.146 1339.01 265.653 1339.61 265.84C1339.8 265.897 1340.86 265.702 1340.9 265.65L1343.91 261.173Z" fill="#FFB713" fill-opacity="0.15"/>
<path d="M1363.01 255.742C1363.97 254.665 1365.72 254.257 1367.1 254.209C1367.49 254.391 1367.28 254.39 1367.22 254.62C1367.17 254.811 1366.88 255.816 1366.84 255.87L1358.5 268.286L1355.79 266.469L1363.01 255.742Z" fill="#FFB713" fill-opacity="0.15"/>
<path d="M1339.08 255.226L1336.38 253.409L1344.84 240.824C1344.91 240.716 1345.97 239.812 1346.16 240.124C1346.36 240.435 1346.67 242.24 1346.64 242.67C1346.63 242.931 1346.35 244.404 1346.29 244.499L1339.08 255.226Z" fill="#FFB713" fill-opacity="0.15"/>
<path d="M1352.72 246.981C1353.49 245.334 1353.5 242.21 1354.27 240.725C1354.39 240.494 1354.61 240.229 1354.86 240.33C1355.21 240.468 1355.95 245.51 1356.13 246.247C1355.99 246.551 1353.24 246.941 1352.71 246.982L1352.72 246.981Z" fill="#FFB713" fill-opacity="0.15"/>
<path d="M1358.28 250.726C1358.12 250.225 1357.44 247.526 1357.68 247.284L1363.63 246.229L1363.49 246.933L1358.28 250.723L1358.28 250.726Z" fill="#FFB713" fill-opacity="0.15"/>
<path d="M1362.04 245.154L1357.32 246.148L1356.46 241.406L1362.04 245.154Z" fill="#FFB713" fill-opacity="0.15"/>
<path d="M1350.81 256.005C1350.5 253.434 1352.37 252.094 1354.25 250.711C1353.76 253.045 1353.01 254.836 1350.81 256.005Z" fill="#FFB713" fill-opacity="0.15"/>
<path d="M1351.29 248.724L1349.86 254.138C1349.77 253.187 1348.81 249.608 1348.97 248.955C1349.11 248.378 1351.25 248.598 1351.29 248.722L1351.29 248.724Z" fill="#FFB713" fill-opacity="0.15"/>
<path d="M1360.93 252.225L1359.15 251.777C1358.85 251.66 1358.87 251.618 1359.07 251.385C1359.68 250.7 1362.77 248.637 1363.7 248.048C1363.93 247.903 1364.12 247.605 1364.45 247.759L1360.93 252.225Z" fill="#FFB713" fill-opacity="0.15"/>
<path d="M1351.64 246.75L1350.34 245.097L1353.14 240.152L1351.64 246.75Z" fill="#FFB713" fill-opacity="0.15"/>
<path d="M1357.81 269.3L1355.11 267.483L1353.98 269.172L1356.68 270.989L1357.81 269.3Z" fill="#FFB713" fill-opacity="0.15"/>
<path d="M1338.4 256.241L1335.7 254.424L1334.56 256.113L1337.26 257.93L1338.4 256.241Z" fill="#FFB713" fill-opacity="0.15"/>
<path d="M1356.7 248.548C1356.76 248.77 1356.79 248.982 1356.88 249.197L1356.65 249.446C1354.85 250.44 1354.23 249.893 1354.57 247.899L1356.4 247.513C1356.45 247.874 1356.62 248.202 1356.7 248.55L1356.7 248.548Z" fill="#FFB713" fill-opacity="0.15"/>
<path d="M1354.5 253.086C1355.29 251.766 1354.8 250.939 1356.57 250.615C1356.76 250.58 1356.91 250.305 1357.18 250.726C1357.64 251.421 1355.13 253.039 1354.5 253.087L1354.5 253.086Z" fill="#FFB713" fill-opacity="0.15"/>
<path d="M1353.55 248.281C1353.66 249.918 1353.13 250.106 1352.08 251.212C1351.65 251.022 1351.82 251.012 1351.85 250.742C1351.92 249.939 1352.38 247.513 1353.55 248.28L1353.55 248.281Z" fill="#FFB713" fill-opacity="0.15"/>
<path d="M1349.03 263.395C1349.77 263.267 1349.94 264.899 1348.89 264.519C1348.4 264.344 1348.87 263.425 1349.03 263.395Z" fill="#FFB713" fill-opacity="0.15"/>
<path d="M1346.65 266.943C1346.82 266.905 1347.59 267.581 1347.21 267.928C1346.38 268.676 1345.92 267.106 1346.65 266.943Z" fill="#FFB713" fill-opacity="0.15"/>
<path d="M1352.06 260.306C1351.72 261.755 1350.47 260.918 1351.42 259.849L1352.06 260.306Z" fill="#FFB713" fill-opacity="0.15"/>
<path d="M1341.36 263.139L1340 264.817L1337.78 263.326L1338.83 261.435L1341.36 263.139Z" fill="#FFB713" fill-opacity="0.15"/>
<path d="M1342.5 261.45L1341.96 262.086C1341.5 262.272 1339.94 260.834 1339.39 260.591L1339.96 259.744L1342.5 261.448L1342.5 261.45Z" fill="#FFB713" fill-opacity="0.15"/>
<path d="M1358.27 254.623C1358.27 255.142 1353.31 256.027 1352.58 256.176L1357.34 252.751L1358.27 254.624L1358.27 254.623Z" fill="#FFB713" fill-opacity="0.15"/>
<path d="M1390.86 187.251C1389.97 199.577 1390.29 212.625 1385.11 224.221C1383.64 227.507 1382.89 227.515 1379.61 227.464C1372.63 227.353 1363.34 223.581 1357.54 219.803C1355.68 218.587 1348.44 212.054 1347.94 210.211C1347.18 207.348 1355.29 197.355 1357.57 194.845C1362.69 189.218 1369.19 184.656 1375.09 179.9L1375.7 179.774C1376.97 182.483 1379.28 181.692 1380.86 182.419C1383.06 183.429 1385.69 185.866 1387.37 186.699C1388.58 187.299 1389.7 186.749 1390.85 187.251L1390.86 187.251Z" fill="#FFB713" fill-opacity="0.15"/>
<path d="M1406.69 174.26L1397.81 183.656C1394.85 183.412 1392.93 180.192 1391.13 179.189C1389.58 178.335 1385.75 177.784 1383.8 176.561C1383.05 176.083 1382.81 174.947 1381.39 174.306C1379.46 173.436 1376.25 173.882 1373.97 171.83L1376.04 158.875C1375.4 157.678 1372.41 160.615 1370.6 158.969C1369.93 158.35 1368.43 153.406 1369.03 152.243C1369.57 151.376 1377.24 148.76 1378.62 148.537C1386.98 147.191 1389.77 154.42 1396.27 157.422C1401.75 159.948 1409.8 158.987 1413.21 165.316C1413.82 166.438 1416.6 175.207 1416.33 175.921C1415.71 177.576 1411.44 179.11 1409.85 178.671C1407.36 177.983 1408.54 175.391 1406.69 174.26ZM1403.69 160.539C1399.9 159.747 1396.43 159.001 1393.09 156.895C1391.38 155.815 1390.02 153.936 1388.59 152.966C1387.92 152.514 1387.81 152.529 1387.54 153.315C1386.57 156.188 1390.34 162.092 1392.03 164.484C1395.9 163.882 1401.8 164.75 1403.69 160.547L1403.69 160.539Z" fill="#FFB713" fill-opacity="0.15"/>
<path d="M1374.84 178.635C1366.32 186.115 1356.41 192.969 1350.09 202.631C1349.23 203.939 1348.77 205.537 1347.96 206.729C1347.55 207.329 1347.81 207.659 1346.93 207.067C1345.71 205.254 1345.09 203.778 1345.86 201.613C1347.94 195.834 1355.59 188.474 1360.35 184.522C1361.83 183.287 1369.45 177.439 1370.66 177.106C1372.08 176.721 1373.53 178.12 1374.84 178.635Z" fill="#FFB713" fill-opacity="0.15"/>
<path d="M1395.63 189.162C1396.05 189.85 1395.64 203.447 1395.47 205.282C1394.93 210.995 1393.47 220.349 1389.98 224.894C1389.11 226.035 1387.15 226.083 1385.92 226.638C1384.78 226.307 1385.5 225.858 1385.8 225.144C1390.9 213.072 1391.16 200.833 1391.68 187.952C1391.85 186.541 1395.5 188.953 1395.64 189.164L1395.63 189.162Z" fill="#FFB713" fill-opacity="0.15"/>
<path d="M1380.39 181.329C1373.2 180.776 1377.69 171.233 1382.56 176.659L1380.39 181.329Z" fill="#FFB713" fill-opacity="0.15"/>
<path d="M1389.28 179.559C1395.36 180.738 1390.61 188.881 1387 185.256C1386.21 184.451 1388.28 179.364 1389.28 179.559Z" fill="#FFB713" fill-opacity="0.15"/>
<path d="M1384.4 177.698C1385.2 177.813 1387.32 178.845 1387.44 179.68L1385.19 183.57L1381.77 181.561C1382 180.362 1383 177.49 1384.4 177.698Z" fill="#FFB713" fill-opacity="0.15"/>
<path d="M1397.51 185.435L1395.87 187.77L1392.03 186.093L1393.66 182.842L1397.51 185.435Z" fill="#FFB713" fill-opacity="0.15"/>
<path d="M1376.95 174.452L1375.31 177.709L1371.55 175.279C1371.4 174.33 1372.3 173.29 1373.21 173.108L1376.95 174.452Z" fill="#FFB713" fill-opacity="0.15"/>
<path d="M1398.49 207.947L1396.86 215.846C1395.46 215.422 1396.21 215.186 1396.32 214.305C1396.58 212.267 1397.32 210.234 1397.33 208.137L1398.49 207.95L1398.49 207.947Z" fill="#FFB713" fill-opacity="0.15"/>
<path d="M1398.5 205.625L1397.81 205.281C1397.33 204.425 1397.5 203.871 1398.04 203.078L1398.84 204.938L1398.5 205.625Z" fill="#FFB713" fill-opacity="0.15"/>
<path d="M1377 146.562L1377.72 145.248L1379.31 145.398C1379.45 146.071 1377.68 146.727 1377 146.562Z" fill="#FFB713" fill-opacity="0.15"/>
<path fill-rule="evenodd" clip-rule="evenodd" d="M1383.46 146.442C1383.19 146.045 1383.08 145.672 1383.06 145.436C1383.06 145.435 1383.06 145.435 1383.06 145.435C1381.92 145.247 1381 145.374 1380.71 146.104C1381.7 145.987 1382.61 146.146 1383.46 146.442Z" fill="#FFB713" fill-opacity="0.15"/>
<path d="M1326.14 192.291C1326.96 193.147 1325.09 196.632 1324.83 197.889C1323.92 202.376 1325.73 205.175 1325.83 209.515C1325.9 212.837 1325.07 215.686 1324.94 218.657C1324.88 220.021 1325.92 226.401 1325.46 226.972L1315.1 228.749C1314.46 228.464 1313.7 222.376 1313.1 221.179C1310.92 216.801 1307.94 227.71 1306.96 227.924L1297.17 224.11C1296.91 223.621 1299.1 217.551 1299.32 216.346C1300.05 212.324 1299.64 207.735 1301.2 203.633C1302.42 200.415 1303.62 199.931 1303.66 195.713C1303.67 194.464 1302.76 191.188 1303.2 190.463C1303.53 189.932 1306.97 189.059 1307.4 189.325C1308.13 189.777 1307.69 191.72 1307.89 192.776C1309 198.886 1319.36 199.654 1321.41 194C1321.76 193.042 1321.5 191.207 1322.43 190.847C1322.72 190.73 1325.98 192.114 1326.14 192.289L1326.14 192.291ZM1311.13 201.487C1306.85 197.713 1302.54 203.074 1305.21 206.314C1305.49 206.649 1306.31 206.99 1306.38 207.147C1306.56 207.552 1306.18 208.787 1306.23 209.441C1306.68 215.777 1314.76 218.179 1318.54 213.019C1319.67 211.474 1319.55 208.844 1319.83 208.497C1320.04 208.226 1321.61 208.297 1322.17 206.517C1323.16 203.368 1320.99 200.668 1317.68 201.335C1316.88 201.496 1316.2 202.581 1315.68 202.649C1315.33 202.695 1314.18 202.242 1313.53 202.17C1312.93 202.103 1311.92 202.376 1311.6 202.25C1311.28 202.124 1311.28 201.632 1311.12 201.49L1311.13 201.487Z" fill="#FFB713" fill-opacity="0.15"/>
<path d="M1328.16 194.131C1328.68 194.039 1329.05 194.583 1329.4 194.856C1330.17 195.449 1334.56 199.478 1334.65 200.034C1334.77 200.785 1331.4 206.627 1330.75 206.684L1327.13 205.389C1325.26 201.991 1325.8 197.147 1328.16 194.127L1328.16 194.131Z" fill="#FFB713" fill-opacity="0.15"/>
<path d="M1300.65 191.364C1301.84 191.169 1301.95 193.358 1302.04 194.226C1302.28 196.402 1302.17 198.059 1301.39 200.121C1300.19 203.308 1299.11 202.675 1296.07 203.199C1295.58 203.022 1294.74 200.326 1294.51 199.614C1294.24 198.817 1293.35 196.472 1293.57 195.88C1293.72 195.488 1300.23 191.434 1300.65 191.367L1300.65 191.364Z" fill="#FFB713" fill-opacity="0.15"/>
<path d="M1320.42 190.842C1320.51 193.452 1318.89 196.146 1316.09 196.243C1312.56 196.365 1308.88 195.129 1309.19 190.915C1309.38 188.381 1311.9 190.376 1313.58 190.683C1314.45 190.845 1315.72 190.95 1316.62 190.946C1317.4 190.944 1320.11 190.22 1320.42 190.842Z" fill="#FFB713" fill-opacity="0.15"/>
<path d="M1325.68 230.371C1322.88 230.565 1319.33 231.876 1316.63 231.964C1315.53 232.001 1315.22 231.525 1315.71 230.503C1316.01 230.149 1323.81 228.706 1324.7 228.672C1325.99 228.621 1325.95 229.274 1325.68 230.371Z" fill="#FFB713" fill-opacity="0.15"/>
<path d="M1296.86 225.824C1297.71 225.646 1304.74 228.93 1306 229.528C1306.25 230.324 1306.05 230.986 1305.1 230.799C1304.06 230.597 1297.91 228.249 1296.98 227.707C1296.16 227.229 1295.98 226.007 1296.86 225.826L1296.86 225.824Z" fill="#FFB713" fill-opacity="0.15"/>
<path d="M1313.2 203.621C1319.79 203.782 1319.98 214.035 1313.42 214.24C1305.84 214.479 1306.08 203.448 1313.2 203.621ZM1310.66 205.85C1309.77 206.029 1310.39 207.298 1311.02 207.251C1312.01 207.182 1312.14 205.546 1310.66 205.85ZM1314.96 206.27C1314.77 206.415 1314.8 207.83 1315.5 207.728C1317.02 207.507 1315.77 205.641 1314.96 206.27ZM1311.09 211.972C1313.36 214.515 1316.84 210.502 1314.3 208.719C1311.75 206.935 1309.44 210.121 1311.09 211.972Z" fill="#FFB713" fill-opacity="0.15"/>
<path d="M1307.14 205.76C1304.42 204.538 1306.68 200.346 1309.42 201.988C1311.18 203.045 1307.07 204.283 1307.14 205.76Z" fill="#FFB713" fill-opacity="0.15"/>
<path d="M1319.38 207C1319.33 206.33 1318.96 205.504 1318.58 204.969C1318.07 204.247 1316.28 203.391 1317.9 202.847C1320.94 201.828 1322.34 206.275 1319.38 207Z" fill="#FFB713" fill-opacity="0.15"/>
<path d="M1313.47 209.774C1314.19 210.421 1312.98 211.739 1312.23 211.045C1311.6 210.46 1312.92 209.273 1313.47 209.774Z" fill="#FFB713" fill-opacity="0.15"/>
<path d="M915.185 61.926L911.916 59.7274C911.825 59.1781 911.771 57.7485 911.987 57.2799C912.751 55.6251 914.561 53.7767 915.475 52.1272L921.15 50.7212L921.324 50.5415L920.649 48.8703L922.376 49.4069L924.683 46.4574C925.243 47.2696 925.927 48.1046 926.043 49.1249C925.972 49.2815 924.744 49.3381 924.413 49.4546C924.127 49.5547 923.165 50.0598 923.037 50.2501L915.184 61.9289L915.185 61.926ZM916.495 52.7395C915.784 52.5155 914.935 53.6517 915.583 54.3247C916.829 55.6194 918.264 53.295 916.495 52.7395ZM913.911 56.0474C914.103 57.3225 916.202 57.0398 915.81 55.6302C915.479 54.4352 913.728 54.8346 913.911 56.0474ZM914.425 57.8395C914.185 56.6087 912.199 56.997 912.44 58.2285C912.681 59.4601 914.675 59.1227 914.425 57.8395Z" fill="#FFB713" fill-opacity="0.15"/>
<path d="M913.733 44.1398C913.918 43.76 914.012 42.8185 913.988 42.3782C913.956 41.7959 913.682 41.3745 913.711 40.8289C914.065 40.4609 916.173 40.9408 916.693 41.082L914.83 44.3313L915.979 45.7294L914.181 45.7419L914.031 45.9722L914.915 51.7506L911.459 56.9261C911.046 57.132 909.479 58.0886 909.115 57.8436L905.95 55.7148L913.733 44.1398ZM911.68 54.1413L908.982 52.3266L907.272 54.8699C907.251 54.9002 907.216 55.5109 907.239 55.5973C907.343 55.9685 908.673 56.8946 909.042 57.0092C909.155 57.0443 909.808 56.9247 909.83 56.8923L911.68 54.1413Z" fill="#FFB713" fill-opacity="0.15"/>
<path d="M923.416 50.8039C924.01 50.1419 925.083 49.8913 925.935 49.8614C926.174 49.9733 926.041 49.9732 926.005 50.1143C925.977 50.2317 925.797 50.849 925.774 50.8825L920.644 58.5126L918.984 57.3959L923.416 50.8039Z" fill="#FFB713" fill-opacity="0.15"/>
<path d="M908.712 50.4867L907.051 49.3699L912.251 41.636C912.296 41.57 912.946 41.0146 913.066 41.2059C913.187 41.3972 913.377 42.5063 913.361 42.7705C913.352 42.9309 913.183 43.8363 913.144 43.8947L908.712 50.4867Z" fill="#FFB713" fill-opacity="0.15"/>
<path d="M917.093 45.4201C917.568 44.4078 917.572 42.488 918.046 41.5755C918.119 41.4334 918.257 41.2702 918.41 41.3323C918.623 41.4173 919.083 44.5157 919.191 44.9686C919.108 45.1558 917.413 45.3949 917.091 45.4204L917.093 45.4201Z" fill="#FFB713" fill-opacity="0.15"/>
<path d="M920.514 47.7212C920.417 47.4136 919.998 45.7549 920.141 45.6058L923.803 44.9577L923.713 45.3903L920.514 47.7193L920.514 47.7212Z" fill="#FFB713" fill-opacity="0.15"/>
<path d="M922.82 44.2968L919.923 44.9078L919.396 41.9935L922.82 44.2968Z" fill="#FFB713" fill-opacity="0.15"/>
<path d="M915.923 50.9653C915.731 49.3852 916.881 48.5617 918.037 47.7119C917.735 49.1465 917.274 50.247 915.923 50.9653Z" fill="#FFB713" fill-opacity="0.15"/>
<path d="M916.219 46.4907L915.338 49.818C915.282 49.2338 914.695 47.0345 914.791 46.6326C914.876 46.278 916.191 46.4136 916.218 46.49L916.219 46.4907Z" fill="#FFB713" fill-opacity="0.15"/>
<path d="M922.138 48.6422L921.047 48.3669C920.861 48.2953 920.874 48.2694 921 48.1264C921.371 47.7053 923.269 46.4377 923.843 46.0753C923.985 45.9866 924.102 45.8031 924.303 45.8979L922.138 48.6422Z" fill="#FFB713" fill-opacity="0.15"/>
<path d="M916.434 45.2779L915.635 44.2618L917.353 41.2229L916.434 45.2779Z" fill="#FFB713" fill-opacity="0.15"/>
<path d="M920.225 59.1353L918.565 58.0186L917.867 59.0567L919.527 60.1735L920.225 59.1353Z" fill="#FFB713" fill-opacity="0.15"/>
<path d="M908.294 51.1103L906.634 49.9935L905.936 51.0316L907.596 52.1484L908.294 51.1103Z" fill="#FFB713" fill-opacity="0.15"/>
<path d="M919.543 46.383C919.575 46.5194 919.598 46.6492 919.65 46.7817L919.513 46.9344C918.402 47.5455 918.023 47.2094 918.235 45.9839L919.358 45.7469C919.387 45.9686 919.493 46.1703 919.542 46.3841L919.543 46.383Z" fill="#FFB713" fill-opacity="0.15"/>
<path d="M918.187 49.1715C918.675 48.3606 918.376 47.852 919.463 47.6532C919.578 47.6316 919.668 47.4628 919.839 47.7211C920.122 48.1483 918.579 49.1427 918.189 49.1722L918.187 49.1715Z" fill="#FFB713" fill-opacity="0.15"/>
<path d="M917.606 46.219C917.672 47.2247 917.346 47.3401 916.699 48.0199C916.437 47.9033 916.542 47.8968 916.558 47.7313C916.604 47.2378 916.887 45.7467 917.607 46.2179L917.606 46.219Z" fill="#FFB713" fill-opacity="0.15"/>
<path d="M914.83 55.5067C915.283 55.4283 915.385 56.4308 914.739 56.1977C914.441 56.0899 914.727 55.5251 914.83 55.5067Z" fill="#FFB713" fill-opacity="0.15"/>
<path d="M913.365 57.6868C913.468 57.6637 913.945 58.079 913.709 58.2924C913.199 58.752 912.916 57.7869 913.365 57.6868Z" fill="#FFB713" fill-opacity="0.15"/>
<path d="M916.692 53.6087C916.481 54.4988 915.714 53.9844 916.295 53.3278L916.692 53.6087Z" fill="#FFB713" fill-opacity="0.15"/>
<path d="M910.114 55.3494L909.279 56.3805L907.917 55.4644L908.557 54.3024L910.114 55.3494Z" fill="#FFB713" fill-opacity="0.15"/>
<path d="M910.812 54.3114L910.483 54.7026C910.197 54.8168 909.24 53.933 908.906 53.7835L909.256 53.2633L910.812 54.3103L910.812 54.3114Z" fill="#FFB713" fill-opacity="0.15"/>
<path d="M920.504 50.116C920.509 50.4351 917.458 50.9787 917.01 51.0702L919.933 48.9659L920.505 50.1167L920.504 50.116Z" fill="#FFB713" fill-opacity="0.15"/>
<path d="M940.533 8.71367C939.988 16.288 940.18 24.3068 936.998 31.4325C936.096 33.4518 935.632 33.4571 933.62 33.4259C929.33 33.3572 923.623 31.0397 920.058 28.7178C918.911 27.9706 914.465 23.9557 914.159 22.8229C913.687 21.0635 918.675 14.9225 920.074 13.3801C923.22 9.92216 927.218 7.1187 930.843 4.19566L931.217 4.11882C931.996 5.78347 933.416 5.29747 934.387 5.74377C935.742 6.36472 937.354 7.86244 938.389 8.3743C939.13 8.74289 939.821 8.40464 940.526 8.71366L940.533 8.71367Z" fill="#FFB713" fill-opacity="0.15"/>
<path d="M950.26 0.730126L944.802 6.50439C942.983 6.35446 941.806 4.37528 940.698 3.75916C939.748 3.23403 937.391 2.89583 936.197 2.14419C935.731 1.85039 935.586 1.15233 934.712 0.758251C933.529 0.223857 931.553 0.497756 930.154 -0.763068L931.425 -8.72471C931.035 -9.46032 929.195 -7.65513 928.084 -8.66705C927.668 -9.04708 926.748 -12.0853 927.118 -12.8005C927.452 -13.3327 932.163 -14.9403 933.01 -15.0774C938.148 -15.9047 939.863 -11.4622 943.857 -9.61737C947.224 -8.06504 952.172 -8.65604 954.269 -4.7665C954.642 -4.07704 956.351 1.31179 956.186 1.75049C955.802 2.76769 953.178 3.71024 952.204 3.441C950.671 3.01769 951.4 1.42516 950.26 0.730126ZM948.415 -7.70175C946.087 -8.18869 943.958 -8.64708 941.906 -9.94158C940.851 -10.6052 940.02 -11.7596 939.136 -12.3561C938.724 -12.6334 938.66 -12.6246 938.496 -12.1412C937.896 -10.3759 940.214 -6.74792 941.251 -5.27782C943.629 -5.64786 947.258 -5.1144 948.416 -7.69728L948.415 -7.70175Z" fill="#FFB713" fill-opacity="0.15"/>
<path d="M930.69 3.41886C925.45 8.01499 919.365 12.2275 915.477 18.1647C914.951 18.9689 914.666 19.9506 914.168 20.6834C913.916 21.0521 914.075 21.2547 913.536 20.8908C912.785 19.7767 912.403 18.87 912.881 17.539C914.157 13.9876 918.861 9.46513 921.781 7.03656C922.694 6.27754 927.378 2.68349 928.121 2.47923C928.991 2.24241 929.881 3.10225 930.69 3.41886Z" fill="#FFB713" fill-opacity="0.15"/>
<path d="M943.465 9.88741C943.721 10.3104 943.473 18.6663 943.368 19.794C943.035 23.3051 942.137 29.0532 939.995 31.846C939.457 32.5475 938.255 32.577 937.496 32.9181C936.794 32.7147 937.238 32.4386 937.424 32C940.556 24.5811 940.717 17.0598 941.035 9.14439C941.139 8.27707 943.388 9.75934 943.468 9.8889L943.465 9.88741Z" fill="#FFB713" fill-opacity="0.15"/>
<path d="M934.098 5.07378C929.683 4.73411 932.44 -1.13041 935.434 2.20395L934.098 5.07378Z" fill="#FFB713" fill-opacity="0.15"/>
<path d="M939.564 3.98655C943.298 4.71062 940.377 9.71487 938.164 7.48718C937.675 6.99248 938.946 3.86662 939.564 3.98655Z" fill="#FFB713" fill-opacity="0.15"/>
<path d="M936.565 2.84241C937.054 2.91305 938.355 3.5473 938.429 4.06075L937.05 6.4514L934.946 5.21634C935.088 4.48001 935.703 2.71469 936.565 2.84241Z" fill="#FFB713" fill-opacity="0.15"/>
<path d="M944.622 7.59766L943.615 9.03209L941.252 8.002L942.255 6.00363L944.622 7.59766Z" fill="#FFB713" fill-opacity="0.15"/>
<path d="M931.984 0.847861L930.979 2.8492L928.666 1.35642C928.571 0.77301 929.13 0.133988 929.685 0.021704L931.984 0.847861Z" fill="#FFB713" fill-opacity="0.15"/>
<path d="M945.222 21.432L944.219 26.2858C943.36 26.0256 943.819 25.8805 943.89 25.3389C944.05 24.0863 944.506 22.8371 944.512 21.5485L945.225 21.4335L945.222 21.432Z" fill="#FFB713" fill-opacity="0.15"/>
<path d="M945.227 20.0051L944.805 19.7932C944.507 19.2675 944.615 18.9269 944.949 18.4393L945.439 19.5828L945.227 20.0051Z" fill="#FFB713" fill-opacity="0.15"/>
<path d="M900.76 11.8105C901.265 12.3367 900.114 14.4783 899.956 15.2505C899.398 18.0081 900.511 19.7277 900.57 22.3949C900.617 24.4365 900.103 26.1874 900.023 28.0129C899.987 28.8513 900.624 32.7718 900.343 33.1231L893.98 34.215C893.582 34.0397 893.114 30.2983 892.75 29.5632C891.411 26.8725 889.578 33.5766 888.975 33.708L882.956 31.3639C882.801 31.0639 884.145 27.3332 884.28 26.5929C884.729 24.1211 884.475 21.301 885.434 18.78C886.185 16.803 886.922 16.5052 886.948 13.9131C886.955 13.1456 886.392 11.1326 886.667 10.6872C886.869 10.3604 888.983 9.82423 889.247 9.98773C889.696 10.2653 889.425 11.4596 889.543 12.1085C890.231 15.8633 896.598 16.3354 897.855 12.8604C898.068 12.2719 897.91 11.144 898.48 10.9228C898.661 10.8512 900.66 11.7014 900.762 11.809L900.76 11.8105ZM891.535 17.4618C888.906 15.1425 886.259 18.4371 887.899 20.4278C888.07 20.6341 888.572 20.8433 888.617 20.9395C888.732 21.1887 888.495 21.9474 888.524 22.3498C888.805 26.2434 893.768 27.7194 896.092 24.5486C896.787 23.5988 896.714 21.9827 896.883 21.7695C897.015 21.603 897.976 21.6464 898.319 20.5529C898.928 18.6172 897.594 16.9581 895.565 17.3679C895.071 17.4673 894.654 18.134 894.335 18.1755C894.118 18.2039 893.412 17.9255 893.014 17.8815C892.642 17.8403 892.021 18.0077 891.825 17.9303C891.63 17.8529 891.632 17.5508 891.531 17.4632L891.535 17.4618Z" fill="#FFB713" fill-opacity="0.15"/>
<path d="M902.006 12.9408C902.323 12.8847 902.55 13.219 902.766 13.3867C903.239 13.7512 905.936 16.2268 905.991 16.5689C906.067 17.0299 903.993 20.6203 903.596 20.6556L901.367 19.8594C900.221 17.7712 900.555 14.7947 902.004 12.9388L902.006 12.9408Z" fill="#FFB713" fill-opacity="0.15"/>
<path d="M885.096 11.2409C885.828 11.1206 885.894 12.4661 885.954 12.9993C886.099 14.3366 886.03 15.3552 885.552 16.6222C884.815 18.5809 884.152 18.1916 882.284 18.5134C881.978 18.4051 881.467 16.7482 881.322 16.3107C881.16 15.821 880.608 14.3796 880.747 14.0159C880.84 13.7752 884.842 11.2835 885.098 11.2428L885.096 11.2409Z" fill="#FFB713" fill-opacity="0.15"/>
<path d="M897.244 10.9201C897.303 12.5239 896.306 14.1791 894.585 14.2387C892.415 14.3141 890.154 13.5542 890.348 10.9648C890.465 9.40756 892.013 10.6332 893.041 10.8219C893.58 10.9214 894.359 10.986 894.908 10.984C895.39 10.9825 897.056 10.5376 897.244 10.9201Z" fill="#FFB713" fill-opacity="0.15"/>
<path d="M900.478 35.2115C898.759 35.3307 896.575 36.1368 894.918 36.1904C894.239 36.2134 894.053 35.921 894.354 35.293C894.534 35.0755 899.33 34.1883 899.874 34.1678C900.667 34.1365 900.644 34.5373 900.478 35.2115Z" fill="#FFB713" fill-opacity="0.15"/>
<path d="M882.767 32.4172C883.288 32.3081 887.613 34.326 888.385 34.6939C888.541 35.1829 888.415 35.5894 887.831 35.4745C887.195 35.3506 883.412 33.9077 882.842 33.5746C882.341 33.281 882.228 32.53 882.766 32.419L882.767 32.4172Z" fill="#FFB713" fill-opacity="0.15"/>
<path d="M892.806 18.7728C896.856 18.8717 896.975 25.1725 892.943 25.2986C888.284 25.4457 888.435 18.6666 892.806 18.7728ZM891.248 20.1427C890.703 20.253 891.082 21.0328 891.47 21.0037C892.081 20.9612 892.159 19.9561 891.248 20.1427ZM893.888 20.401C893.773 20.4901 893.792 21.3594 894.225 21.2971C895.158 21.1613 894.388 20.0144 893.888 20.401ZM891.514 23.9051C892.908 25.4678 895.047 23.0016 893.483 21.9057C891.92 20.8099 890.5 22.7678 891.514 23.9051Z" fill="#FFB713" fill-opacity="0.15"/>
<path d="M889.083 20.0872C887.412 19.3368 888.803 16.7607 890.485 17.7695C891.569 18.4191 889.04 19.1796 889.083 20.0872Z" fill="#FFB713" fill-opacity="0.15"/>
<path d="M896.607 20.8492C896.579 20.4378 896.348 19.9304 896.117 19.6011C895.804 19.1574 894.7 18.6317 895.698 18.2974C897.564 17.6713 898.428 20.4038 896.607 20.8492Z" fill="#FFB713" fill-opacity="0.15"/>
<path d="M892.977 22.5544C893.415 22.9515 892.676 23.762 892.214 23.3355C891.824 22.9757 892.638 22.2465 892.977 22.5544Z" fill="#FFB713" fill-opacity="0.15"/>
<g clip-path="url(#clip2_1_7)">
<path d="M1370.8 802.818C1373.4 803.023 1377.11 803.888 1379 805.758C1382.38 809.096 1376.97 810.365 1374.28 810.128C1371.79 809.909 1366.32 808.619 1365.27 806.037C1364.11 803.211 1368.93 802.673 1370.8 802.822L1370.8 802.818Z" fill="#FFB713" fill-opacity="0.15"/>
</g>
<g clip-path="url(#clip3_1_7)">
<path d="M576.668 48.2751C576.62 48.3764 575.526 48.4409 575.493 49.2476C576.987 53.7637 579.048 59.0517 573.94 62.0898C570.064 64.3948 560.007 62.7443 557.427 58.8783C555.998 56.7405 556.466 53.1174 552.869 55.8668C556.376 61.5367 548.279 70.2334 543.34 71.58C536.516 73.4419 534.402 66.8525 532.987 61.6421L531.252 60.9924C531.399 60.195 532.439 60.2532 532.733 59.8927C532.877 59.7153 532.784 58.7137 533.041 58.1634C533.783 56.5759 535.524 55.2163 537.113 54.5296C546.388 50.5308 558.429 48.9542 567.992 45.1922C569.4 44.8598 571.705 45.0186 572.989 45.6503C573.846 46.071 574.103 46.7429 574.592 47.0023C575.013 47.2226 577.212 47.1334 576.672 48.274L576.668 48.2751ZM555.823 50.7591L550.611 52.3257L551.97 54.1257L555.331 53.4507L555.823 50.7591ZM539.049 57.3156C538.827 57.4416 536.654 61.5771 536.607 61.8278C536.476 62.5337 536.753 62.5096 537.285 62.7678C538.031 62.6895 540.519 58.408 540.073 57.5836L539.049 57.3156ZM545.123 55.49C544.375 55.5492 544.243 55.924 543.87 56.4148C543.255 57.2306 540.932 61.5493 540.59 62.5117C540.386 63.0935 540.146 63.4102 540.509 64.0661C541.38 63.97 541.618 63.646 542.115 63.0394C542.4 62.6894 545.19 57.4968 545.269 57.1694C545.428 56.5181 545.41 56.1054 545.124 55.4936L545.123 55.49ZM562.491 50.2689C561.779 49.8679 559.453 54.2152 559.281 54.8266C559.173 55.2141 559.489 55.9474 559.683 56.0309C560.443 56.3508 563.704 50.9535 562.491 50.2689ZM567.703 48.7023C566.955 48.7614 566.824 49.1363 566.45 49.6271C565.666 50.6673 563.72 54.4427 563.19 55.7341C562.578 57.2155 563.617 57.546 564.569 56.4749C564.811 56.2049 567.768 50.7138 567.849 50.378C568.008 49.7268 567.99 49.3141 567.703 48.7023Z" fill="#FFB713" fill-opacity="0.15"/>
<path d="M601.524 88.9141C601.545 90.4699 600.695 90.7709 599.428 91.1358C598.879 92.5176 600.676 92.6665 600.565 93.8467C600.412 95.4739 597.852 94.836 598.521 96.526C598.672 96.9141 599.578 97.192 599.659 97.8363C599.942 100.104 597.856 98.9625 596.931 99.2737C596.607 99.3828 593.768 102.701 592.776 103.359C584.367 108.957 572.322 104.223 569.912 94.4492C565.768 77.6898 588.862 67.7082 597.979 84.2345C599.135 86.3306 598.552 88.1867 601.529 88.9108L601.524 88.9141ZM594.051 84.5938C586.157 72.1457 567.17 84.1773 574.752 96.7413C582.331 109.3 602.295 97.5916 594.051 84.5938Z" fill="#FFB713" fill-opacity="0.15"/>
<path d="M587.761 67.8755C586.066 72.2945 590.325 73.1771 590.528 68.4488L594.652 69.6771C595.58 70.7804 594.041 74.2778 593.965 75.762C590.161 73.4912 586.095 72.6488 581.702 73.2211C582.649 68.6128 582.05 65.8628 587.765 67.8764L587.761 67.8755Z" fill="#FFB713" fill-opacity="0.15"/>
<path d="M587.23 108.201C586.285 112.793 586.885 115.564 581.17 113.546L581.582 110.714C579.279 108.771 578.746 110.805 578.403 112.973C572.357 112.554 574.009 110.253 574.966 105.66C578.741 108.006 582.816 108.95 587.23 108.201Z" fill="#FFB713" fill-opacity="0.15"/>
<path d="M569.685 101.265C570.08 100.978 572.647 103.714 572.713 104.226C572.957 106.159 571.962 109.172 569.995 106.693C568.702 105.067 569.234 103.127 569.685 101.265Z" fill="#FFB713" fill-opacity="0.15"/>
<path d="M593.824 106.267C593.496 108.158 593.213 110.145 591.38 111.124C588.589 112.612 588.873 109.461 589.867 107.78C590.105 107.383 593.653 105.952 593.824 106.267Z" fill="#FFB713" fill-opacity="0.15"/>
<path d="M579.81 70.358C579.787 73.4304 578.08 75.1523 575.102 75.1585C575.54 72.5504 576.523 69.1398 579.81 70.358Z" fill="#FFB713" fill-opacity="0.15"/>
<path d="M599.242 80.1599C596.489 78.7086 595.607 76.9058 596.832 73.8848C600.32 74.1132 600.007 77.5723 599.242 80.1599Z" fill="#FFB713" fill-opacity="0.15"/>
<path d="M584.283 82.1101C594.033 82.4627 596.4 94.9949 587.955 98.6301C579.369 102.326 571.606 91.5684 578.404 84.6138C579.846 83.1376 582.194 82.0384 584.283 82.1101ZM585.16 92.0386C588.3 87.9963 584.914 82.0732 583.323 89.2428L580.994 88.8204C578.6 91.7968 583.033 91.5334 585.16 92.0386Z" fill="#FFB713" fill-opacity="0.15"/>
<path d="M542.384 117.328L544.098 121.43L549.9 119.437L548.727 115.149L556.223 112.573C555.784 119.71 556.982 126.44 560.847 132.568L543.552 138.51C543.054 133.718 541.763 129.662 539.201 125.566C537.955 123.574 536.155 121.935 535.18 119.803L542.387 117.327L542.384 117.328ZM553.413 121.27C553.162 121.46 552.689 121.197 552.593 121.23L543.079 124.499C542.983 124.532 542.772 125.03 542.457 125.034L544.489 130.94C544.568 131.168 546.46 131.853 546.948 131.8C548.139 131.669 552.05 130.261 553.268 129.712C554.036 129.367 555.748 128.065 555.442 127.177L553.41 121.271L553.413 121.27Z" fill="#FFB713" fill-opacity="0.15"/>
<path d="M534.231 121.74C538.068 126.878 541.885 132.573 541.376 139.254C538.933 139.308 536.636 138.205 535.574 135.939C534.394 133.415 533.932 125.467 533.794 122.363C533.773 121.901 533.456 121.919 534.232 121.743L534.231 121.74Z" fill="#FFB713" fill-opacity="0.15"/>
<path d="M558.065 113.232L564.513 122.855C566.238 126.356 566.346 129.363 563.017 131.819C558.615 126.697 557.886 119.74 558.062 113.233L558.065 113.232Z" fill="#FFB713" fill-opacity="0.15"/>
<path d="M539.079 110.202C538.041 112.327 538.614 114.325 539.483 116.392L537.75 116.987C533.595 109.781 541.781 101.767 548.789 106.42C550.378 107.474 554.446 112.61 550.468 112.312C549.778 111.234 549.76 110.109 548.95 109.035C546.434 105.695 540.862 106.55 539.076 110.203L539.079 110.202Z" fill="#FFB713" fill-opacity="0.15"/>
<path d="M546.997 115.743L544.111 116.735L545.004 119.33L547.891 118.339L546.997 115.743Z" fill="#FFB713" fill-opacity="0.15"/>
<path d="M547.658 125.197C548.395 127.437 550.211 126.809 549.415 124.593L552.281 123.592L553.45 127.401C553.287 127.981 546.554 130.227 546.102 129.859L544.785 126.167L547.661 125.196L547.658 125.197Z" fill="#FFB713" fill-opacity="0.15"/>
</g>
<path d="M376.876 197.253C376.209 196.976 374.754 196.331 374.265 195.975C374.006 195.787 373.906 195.679 373.903 195.586C370.078 197.383 363.222 201.122 363.04 203.032C363.04 204.181 363.863 206.611 367.152 207.144C370.442 207.678 375.598 207.848 377.765 207.867C381.007 207.774 388.145 207.366 390.768 206.477C394.046 205.366 398.547 204.533 401.159 200.643C403.77 196.753 403.821 189.286 404.326 187.251C404.9 184.936 406.508 180.396 407.326 178.917C408.827 176.583 412.216 171.46 413.772 169.637C415.707 167.37 420.284 161.966 420 158.519C419.998 158.502 419.997 158.485 419.995 158.468C419.729 155.712 416.773 151.578 415.328 149.855C414.203 148.67 411.329 146.121 408.834 145.41C408.829 145.492 408.8 145.574 408.771 145.632L408.604 146.077C407.734 148.8 405.726 154.868 404.659 157.357C403.592 159.846 400.844 171.619 399.603 177.194C398.917 180.695 397.407 189.042 394.339 192.842C390.616 197.454 389.783 197.253 387.894 198.01C387.407 198.205 386.545 198.365 383.766 198.643C381.544 198.865 378.247 197.809 376.876 197.253Z" fill="#FFB713" fill-opacity="0.15"/>
<path d="M367.152 207.144C363.863 206.611 363.04 204.181 363.04 203.032C362.836 204.625 363.307 207.944 366.819 208.478C370.33 209.011 373.839 209.256 375.154 209.311C378.784 209.274 386.111 208.839 386.822 208.756C387.949 208.623 391.268 208.644 396.547 206.144C400.77 204.144 402.344 200.828 402.603 199.42C403.177 196.846 404.122 191.39 404.326 190.252C404.619 188.619 407.897 179.395 409.105 177.805C409.501 177.211 410.42 175.902 411.676 174.249C411.854 174.015 412.039 173.774 412.23 173.527C412.708 172.909 413.225 172.256 413.772 171.582C416.084 168.737 418.291 165.433 419.106 164.136C419.53 163.675 420.299 161.909 420 158.519C420.284 161.966 415.707 167.37 413.772 169.637C412.216 171.46 408.827 176.583 407.326 178.917C406.508 180.396 404.9 184.936 404.326 187.251C403.821 189.286 403.77 196.753 401.159 200.643C398.547 204.533 394.046 205.366 390.768 206.477C388.145 207.366 381.007 207.774 377.765 207.867C375.598 207.848 370.442 207.678 367.152 207.144Z" fill="#FFB713" fill-opacity="0.15"/>
<path d="M389.101 187.974C385.456 195.397 378.432 195.957 375.376 195.309C382.044 198.254 386.949 196.788 387.282 196.621L387.416 196.554C391.364 194.581 393.381 193.573 396.547 184.418C396.995 183.12 399.121 174.916 399.992 170.915C400.77 165.803 403.214 158.468 403.77 156.857C404.215 155.568 406.697 148.652 407.771 145.41C405.771 145.966 403.881 151.634 403.214 152.523C402.681 153.234 398.732 164.229 396.824 169.637C395.769 172.656 392.746 180.55 389.101 187.974Z" fill="#FFB713" fill-opacity="0.15"/>
<path d="M419.106 164.136C418.291 165.433 416.084 168.737 413.772 171.582C413.225 172.256 412.708 172.909 412.23 173.527L412.954 173.367L413.994 173.138C414.439 173.008 415.372 173.004 415.55 174.027C415.847 174.842 416.595 177.183 417.217 180.028C417.839 182.873 418.662 186.955 418.995 188.641L420.662 198.309L422.507 198.087L421.551 192.919L420.662 187.196L419.551 179.583C419.495 178.342 419.329 175.394 419.106 173.527C418.884 171.66 419.199 169.489 419.384 168.637C419.458 168.544 419.718 167.581 420.162 164.469C420.607 161.358 420.236 159.172 419.995 158.468C419.997 158.485 419.999 158.502 420 158.519C420.299 161.909 419.53 163.675 419.106 164.136Z" fill="#FFB713" fill-opacity="0.15"/>
<path d="M412.954 173.367C414.821 174.212 415.791 178.213 415.995 179.861L419.85 198.087L420.662 198.309L418.995 188.641C418.662 186.955 417.839 182.873 417.217 180.028C416.595 177.183 415.847 174.842 415.55 174.027C415.372 173.004 414.439 173.008 413.994 173.138L412.954 173.367Z" fill="#FFB713" fill-opacity="0.15"/>
<path d="M422.274 200.254C422.852 200.165 422.848 199.735 422.774 199.532L422.507 198.087L420.662 198.309L419.85 198.087L420.273 200.087L421.162 200.421C421.292 200.402 421.696 200.343 422.274 200.254Z" fill="#FFB713" fill-opacity="0.15"/>
<path d="M375.376 195.309C378.432 195.957 385.456 195.397 389.101 187.974C392.746 180.55 395.769 172.656 396.824 169.637C398.732 164.229 402.681 153.234 403.214 152.523C403.881 151.634 405.771 145.966 407.771 145.41M375.376 195.309C382.044 198.254 386.949 196.788 387.282 196.621M375.376 195.309L374.987 195.142C374.613 195.01 374.531 194.831 374.265 195.142C374.072 195.366 373.899 195.461 373.903 195.586M407.771 145.41C406.697 148.652 404.215 155.568 403.77 156.857C403.214 158.468 400.77 165.803 399.992 170.915C399.121 174.916 396.995 183.12 396.547 184.418C393.381 193.573 391.364 194.581 387.416 196.554M407.771 145.41C407.993 144.743 408.215 145.077 408.604 145.132C408.794 145.159 408.842 145.284 408.834 145.41M387.282 196.621L387.416 196.554M387.282 196.621C387.327 196.599 387.372 196.576 387.416 196.554M373.903 195.586C373.906 195.679 374.006 195.787 374.265 195.975C374.754 196.331 376.209 196.976 376.876 197.253C378.247 197.809 381.544 198.865 383.766 198.643C386.545 198.365 387.407 198.205 387.894 198.01C389.783 197.253 390.616 197.454 394.339 192.842C397.407 189.042 398.917 180.695 399.603 177.194C400.844 171.619 403.592 159.846 404.659 157.357C405.726 154.868 407.734 148.8 408.604 146.077L408.771 145.632C408.8 145.574 408.829 145.492 408.834 145.41M373.903 195.586C370.078 197.383 363.222 201.122 363.04 203.032M363.04 203.032C363.04 204.181 363.863 206.611 367.152 207.144C370.442 207.678 375.598 207.848 377.765 207.867C381.007 207.774 388.145 207.366 390.768 206.477C394.046 205.366 398.547 204.533 401.159 200.643C403.77 196.753 403.821 189.286 404.326 187.251C404.9 184.936 406.508 180.396 407.326 178.917C408.827 176.583 412.216 171.46 413.772 169.637C415.707 167.37 420.284 161.966 420 158.519M363.04 203.032C362.836 204.625 363.307 207.944 366.819 208.478C370.33 209.011 373.839 209.256 375.154 209.311C378.784 209.274 386.111 208.839 386.822 208.756C387.949 208.623 391.268 208.644 396.547 206.144C400.77 204.144 402.344 200.828 402.603 199.42C403.177 196.846 404.122 191.39 404.326 190.252C404.619 188.619 407.897 179.395 409.105 177.805C409.501 177.211 410.42 175.902 411.676 174.249M419.995 158.468C419.729 155.712 416.773 151.578 415.328 149.855C414.203 148.67 411.329 146.121 408.834 145.41M419.995 158.468C420.236 159.172 420.607 161.358 420.162 164.469C419.718 167.581 419.458 168.544 419.384 168.637C419.199 169.489 418.884 171.66 419.106 173.527C419.329 175.394 419.495 178.342 419.551 179.583L420.662 187.196L421.551 192.919L422.507 198.087M419.995 158.468C419.997 158.485 419.998 158.502 420 158.519M419.995 158.468C419.997 158.485 419.999 158.502 420 158.519M412.954 173.367C414.821 174.212 415.791 178.213 415.995 179.861L419.85 198.087M412.954 173.367L411.676 174.249M412.954 173.367L412.23 173.527M412.954 173.367L413.994 173.138M411.676 174.249C411.854 174.015 412.039 173.774 412.23 173.527M412.23 173.527C412.708 172.909 413.225 172.256 413.772 171.582C416.084 168.737 418.291 165.433 419.106 164.136C419.53 163.675 420.299 161.909 420 158.519M412.23 173.527L413.994 173.138M413.994 173.138C414.439 173.008 415.372 173.004 415.55 174.027C415.847 174.842 416.595 177.183 417.217 180.028C417.839 182.873 418.662 186.955 418.995 188.641L420.662 198.309M420.662 198.309L419.85 198.087M420.662 198.309L422.507 198.087M419.85 198.087L420.273 200.087L421.162 200.421C421.292 200.402 421.696 200.343 422.274 200.254C422.852 200.165 422.848 199.735 422.774 199.532L422.507 198.087" stroke="white" stroke-width="0.583054"/>
<path d="M402.428 215.227C401.963 214.673 400.967 213.431 400.697 212.89C400.553 212.604 400.515 212.462 400.555 212.379C396.332 212.214 388.525 212.38 387.484 213.992C386.956 215.012 386.568 217.548 389.243 219.535C391.919 221.522 396.419 224.045 398.334 225.059C401.255 226.468 407.78 229.39 410.518 229.808C413.94 230.329 418.32 231.66 422.428 229.408C426.536 227.156 430.017 220.549 431.401 218.975C432.976 217.183 436.493 213.892 437.9 212.955C440.306 211.573 445.672 208.584 447.892 207.681C450.654 206.559 457.203 203.866 458.537 200.674C458.544 200.659 458.55 200.643 458.556 200.628C459.587 198.058 458.865 193.027 458.375 190.833C457.921 189.263 456.542 185.678 454.654 183.899C454.611 183.969 454.548 184.029 454.496 184.067L454.143 184.385C452.118 186.402 447.543 190.866 445.451 192.585C443.358 194.305 435.502 203.493 431.835 207.872C429.616 210.665 424.434 217.382 419.962 219.344C414.535 221.727 413.887 221.165 411.862 220.967C411.34 220.916 410.501 220.662 407.906 219.63C405.83 218.805 403.389 216.351 402.428 215.227Z" fill="#FFB713" fill-opacity="0.15"/>
<path d="M389.243 219.535C386.568 217.548 386.956 215.012 387.484 213.992C386.57 215.313 385.461 218.476 388.334 220.565C391.206 222.655 394.209 224.486 395.351 225.14C398.591 226.777 405.296 229.762 405.967 230.015C407.028 230.416 409.965 231.962 415.802 232.17C420.472 232.337 423.395 230.118 424.273 228.987C425.968 226.965 429.316 222.555 430.021 221.639C431.032 220.324 438.187 213.643 439.99 212.786C440.615 212.441 442.034 211.701 443.91 210.812C444.176 210.686 444.451 210.557 444.734 210.425C445.442 210.097 446.202 209.754 446.998 209.408C450.359 207.945 453.839 206.027 455.159 205.251C455.748 205.037 457.243 203.822 458.537 200.674C457.203 203.866 450.654 206.559 447.892 207.681C445.672 208.584 440.306 211.573 437.9 212.955C436.493 213.892 432.976 217.183 431.401 218.975C430.017 220.549 426.536 227.156 422.428 229.408C418.32 231.66 413.94 230.329 410.518 229.808C407.78 229.39 401.255 226.468 398.334 225.059C396.419 224.045 391.919 221.522 389.243 219.535Z" fill="#FFB713" fill-opacity="0.15"/>
<path d="M417.551 212.612C410.899 217.526 404.405 214.791 401.99 212.81C406.556 218.492 411.585 219.447 411.958 219.453L412.107 219.455C416.521 219.519 418.775 219.552 425.798 212.88C426.793 211.934 432.455 205.628 435.069 202.476C438.111 198.295 443.657 192.907 444.891 191.732C445.879 190.792 451.265 185.793 453.71 183.41C451.678 182.983 447.393 187.146 446.392 187.628C445.591 188.014 437.027 195.96 432.845 199.884C430.518 202.079 424.203 207.697 417.551 212.612Z" fill="#FFB713" fill-opacity="0.15"/>
<path d="M455.159 205.251C453.839 206.027 450.359 207.945 446.998 209.408C446.202 209.754 445.442 210.097 444.734 210.425L445.45 210.617L446.479 210.892C446.933 210.981 447.764 211.407 447.451 212.397C447.34 213.257 446.927 215.68 446.171 218.492C445.414 221.304 444.266 225.307 443.787 226.957L440.819 236.309L442.559 236.96L444.088 231.932L445.932 226.441L448.447 219.171C448.969 218.044 450.177 215.349 450.839 213.589C451.501 211.829 452.779 210.046 453.335 209.375C453.444 209.327 454.117 208.591 455.943 206.033C457.77 203.474 458.446 201.363 458.556 200.628C458.55 200.643 458.544 200.659 458.537 200.674C457.243 203.822 455.748 205.037 455.159 205.251Z" fill="#FFB713" fill-opacity="0.15"/>
<path d="M445.45 210.617C446.719 212.225 445.739 216.224 445.162 217.782L440.2 235.738L440.819 236.309L443.787 226.957C444.266 225.307 445.414 221.304 446.171 218.492C446.927 215.68 447.34 213.257 447.451 212.397C447.764 211.407 446.933 210.981 446.479 210.892L445.45 210.617Z" fill="#FFB713" fill-opacity="0.15"/>
<path d="M441.355 238.777C441.909 238.964 442.103 238.58 442.131 238.365L442.559 236.96L440.819 236.309L440.2 235.738L439.655 237.708L440.291 238.413C440.415 238.457 440.801 238.59 441.355 238.777Z" fill="#FFB713" fill-opacity="0.15"/>
<path d="M401.99 212.81C404.405 214.791 410.899 217.526 417.551 212.612C424.203 207.697 430.518 202.079 432.845 199.884C437.027 195.96 445.591 188.014 446.392 187.628C447.393 187.146 451.678 182.983 453.71 183.41M401.99 212.81C406.556 218.492 411.585 219.447 411.958 219.453M401.99 212.81L401.722 212.483C401.451 212.193 401.46 211.997 401.08 212.15C400.806 212.261 400.609 212.265 400.555 212.379M453.71 183.41C451.265 185.793 445.879 190.792 444.891 191.732C443.657 192.907 438.111 198.295 435.069 202.476C432.455 205.628 426.793 211.934 425.798 212.88C418.775 219.552 416.521 219.519 412.107 219.455M453.71 183.41C454.214 182.92 454.258 183.318 454.578 183.546C454.733 183.657 454.719 183.79 454.654 183.899M411.958 219.453L412.107 219.455M411.958 219.453C412.008 219.453 412.058 219.454 412.107 219.455M400.555 212.379C400.515 212.462 400.553 212.604 400.697 212.89C400.967 213.431 401.963 214.673 402.428 215.227C403.389 216.351 405.83 218.805 407.906 219.63C410.501 220.662 411.34 220.916 411.862 220.967C413.887 221.165 414.535 221.727 419.962 219.344C424.434 217.382 429.616 210.665 431.835 207.872C435.502 203.493 443.358 194.305 445.451 192.585C447.543 190.866 452.118 186.402 454.143 184.385L454.496 184.067C454.548 184.029 454.611 183.969 454.654 183.899M400.555 212.379C396.332 212.214 388.525 212.38 387.484 213.992M387.484 213.992C386.956 215.012 386.568 217.548 389.243 219.535C391.919 221.522 396.419 224.045 398.334 225.059C401.255 226.468 407.78 229.39 410.518 229.808C413.94 230.329 418.32 231.66 422.428 229.408C426.536 227.156 430.017 220.549 431.401 218.975C432.976 217.183 436.493 213.892 437.9 212.955C440.306 211.573 445.672 208.584 447.892 207.681C450.654 206.559 457.203 203.866 458.537 200.674M387.484 213.992C386.57 215.313 385.461 218.476 388.334 220.565C391.206 222.655 394.209 224.486 395.351 225.14C398.591 226.777 405.296 229.762 405.967 230.015C407.028 230.416 409.965 231.962 415.802 232.17C420.472 232.337 423.395 230.118 424.273 228.987C425.968 226.965 429.316 222.555 430.021 221.639C431.032 220.324 438.187 213.643 439.99 212.786C440.615 212.441 442.034 211.701 443.91 210.812M458.556 200.628C459.587 198.058 458.865 193.027 458.375 190.833C457.921 189.263 456.542 185.678 454.654 183.899M458.556 200.628C458.446 201.363 457.77 203.474 455.943 206.033C454.117 208.591 453.444 209.327 453.335 209.375C452.779 210.046 451.501 211.829 450.839 213.589C450.177 215.349 448.969 218.044 448.447 219.171L445.932 226.441L444.088 231.932L442.559 236.96M458.556 200.628C458.55 200.643 458.544 200.659 458.537 200.674M458.556 200.628C458.55 200.643 458.544 200.659 458.537 200.674M445.45 210.617C446.719 212.225 445.739 216.224 445.162 217.782L440.2 235.738M445.45 210.617L443.91 210.812M445.45 210.617L444.734 210.425M445.45 210.617L446.479 210.892M443.91 210.812C444.176 210.686 444.451 210.557 444.734 210.425M444.734 210.425C445.442 210.097 446.202 209.754 446.998 209.408C450.359 207.945 453.839 206.027 455.159 205.251C455.748 205.037 457.243 203.822 458.537 200.674M444.734 210.425L446.479 210.892M446.479 210.892C446.933 210.981 447.764 211.407 447.451 212.397C447.34 213.257 446.927 215.68 446.171 218.492C445.414 221.304 444.266 225.307 443.787 226.957L440.819 236.309M440.819 236.309L440.2 235.738M440.819 236.309L442.559 236.96M440.2 235.738L439.655 237.708L440.291 238.413C440.415 238.457 440.801 238.59 441.355 238.777C441.909 238.964 442.103 238.58 442.131 238.365L442.559 236.96" stroke="white" stroke-width="0.583054"/>
</g>
<defs>
<clipPath id="clip0_1_7">
<rect width="1440" height="805" fill="white"/>
</clipPath>
<clipPath id="clip1_1_7">
<rect width="71" height="104.185" fill="white" transform="translate(757.079 535)"/>
</clipPath>
<clipPath id="clip2_1_7">
<rect width="86" height="126.196" fill="white" transform="translate(1301 794)"/>
</clipPath>
<clipPath id="clip3_1_7">
<rect width="71" height="104.185" fill="white" transform="translate(530.1 39)"/>
</clipPath>
</defs>
</svg>
