<svg width="270" height="210" viewBox="0 0 270 210" fill="none" xmlns="http://www.w3.org/2000/svg">
<path opacity="0.5" d="M242.304 200.281C248.223 205.29 21.7762 205.29 27.6982 200.28C21.7784 195.272 248.225 195.272 242.304 200.281Z" fill="#C8C0BB"/>
<g opacity="0.3">
<path opacity="0.8" d="M233.691 99.2681C231.476 231.635 38.5432 231.614 36.3472 99.2637C38.562 -33.0988 231.495 -33.0781 233.691 99.2681Z" fill="#ED7E4A" fill-opacity="0.31"/>
<path opacity="0.6" d="M115.627 140.802C114.329 218.357 1.28688 218.345 0 140.799C1.29797 63.2461 114.34 63.2584 115.627 140.802Z" fill="#FFB713" fill-opacity="0.27"/>
<path opacity="0.6" d="M154.374 140.802C155.672 218.357 268.713 218.345 270 140.799C268.703 63.246 155.66 63.2583 154.374 140.802Z" fill="#FFB713" fill-opacity="0.27"/>
<path opacity="0.5" d="M190.78 80.732C191.669 133.868 269.118 133.86 270 80.7304C269.111 27.5958 191.661 27.6042 190.78 80.732Z" fill="#FFB713" fill-opacity="0.27"/>
<path opacity="0.5" d="M79.2204 80.7321C78.3311 133.868 0.882004 133.86 0.000488281 80.7304C0.889555 27.5958 78.3386 27.6043 79.2204 80.7321Z" fill="#FFB713" fill-opacity="0.27"/>
</g>
<path d="M187.184 200.121H99.4426C96.0614 200.121 93.3203 197.324 93.3203 193.873V42.5952C93.3203 39.1446 96.0614 36.3473 99.4426 36.3473H187.184C190.565 36.3473 193.307 39.1446 193.307 42.5952V193.873C193.306 197.324 190.565 200.121 187.184 200.121Z" fill="#323232"/>
<path d="M183.061 193.121H103.566C101.03 193.121 98.9741 191.023 98.9741 188.435V48.0329C98.9741 45.4449 101.03 43.347 103.566 43.347H183.061C185.597 43.347 187.652 45.4451 187.652 48.0329V188.435C187.652 191.023 185.597 193.121 183.061 193.121Z" fill="#FDFBF7"/>
<path d="M161.911 144.038H112.051C110.801 144.038 109.788 143.004 109.788 141.728V90.845C109.788 89.5693 110.801 88.5353 112.051 88.5353H161.911C163.161 88.5353 164.174 89.5695 164.174 90.845V141.728C164.174 143.004 163.161 144.038 161.911 144.038Z" fill="#F9FCFF"/>
<path d="M143.642 101.638C140.322 101.638 133.64 101.638 130.321 101.638L122.893 130.935C129.916 130.935 144.049 130.935 151.07 130.935L143.642 101.638Z" fill="#F4B3EA"/>
<path d="M112.543 67.7184H80.4565C79.6522 67.7184 79 67.0529 79 66.232V33.4865C79 32.6656 79.6522 32 80.4565 32H112.543C113.348 32 114 32.6656 114 33.4865V66.232C114 67.0529 113.348 67.7184 112.543 67.7184Z" fill="white"/>
<path d="M80.457 32.3223H112.543C113.163 32.3223 113.678 32.8371 113.678 33.4863V66.2324C113.677 66.8815 113.163 67.3965 112.543 67.3965H80.457C79.8368 67.3965 79.3225 66.8815 79.3223 66.2324V33.4863C79.3223 32.8371 79.8367 32.3223 80.457 32.3223Z" stroke="#C7C4BC" stroke-opacity="0.27" stroke-width="0.644073"/>
<path d="M104.514 59.1653L99.2442 49.2852C99.2657 49.1914 100.518 43.7391 100.539 43.6487C100.553 43.6571 101.586 44.282 101.601 44.2909L101.601 44.2903L101.602 44.2909C101.601 44.287 103.347 42.1986 103.348 42.1958L102.368 41.5804L102.368 41.5796C102.338 41.5605 100.568 40.4505 100.539 40.4321H98.3148C97.7006 42.0279 95.2969 42.0236 94.6851 40.4321H92.4609C92.4328 40.4497 90.6593 41.5622 90.6315 41.5796L90.6317 41.5804L89.6515 42.1958C89.6514 42.1973 91.3996 44.2882 91.3976 44.2909L91.3985 44.2903L91.3989 44.2909C91.4177 44.2795 92.4434 43.6593 92.4608 43.6487C92.4808 43.7357 93.7361 49.1999 93.7556 49.2852C93.6671 49.4511 88.5072 59.1259 88.4219 59.2859H104.578L104.514 59.1653Z" fill="#F99BA2"/>
<path d="M215.878 96.0468H169.122C167.95 96.0468 167 95.0771 167 93.8809V46.1659C167 44.9697 167.95 44 169.122 44H215.878C217.05 44 218 44.9697 218 46.1659V93.8809C218 95.0771 217.05 96.0468 215.878 96.0468Z" fill="white"/>
<path d="M169.122 44.374H215.878C216.837 44.3742 217.626 45.169 217.626 46.166V93.8809C217.626 94.8778 216.837 95.6727 215.878 95.6729H169.122C168.163 95.6727 167.374 94.8778 167.374 93.8809V46.166C167.374 45.169 168.163 44.3742 169.122 44.374Z" stroke="#C7C4BC" stroke-opacity="0.27" stroke-width="0.747206"/>
<path d="M198.78 57.3885C198.778 57.3859 197.447 56.2904 197.445 56.2883C199.387 60.3529 185.609 60.3475 187.555 56.2883C187.67 56.1924 172.526 68.6778 172.093 69.0347L174.719 83.7609H178.182C178.082 82.1324 177.573 73.9212 177.484 72.4851L184.6 68.3937L183.083 83.7611C183.084 83.7611 201.915 83.7611 201.917 83.7611L200.399 68.3937L207.516 72.4851C207.429 73.8805 206.916 82.1787 206.817 83.7609H210.281L212.906 69.0347L198.78 57.3885Z" fill="#E1B0C6"/>
<path d="M123.737 194.095H83.3125C82.2991 194.095 81.4775 193.256 81.4775 192.222V150.968C81.4775 149.934 82.2991 149.095 83.3125 149.095H123.737C124.75 149.095 125.572 149.934 125.572 150.968V192.222C125.572 193.256 124.75 194.095 123.737 194.095Z" fill="white"/>
<path d="M83.3125 149.593H123.737C124.466 149.593 125.074 150.199 125.074 150.968V192.222C125.074 192.991 124.466 193.597 123.737 193.597H83.3125C82.5834 193.597 81.9756 192.991 81.9756 192.222V150.968C81.9756 150.199 82.5834 149.593 83.3125 149.593Z" stroke="#C7C4BC" stroke-opacity="0.27" stroke-width="0.995261"/>
<path d="M109.486 159.719C109.053 163.152 97.985 163.14 97.5636 159.719L85.8813 170.74L91.5687 176.545L95.3836 172.651V183.471C99.4417 183.471 107.608 183.471 111.666 183.471V172.651L115.481 176.545L121.168 170.74L109.486 159.719Z" fill="#F99BA2"/>
<g opacity="0.5">
<path d="M52.796 154.822H28.7891C27.6129 154.822 26.6592 155.795 26.6592 156.996V197.893C26.6592 199.093 27.6127 200.066 28.7891 200.066H52.796C53.9722 200.066 54.926 199.093 54.926 197.893V156.996C54.926 155.795 53.9725 154.822 52.796 154.822Z" fill="#FF7200"/>
<path d="M71.562 171.269H56.2816C55.5329 171.269 54.9258 171.888 54.9258 172.652V198.683C54.9258 199.448 55.5326 200.067 56.2816 200.067H71.562C72.3107 200.067 72.9176 199.448 72.9176 198.683V172.652C72.9176 171.888 72.3107 171.269 71.562 171.269Z" fill="#FF7200"/>
<path d="M69.0475 159.376C54.8007 159.898 58.6113 156.027 58.0953 170.553C58.0953 170.948 58.4094 171.268 58.7966 171.268H69.0477C69.4349 171.268 69.7487 170.948 69.7487 170.553V160.091C69.7485 159.696 69.4347 159.376 69.0475 159.376Z" fill="#FF7200"/>
</g>
<g opacity="0.8">
<path opacity="0.8" d="M234.627 187.1C229.625 185.016 223.15 183.627 220.516 177.995C219.451 175.533 220.142 172.942 219.494 170.437C218.924 168.235 218.14 166.111 217.107 164.09C216.04 162.001 214.475 159.47 218.077 160.443C239.485 164.959 223.748 171.101 233.784 173.515C236.1 174.879 232.787 181.544 235.25 185.446C237.712 189.347 234.629 187.101 234.627 187.1Z" fill="#FF7200"/>
<path d="M232.611 182.432C221.405 177.945 228.632 169.579 222.493 164.726C222.902 164.908 223.289 165.161 223.611 165.478C228.291 171.816 222.765 177.646 232.611 182.432Z" fill="white"/>
<path opacity="0.8" d="M232.017 188.841C236.351 188.065 241.965 187.972 244.91 183.965C246.18 182.167 246.057 179.959 246.999 178.054C247.826 176.379 248.813 174.805 249.983 173.356C251.193 171.859 252.877 170.092 249.812 170.249C231.809 170.156 243.459 177.847 234.97 178.043C232.876 178.738 234.43 184.685 231.792 187.4C229.156 190.114 232.016 188.842 232.017 188.841Z" fill="#FF7200"/>
<path d="M237.227 182.433C242.624 181.353 241.583 174.152 247.011 172.458C241.671 174.938 242.963 181.839 237.227 182.433Z" fill="white"/>
<path d="M228.643 176.681C229.719 170.063 236.565 168.635 234.54 159.228C233.969 156.209 232.044 142.814 238.766 147.48C243.445 150.727 237.999 161.054 244.187 162.505C248.643 163.55 242.627 168.97 241.799 170.223C240.594 172.047 240.804 174.608 241.111 176.681C241.763 181.076 241.271 183.085 239.139 182.918C237.007 182.75 228.971 184.337 228.643 176.681Z" fill="#FF7200"/>
<path d="M235.668 179.689C234.578 178.171 235.094 176.072 235.693 174.45C236.653 171.811 239.174 170.112 240.128 167.523C240.225 167.157 240.153 166.765 240.044 166.41C238.968 163.773 237.49 161.182 237.592 158.214C237.369 155.653 238.26 152.838 237.228 150.436C238.211 152.072 237.739 154.403 237.856 156.244C237.584 159.829 238.795 162.922 240.33 166.058C241.255 168.678 238.323 170.495 237.134 172.466C235.749 174.44 234.365 177.36 235.668 179.689Z" fill="white"/>
<path d="M232.612 182.432C232.612 182.432 234.11 184.759 234 185.819C233.891 186.879 236.203 185.819 236.203 185.819C239.43 179.944 240.238 181.407 232.612 182.432Z" fill="#FF7200"/>
<path d="M245.292 189.541C244.276 206.874 219.042 201.215 225.199 185.063H244.336C244.95 186.426 245.292 187.943 245.292 189.541Z" fill="#131B27"/>
</g>
<path d="M105.025 38.7457L108.435 34.9615C101.495 20.8322 123.713 12.1061 128.238 27.1849C131.2 37.6471 117.482 45.2078 110.204 37.3811L105.025 38.7457Z" fill="white"/>
<path d="M122.067 20.5137C119.593 19.4887 116.744 19.5944 114.22 20.5854C111.696 21.5765 109.536 23.438 108.42 25.8732C107.31 28.2947 107.209 31.3319 108.883 34.741L109.033 35.0449L108.807 35.2965L106.519 37.8352L110.367 36.8215L110.571 37.0404C114.022 40.7517 119.007 40.8359 122.817 38.7051C126.623 36.5767 129.16 32.2918 127.759 27.3287C126.667 23.6904 124.528 21.533 122.067 20.5137Z" stroke="#C7C4BC" stroke-opacity="0.27"/>
<g clip-path="url(#clip0_4232_51910)">
<path d="M113.873 29.6194C113.868 29.5618 113.875 29.5039 113.893 29.4492C113.912 29.3946 113.942 29.3443 113.981 29.3018C114.02 29.2592 114.067 29.2252 114.12 29.202C114.173 29.1787 114.23 29.1667 114.288 29.1667H115.083C115.194 29.1667 115.3 29.2106 115.378 29.2887C115.456 29.3668 115.5 29.4728 115.5 29.5833V33.5417C115.5 33.6522 115.456 33.7582 115.378 33.8363C115.3 33.9144 115.194 33.9583 115.083 33.9583H114.632C114.528 33.9584 114.427 33.9193 114.35 33.8488C114.273 33.7783 114.226 33.6816 114.217 33.5777L113.873 29.6194ZM116.75 29.4531C116.75 29.279 116.858 29.1231 117.016 29.049C117.359 28.8869 117.944 28.5613 118.208 28.121C118.548 27.5535 118.613 26.5283 118.623 26.2935C118.625 26.2606 118.624 26.2277 118.628 26.1952C118.685 25.7883 119.47 26.2635 119.771 26.766C119.934 27.0385 119.955 27.3967 119.938 27.6765C119.92 27.9756 119.832 28.2646 119.746 28.5517L119.562 29.1635H121.824C121.889 29.1635 121.952 29.1785 122.01 29.2071C122.067 29.2358 122.118 29.2774 122.157 29.3287C122.195 29.3801 122.222 29.4397 122.234 29.503C122.246 29.5662 122.243 29.6314 122.225 29.6933L121.107 33.655C121.082 33.7424 121.029 33.8193 120.957 33.874C120.884 33.9288 120.796 33.9584 120.705 33.9583H117.167C117.056 33.9583 116.95 33.9144 116.872 33.8363C116.794 33.7582 116.75 33.6522 116.75 33.5417V29.4531Z" stroke="#F0877E" stroke-width="0.833333" stroke-linecap="round" stroke-linejoin="round"/>
</g>
<path d="M85.7352 156.072L86.4267 151.025C72.7416 143.245 86.2058 123.534 98.4274 133.458C106.761 140.443 99.6699 154.409 89.2506 152.031L85.7352 156.072Z" fill="white"/>
<path d="M89.5731 131.412C86.9507 131.956 84.6544 133.646 83.125 135.884C81.5957 138.123 80.8563 140.878 81.3028 143.519C81.747 146.145 83.3717 148.713 86.6736 150.591L86.9684 150.758L86.9225 151.093L86.4583 154.479L89.0701 151.477L89.362 151.543C94.3027 152.671 98.472 149.937 100.424 146.032C102.374 142.132 102.062 137.162 98.112 133.846C95.1631 131.452 92.1809 130.871 89.5731 131.412Z" stroke="#C7C4BC" stroke-opacity="0.27"/>
<g clip-path="url(#clip1_4232_51910)">
<path d="M87.9187 143.55C87.8822 143.505 87.8554 143.453 87.84 143.397C87.8247 143.342 87.821 143.283 87.8293 143.226C87.8377 143.169 87.8578 143.114 87.8884 143.065C87.919 143.016 87.9595 142.974 88.0072 142.942L88.6651 142.494C88.7565 142.432 88.8688 142.409 88.9773 142.43C89.0859 142.45 89.1818 142.513 89.244 142.605L91.4701 145.878C91.5323 145.969 91.5556 146.081 91.5349 146.19C91.5143 146.298 91.4513 146.394 91.36 146.456L90.9868 146.71C90.9006 146.769 90.7955 146.793 90.6923 146.778C90.5891 146.763 90.4953 146.71 90.4294 146.629L87.9187 143.55ZM90.2043 141.794C90.1064 141.65 90.1083 141.46 90.1966 141.31C90.3895 140.983 90.6903 140.385 90.661 139.872C90.6231 139.212 90.0996 138.328 89.9762 138.128C89.9589 138.1 89.9397 138.073 89.925 138.044C89.7428 137.676 90.6594 137.627 91.1909 137.873C91.4794 138.006 91.698 138.291 91.8412 138.532C91.9942 138.79 92.0842 139.078 92.1745 139.364L92.367 139.973L94.2373 138.701C94.2905 138.664 94.3514 138.641 94.4152 138.632C94.4789 138.624 94.5439 138.63 94.6049 138.65C94.6659 138.671 94.7213 138.705 94.7667 138.751C94.8122 138.797 94.8464 138.852 94.8668 138.913L96.1698 142.818C96.1985 142.904 96.1983 142.997 96.1692 143.083C96.1401 143.169 96.0838 143.243 96.0086 143.294L93.0826 145.285C92.9912 145.347 92.8789 145.37 92.7703 145.349C92.6618 145.329 92.5659 145.266 92.5037 145.175L90.2043 141.794Z" stroke="#F0877E" stroke-width="0.833333" stroke-linecap="round" stroke-linejoin="round"/>
</g>
<path d="M186.434 52L186.434 43.9615C179.494 29.8323 201.713 21.1061 206.237 36.185C209.199 46.6471 197.277 55.5723 190 47.7457L186.434 52Z" fill="white"/>
<path d="M200.067 29.5137C197.592 28.4886 194.743 28.5944 192.22 29.5854C189.696 30.5765 187.535 32.4381 186.418 34.8735C185.308 37.295 185.208 40.332 186.883 43.741L186.934 43.8458L186.934 43.9618L186.934 50.6241L189.617 47.4249L189.98 46.9909L190.366 47.4053C192.101 49.2716 194.091 50.1187 196.048 50.2126C198.013 50.3067 199.983 49.6421 201.664 48.419C205.029 45.9711 207.173 41.337 205.758 36.3287C204.666 32.6904 202.527 30.533 200.067 29.5137Z" stroke="#C7C4BC" stroke-opacity="0.27"/>
<g clip-path="url(#clip2_4232_51910)">
<path d="M191.873 40.3806C191.868 40.4382 191.875 40.4961 191.893 40.5508C191.912 40.6054 191.942 40.6557 191.981 40.6982C192.02 40.7408 192.067 40.7748 192.12 40.798C192.173 40.8213 192.23 40.8333 192.288 40.8333H193.083C193.194 40.8333 193.3 40.7894 193.378 40.7113C193.456 40.6332 193.5 40.5272 193.5 40.4167V36.4583C193.5 36.3478 193.456 36.2418 193.378 36.1637C193.3 36.0856 193.194 36.0417 193.083 36.0417H192.632C192.528 36.0416 192.427 36.0807 192.35 36.1512C192.273 36.2217 192.226 36.3184 192.217 36.4223L191.873 40.3806ZM194.75 40.5469C194.75 40.721 194.858 40.8769 195.016 40.951C195.359 41.1131 195.944 41.4387 196.208 41.879C196.548 42.4465 196.613 43.4717 196.623 43.7065C196.625 43.7394 196.624 43.7723 196.628 43.8048C196.685 44.2117 197.47 43.7365 197.771 43.234C197.934 42.9615 197.955 42.6033 197.938 42.3235C197.92 42.0244 197.832 41.7354 197.746 41.4483L197.562 40.8365H199.824C199.889 40.8365 199.952 40.8215 200.01 40.7929C200.067 40.7642 200.118 40.7226 200.157 40.6713C200.195 40.6199 200.222 40.5603 200.234 40.497C200.246 40.4338 200.243 40.3686 200.225 40.3067L199.107 36.345C199.082 36.2576 199.029 36.1807 198.957 36.126C198.884 36.0712 198.796 36.0416 198.705 36.0417H195.167C195.056 36.0417 194.95 36.0856 194.872 36.1637C194.794 36.2418 194.75 36.3478 194.75 36.4583V40.5469Z" stroke="#FF7200" stroke-width="0.833333" stroke-linecap="round" stroke-linejoin="round"/>
</g>
<path d="M140.891 203.967C143.731 205.972 142.77 209.287 138.927 209.287C131.678 210.44 135.176 206.828 136.57 204.703L140.891 203.967Z" fill="url(#paint0_linear_4232_51910)"/>
<path d="M136.481 202.137C136.481 202.137 136.504 203.908 136.472 204.795C136.457 205.184 139.859 205.496 141.358 204.42L140.812 202.29L137.453 201.066L136.481 202.137Z" fill="url(#paint1_linear_4232_51910)"/>
<path d="M154.586 204.826C151.746 206.831 152.788 209.778 156.632 209.778C163.88 210.931 159.942 207.319 158.549 205.194L154.586 204.826Z" fill="url(#paint2_linear_4232_51910)"/>
<path d="M158.549 205.239C158.549 205.239 156.566 206.272 154.106 205.239C153.987 204.293 153.754 203.095 153.433 201.709C154.34 202.026 155.922 202.225 158.031 201.145C158.277 203.117 158.61 205.226 158.549 205.239Z" fill="url(#paint3_linear_4232_51910)"/>
<path d="M141.808 131.138C145.067 144.746 147.118 159.088 149.774 171.347C149.774 181.645 153.364 201.942 153.364 201.942C153.364 201.942 157.153 204.643 158.205 201.378C157.69 197.044 156.988 174.395 158.558 156.157C160.127 137.918 153.44 129.789 153.44 129.789L147.371 131.138H141.808Z" fill="url(#paint4_linear_4232_51910)"/>
<path d="M141.838 168.99C142.837 178.692 141.577 202.626 141.109 202.676C138.27 204.012 136.484 202.523 136.484 202.523C135.807 192.674 129.267 141.483 137.22 129.817L143.918 127.623C145.573 129.649 145.89 131.985 146.969 136.448C148.485 144.022 143.06 162.844 141.838 168.99Z" fill="url(#paint5_linear_4232_51910)"/>
<path d="M152.811 81.6949C152.782 79.0135 152.1 75.1887 149.352 74.0419C149.153 73.9705 147.393 73.6935 147.458 74.2424C147.022 70.5757 142.842 70.8419 140.332 72.0584C137.139 73.6062 134.706 76.6358 133.239 79.8602C129.653 90.9012 136.305 103.099 127.338 110.837C126.479 111.652 129.303 114.691 130.461 114.882C139.16 116.312 154.243 119.172 154.243 119.172C164.078 113.628 151.497 93.5888 152.811 81.6949Z" fill="url(#paint6_linear_4232_51910)"/>
<path d="M147.411 89.8249C147.411 89.8249 146.754 97.335 149.065 98.2286C149.065 98.2286 145.566 102.219 141.805 96.5383C141.805 96.5383 142.462 92.5836 141.675 89.5087L147.411 89.8249Z" fill="url(#paint7_linear_4232_51910)"/>
<path d="M150.215 81.0091C148.822 85.1009 152.778 89.9651 147.321 94.0522C145.677 93.8424 139.065 93.3967 138.59 87.4548C138.296 86.4477 136.799 86.0253 137.336 84.3164C137.873 82.6074 138.692 83.6412 138.692 83.6412C138.692 83.6412 138.776 82.34 138.934 81.2447C139.092 80.1496 150.215 81.0091 150.215 81.0091Z" fill="url(#paint8_linear_4232_51910)"/>
<path d="M150.216 81.0098C150.216 81.0098 147.635 87.7955 138.372 83.7368C131.94 80.9186 144.224 78.5776 144.224 78.5776L150.216 81.0098Z" fill="url(#paint9_linear_4232_51910)"/>
<path d="M147.526 98.8792C156.429 94.8759 159.071 107.039 162.371 114.882C162.345 114.922 162.363 115.063 162.335 115.102C162.571 116.779 160.079 114.465 159.368 115.986C157.777 119.373 159.029 113.088 157.206 116.359C158.166 112.267 156.401 116.511 156.433 116.359C156.432 116.358 156.434 116.357 156.434 116.357C155.628 113.005 147.526 98.8792 147.526 98.8792Z" fill="url(#paint10_linear_4232_51910)"/>
<path d="M154.867 118.09C154.317 122.275 153.145 126.584 153.787 129.83C148.148 131.297 143.17 132.07 137.229 129.83C136.389 124.082 137.221 122.836 136.389 116.867C135.001 109.747 132.189 96.3235 142.508 96.079C142.508 96.079 142.939 98.1755 146.318 98.2423C148.305 98.2044 148.473 96.3996 148.388 96.2013C149.468 96.8127 151.471 96.898 152.468 97.4241C155.179 98.2236 154.876 101.453 155.827 103.783C157.867 110.386 155.676 111.49 154.867 118.09Z" fill="url(#paint11_linear_4232_51910)"/>
<path opacity="0.5" d="M146.289 130.977C146.289 130.977 141.227 131.223 137.25 129.866C136.406 124.315 137.516 118.051 135.201 109.9C135.616 109.517 138.032 107.101 138.295 107.426C138.61 107.814 138.893 115.634 143.195 115.772C147.496 115.911 145.317 115.96 145.317 115.96C145.317 115.96 138.515 116.604 137.806 119.706C137.098 122.809 136.941 129.818 146.289 130.977Z" fill="url(#paint12_linear_4232_51910)"/>
<path opacity="0.5" d="M144.876 130.753C144.876 130.753 149.792 130.665 153.634 129.693C153.279 125.077 153.92 118.583 156.201 111.014C155.792 110.659 155.353 110.712 155.093 111.014C154.783 111.374 152.46 116.123 148.222 116.251C145.519 116.251 146.163 116.251 146.163 116.251C146.163 116.251 152.935 117.239 153.634 120.119C154.332 123.001 154.086 129.677 144.876 130.753Z" fill="url(#paint13_linear_4232_51910)"/>
<path d="M134.242 97.5237C134.242 98.619 140.238 115.745 138.005 119.36C135.773 122.975 131.778 119.857 131.308 98.6073L134.242 97.5237Z" fill="url(#paint14_linear_4232_51910)"/>
<path d="M131.307 98.7274C131.307 98.7274 130.453 92.8262 133.359 92.3486C136.265 91.8707 137.758 92.9174 136.265 93.304C134.357 93.5253 132.856 93.5253 133.549 98.4866L131.307 98.7274Z" fill="#F8B1A6"/>
<path d="M134.646 95.9038C135.84 95.9038 136.807 95.5744 136.807 95.168C136.807 94.7617 135.84 94.4323 134.646 94.4323C133.452 94.4323 132.484 94.7617 132.484 95.168C132.484 95.5744 133.452 95.9038 134.646 95.9038Z" fill="#F8B1A6"/>
<path d="M132.484 96.2724C132.484 96.611 133.452 96.8856 134.646 96.8856C135.84 96.8856 136.807 96.611 136.807 96.2724C136.807 95.9339 135.84 95.6593 134.646 95.6593C133.452 95.6593 132.484 95.9339 132.484 96.2724Z" fill="#F8B1A6"/>
<path d="M132.484 97.2517C132.484 97.5902 133.452 97.8648 134.646 97.8648C135.84 97.8648 136.807 97.5902 136.807 97.2517C136.807 96.9132 135.84 96.6385 134.646 96.6385C133.452 96.6385 132.484 96.9132 132.484 97.2517Z" fill="#F8B1A6"/>
<path d="M132.964 98.1104C132.964 98.3812 133.717 98.6009 134.646 98.6009C135.574 98.6009 136.327 98.3812 136.327 98.1104C136.327 97.8396 135.574 97.6199 134.646 97.6199C133.717 97.6199 132.964 97.8396 132.964 98.1104Z" fill="#F8B1A6"/>
<path d="M144.568 97.4923C144.486 97.6557 142.322 108.812 142.322 108.812L147.425 109.05L149.4 99.4569L144.568 97.4923Z" fill="#455A64"/>
<path d="M160.178 112.248C160.887 113.351 163.565 116.545 163.133 118.023C159.025 126.563 147.429 110.234 145.61 108.485C145.61 108.485 147.751 107.541 147.582 106.075C154.515 108.89 157.262 113.45 158.891 114.863C160.89 113.822 160.178 112.248 160.178 112.248Z" fill="url(#paint15_linear_4232_51910)"/>
<path d="M146.492 105.664L145.463 105.672L145.416 105.672L144.621 103.681C144.314 102.896 144.34 102.803 143.599 101.963C143.67 101.531 143.833 101.445 144.237 101.526C145.469 102.707 146.034 104.736 146.492 105.664Z" fill="url(#paint16_linear_4232_51910)"/>
<path d="M145.942 105.475C145.659 105.591 145.234 105.766 144.954 105.882L144.123 104.719C144.122 104.72 144.122 104.72 144.122 104.72C143.6 104.028 143.356 103.416 142.436 102.898C142.451 102.41 142.628 102.312 143.071 102.327C144.382 103.016 145.372 104.841 145.942 105.475Z" fill="url(#paint17_linear_4232_51910)"/>
<path d="M145.779 106.271L145.01 106.843L143.204 105.071C143.251 105.074 142.028 104.609 141.486 104.349C141.35 104.083 141.615 103.799 141.803 103.748C142.538 103.944 143.585 104.361 144.123 104.719C144.123 104.719 144.123 104.719 144.124 104.719C144.529 105.05 145.413 106 145.779 106.271Z" fill="url(#paint18_linear_4232_51910)"/>
<path d="M145.615 103.922C146.515 105.604 147.094 101.836 147.536 101.961C147.959 101.751 148.042 101.792 148.079 102.059C148.116 102.326 147.482 102.628 147.676 103.496C147.869 104.364 147.466 105.193 147.833 106.031C148.2 106.87 146.517 109.238 145.377 108.764C144.236 108.291 144.507 105.288 144.507 105.288L145.615 103.922Z" fill="url(#paint19_linear_4232_51910)"/>
<path d="M146.341 105.828L145.086 106.199C143.998 105.148 139.467 105.767 142.117 106.36C144.511 106.083 143.561 107.442 145.019 108.486C146.048 109.143 146.341 105.828 146.341 105.828Z" fill="url(#paint20_linear_4232_51910)"/>
<path d="M147.985 106.712C147.942 106.681 147.901 106.652 147.862 106.625C147.939 106.574 146.69 107.874 145.27 108.688C145.448 108.871 145.628 109.053 145.808 109.235C147.079 108.382 147.8 107.363 148.125 106.81C148.076 106.775 148.029 106.743 147.985 106.712Z" fill="url(#paint21_linear_4232_51910)"/>
<path d="M142.948 99.7182L135.741 94.9985C141.004 68.9003 100.906 64.2019 100.003 90.8122C99.6666 109.199 125.359 115.654 133.889 99.7182H142.948Z" fill="white"/>
<path d="M107.011 76.9678C110.697 74.1633 115.496 73.0943 120.126 73.6367C124.756 74.1792 129.179 76.3284 132.118 79.9092C135.048 83.4781 136.54 88.5096 135.251 94.8994L135.184 95.2314L135.467 95.417L141.271 99.2178H133.59L133.448 99.4824C129.313 107.207 121.017 109.527 113.746 107.652C106.48 105.779 100.343 99.7431 100.503 90.8291C100.724 84.3138 103.336 79.7631 107.011 76.9678Z" stroke="#C7C4BC" stroke-opacity="0.27"/>
<rect x="106" y="88" width="11" height="2" fill="#FFB713"/>
<rect x="108" y="84" width="5" height="2" fill="#FFB713"/>
<rect x="121" y="92" width="11" height="2" fill="#FFB713"/>
<rect x="112" y="96" width="17" height="2" fill="#FFB713"/>
<defs>
<linearGradient id="paint0_linear_4232_51910" x1="139.286" y1="203.979" x2="139.135" y2="209.607" gradientUnits="userSpaceOnUse">
<stop stop-color="#001745"/>
<stop offset="1" stop-color="#439C94"/>
</linearGradient>
<linearGradient id="paint1_linear_4232_51910" x1="137.894" y1="200.164" x2="139.147" y2="205.408" gradientUnits="userSpaceOnUse">
<stop stop-color="#F0877E"/>
<stop offset="1" stop-color="#FABEB2"/>
</linearGradient>
<linearGradient id="paint2_linear_4232_51910" x1="156.273" y1="204.47" x2="156.424" y2="210.098" gradientUnits="userSpaceOnUse">
<stop stop-color="#001745"/>
<stop offset="1" stop-color="#439C94"/>
</linearGradient>
<linearGradient id="paint3_linear_4232_51910" x1="155.782" y1="201.794" x2="156.427" y2="204.817" gradientUnits="userSpaceOnUse">
<stop stop-color="#F0877E"/>
<stop offset="1" stop-color="#FABEB2"/>
</linearGradient>
<linearGradient id="paint4_linear_4232_51910" x1="155.369" y1="128.315" x2="144.892" y2="198.703" gradientUnits="userSpaceOnUse">
<stop stop-color="#001745"/>
<stop offset="0.137" stop-color="#05204A"/>
<stop offset="0.3604" stop-color="#113859"/>
<stop offset="0.6424" stop-color="#256070"/>
<stop offset="0.9693" stop-color="#409691"/>
<stop offset="1" stop-color="#439C94"/>
</linearGradient>
<linearGradient id="paint5_linear_4232_51910" x1="144.128" y1="126.535" x2="133.761" y2="197.083" gradientUnits="userSpaceOnUse">
<stop stop-color="#001745"/>
<stop offset="0.137" stop-color="#05204A"/>
<stop offset="0.3604" stop-color="#113859"/>
<stop offset="0.6424" stop-color="#256070"/>
<stop offset="0.9693" stop-color="#409691"/>
<stop offset="1" stop-color="#439C94"/>
</linearGradient>
<linearGradient id="paint6_linear_4232_51910" x1="134.664" y1="98.5241" x2="153.747" y2="48.9965" gradientUnits="userSpaceOnUse">
<stop stop-color="#5C3100"/>
<stop offset="1" stop-color="#B94900"/>
</linearGradient>
<linearGradient id="paint7_linear_4232_51910" x1="144.95" y1="90.3559" x2="145.446" y2="97.2503" gradientUnits="userSpaceOnUse">
<stop stop-color="#F0877E"/>
<stop offset="1" stop-color="#FABEB2"/>
</linearGradient>
<linearGradient id="paint8_linear_4232_51910" x1="142.034" y1="77.2655" x2="145.154" y2="90.3592" gradientUnits="userSpaceOnUse">
<stop stop-color="#F0877E"/>
<stop offset="1" stop-color="#FABEB2"/>
</linearGradient>
<linearGradient id="paint9_linear_4232_51910" x1="139.6" y1="91.6317" x2="153.696" y2="55.0481" gradientUnits="userSpaceOnUse">
<stop stop-color="#5C3100"/>
<stop offset="1" stop-color="#B94900"/>
</linearGradient>
<linearGradient id="paint10_linear_4232_51910" x1="154.619" y1="97.738" x2="152.086" y2="135.871" gradientUnits="userSpaceOnUse">
<stop stop-color="#FF7200"/>
<stop offset="1" stop-color="#FFDC5C"/>
</linearGradient>
<linearGradient id="paint11_linear_4232_51910" x1="141.449" y1="130.736" x2="150.223" y2="91.8038" gradientUnits="userSpaceOnUse">
<stop stop-color="#FF7200"/>
<stop offset="1" stop-color="#FFDC5C"/>
</linearGradient>
<linearGradient id="paint12_linear_4232_51910" x1="139.012" y1="130.374" x2="145.709" y2="110.809" gradientUnits="userSpaceOnUse">
<stop stop-color="#FF7200"/>
<stop offset="1" stop-color="#FFDC5C"/>
</linearGradient>
<linearGradient id="paint13_linear_4232_51910" x1="152.525" y1="129.753" x2="146.595" y2="111.372" gradientUnits="userSpaceOnUse">
<stop stop-color="#FF7200"/>
<stop offset="1" stop-color="#FFDC5C"/>
</linearGradient>
<linearGradient id="paint14_linear_4232_51910" x1="134.847" y1="97.5237" x2="134.847" y2="120.64" gradientUnits="userSpaceOnUse">
<stop stop-color="#FFC94B"/>
<stop offset="1" stop-color="#FF800C"/>
</linearGradient>
<linearGradient id="paint15_linear_4232_51910" x1="167.64" y1="99.9104" x2="142.038" y2="127.815" gradientUnits="userSpaceOnUse">
<stop stop-color="#FF7200"/>
<stop offset="1" stop-color="#FFDC5C"/>
</linearGradient>
<linearGradient id="paint16_linear_4232_51910" x1="153.392" y1="112.747" x2="144.46" y2="103.584" gradientUnits="userSpaceOnUse">
<stop stop-color="#F0877E"/>
<stop offset="1" stop-color="#FABEB2"/>
</linearGradient>
<linearGradient id="paint17_linear_4232_51910" x1="152.457" y1="112.977" x2="143.837" y2="104.134" gradientUnits="userSpaceOnUse">
<stop stop-color="#F0877E"/>
<stop offset="1" stop-color="#FABEB2"/>
</linearGradient>
<linearGradient id="paint18_linear_4232_51910" x1="153.446" y1="115.796" x2="142.58" y2="104.649" gradientUnits="userSpaceOnUse">
<stop stop-color="#F0877E"/>
<stop offset="1" stop-color="#FABEB2"/>
</linearGradient>
<linearGradient id="paint19_linear_4232_51910" x1="157.025" y1="116.407" x2="143.415" y2="102.446" gradientUnits="userSpaceOnUse">
<stop stop-color="#F0877E"/>
<stop offset="1" stop-color="#FABEB2"/>
</linearGradient>
<linearGradient id="paint20_linear_4232_51910" x1="154.392" y1="117.222" x2="142.211" y2="104.727" gradientUnits="userSpaceOnUse">
<stop stop-color="#F0877E"/>
<stop offset="1" stop-color="#FABEB2"/>
</linearGradient>
<linearGradient id="paint21_linear_4232_51910" x1="153.899" y1="115.446" x2="143.383" y2="104.662" gradientUnits="userSpaceOnUse">
<stop stop-color="#F0877E"/>
<stop offset="1" stop-color="#FABEB2"/>
</linearGradient>
<clipPath id="clip0_4232_51910">
<rect width="10" height="10" fill="white" transform="translate(113 25)"/>
</clipPath>
<clipPath id="clip1_4232_51910">
<rect width="10" height="10" fill="white" transform="translate(84.5991 140.221) rotate(-34.2222)"/>
</clipPath>
<clipPath id="clip2_4232_51910">
<rect width="10" height="10" fill="white" transform="matrix(1 0 0 -1 191 45)"/>
</clipPath>
</defs>
</svg>
