<svg width="248" height="210" viewBox="0 0 248 210" fill="none" xmlns="http://www.w3.org/2000/svg">
<path opacity="0.5" d="M239.882 205.17C245.319 210.326 37.3237 210.326 42.7631 205.169C37.3256 200.013 245.321 200.013 239.882 205.17Z" fill="#8C8B89"/>
<g opacity="0.3">
<path opacity="0.8" d="M214.65 102.183C212.615 238.437 35.4028 238.416 33.3857 102.179C35.4202 -34.0709 212.633 -34.0496 214.65 102.183Z" fill="#ED7E4A" fill-opacity="0.31"/>
<path opacity="0.6" d="M106.205 144.936C105.013 224.769 1.18203 224.757 0 144.934C1.19221 65.103 105.024 65.1157 106.205 144.936Z" fill="#FFB713" fill-opacity="0.27"/>
<path opacity="0.6" d="M141.794 144.936C142.987 224.769 246.818 224.757 248 144.934C246.808 65.103 142.976 65.1156 141.794 144.936Z" fill="#FFB713" fill-opacity="0.27"/>
<path opacity="0.5" d="M175.235 83.1026C176.052 137.799 247.19 137.791 248 83.1008C247.183 28.4061 176.045 28.4148 175.235 83.1026Z" fill="#FFB713" fill-opacity="0.27"/>
<path opacity="0.5" d="M72.765 83.1026C71.9481 137.799 0.809689 137.791 0 83.1008C0.816624 28.4061 71.9551 28.4148 72.765 83.1026Z" fill="#FFB713" fill-opacity="0.27"/>
<path d="M98.2329 99.7537L29.6875 85.7786C27.9263 85.4195 26.7535 83.4957 27.0674 81.482L34.6158 33.0546C34.9297 31.0404 36.6118 29.6991 38.373 30.0581L106.918 44.0338C108.679 44.3928 109.852 46.3162 109.539 48.3304L101.99 96.7572C101.676 98.7714 99.9941 100.113 98.2329 99.7537Z" fill="#71706E"/>
<path d="M97.049 55.396C96.5401 58.6626 93.8118 60.8384 90.9555 60.2559C88.0993 59.6739 86.1969 56.5536 86.7066 53.2875C87.2155 50.0209 89.9438 47.8451 92.7992 48.4271C95.6554 49.0101 97.5578 52.1294 97.049 55.396Z" fill="#B0D2C5"/>
<path d="M98.1199 61.8653C97.7974 61.8653 97.4727 61.8329 97.1485 61.7666C94.1806 61.161 92.197 57.9072 92.7261 54.5133C93.2547 51.1195 96.0985 48.8489 99.0677 49.4545C102.035 50.0601 104.019 53.3144 103.491 56.7083C103.234 58.3526 102.434 59.7843 101.236 60.7396C100.308 61.4793 99.2279 61.8653 98.1199 61.8653ZM98.1061 49.8479C95.7124 49.8479 93.5832 51.812 93.1486 54.5998C92.6608 57.7269 94.4889 60.7249 97.2236 61.2833C98.5489 61.5535 99.8862 61.217 100.99 60.3369C102.094 59.4563 102.832 58.137 103.068 56.6218C103.555 53.4947 101.727 50.4962 98.9925 49.9378C98.6953 49.8769 98.3986 49.8479 98.1061 49.8479Z" fill="#B0D2C5"/>
<path d="M36.2641 66.4117L35.5224 71.1685L35.0947 71.0811L35.7681 66.7594L34.7881 66.5595L34.8559 66.1244L36.2641 66.4117Z" fill="white"/>
<path d="M39.8665 71.6055L39.7991 72.0407L36.8818 71.4459L36.9359 71.0991L38.9668 69.5147C39.5186 69.081 39.6578 68.7794 39.7089 68.4533C39.7948 67.9027 39.5088 67.4941 38.8736 67.3644C38.3862 67.2652 37.9855 67.3586 37.6557 67.6631L37.3993 67.3021C37.788 66.9327 38.3428 66.7932 38.9788 66.9229C39.8227 67.0948 40.2813 67.6935 40.1572 68.4887C40.0864 68.944 39.8978 69.3261 39.2416 69.8379L37.5797 71.1394L39.8665 71.6055Z" fill="white"/>
<path d="M44.3725 71.6827L43.5403 71.5132L43.3457 72.7637L42.918 72.6763L43.1125 71.4258L40.7656 70.9474L40.821 70.5943L43.5171 67.8905L43.9925 67.9873L41.3866 70.6252L43.1929 70.9936L43.3642 69.8929L43.7799 69.9779L43.6086 71.0786L44.4408 71.248L44.3725 71.6827Z" fill="white"/>
<path d="M50.7457 72.9827L49.9143 72.8133L49.7193 74.0637L49.2916 73.9763L49.4866 72.7258L47.1396 72.2475L47.1946 71.8943L49.8902 69.1906L50.3657 69.2873L47.7598 71.9248L49.566 72.2931L49.7374 71.1925L50.1535 71.277L49.9822 72.3776L50.814 72.5471L50.7457 72.9827Z" fill="white"/>
<path d="M54.4052 73.5739C54.2794 74.3823 53.6872 74.9142 52.6715 74.7069C52.0712 74.5846 51.5378 74.2305 51.2754 73.7909L51.5438 73.4462C51.7615 73.8199 52.2004 74.1475 52.7351 74.2566C53.4419 74.4009 53.8778 74.0827 53.968 73.5051C54.0634 72.8936 53.7894 72.4452 52.7321 72.2296L51.847 72.0493L52.4327 69.7075L54.7084 70.1717L54.6405 70.6068L52.7389 70.2188L52.3606 71.705L52.8953 71.8141C54.1488 72.07 54.5362 72.731 54.4052 73.5739Z" fill="white"/>
<path d="M58.5194 74.3917C58.3807 75.2822 57.6799 75.7282 56.8712 75.5631C55.7667 75.3377 55.3029 74.3392 55.5365 72.8373C55.789 71.2204 56.6921 70.5347 57.8211 70.7651C58.1956 70.8412 58.5344 70.9876 58.7672 71.2248L58.5332 71.5834C58.3451 71.3771 58.0694 71.2577 57.7606 71.1949C56.8635 71.0117 56.1841 71.5534 55.9827 72.8446C55.9655 72.9532 55.9505 73.0902 55.9402 73.2351C56.2296 72.7543 56.7621 72.5617 57.3389 72.6791C58.1656 72.8471 58.6547 73.5219 58.5194 74.3917ZM58.0951 74.3191C58.193 73.6938 57.8512 73.211 57.2092 73.0799C56.5736 72.9502 56.0699 73.3102 55.978 73.9016C55.8964 74.4247 56.1996 74.9983 56.918 75.1447C57.5188 75.267 57.9968 74.9512 58.0951 74.3191Z" fill="white"/>
<path d="M64.2006 75.6063C64.0769 76.4015 63.477 76.9098 62.4729 76.7055C61.8726 76.5832 61.3336 76.2276 61.0708 75.7885L61.3388 75.4437C61.5565 75.8175 62.0014 76.1466 62.5425 76.2566C63.2313 76.3971 63.6694 76.1078 63.7613 75.5164C63.8502 74.9457 63.5581 74.5007 62.786 74.3431L62.4892 74.2827L62.5451 73.9226L63.9554 72.5067L61.8283 72.073L61.8962 71.6378L64.5699 72.1825L64.5158 72.5293L63.0755 73.9811C63.958 74.2178 64.3196 74.8455 64.2006 75.6063Z" fill="white"/>
<path d="M68.3801 76.4024C68.2418 77.2928 67.5406 77.7388 66.7328 77.5738C65.6274 77.3483 65.164 76.3493 65.398 74.8474C65.6501 73.2305 66.5537 72.5449 67.6823 72.7752C68.0567 72.8514 68.3956 72.9977 68.6283 73.2345L68.3947 73.5935C68.2062 73.3872 67.9309 73.2678 67.6217 73.205C66.7246 73.0223 66.0456 73.5635 65.8442 74.8548C65.8271 74.9633 65.8116 75.1003 65.8013 75.2452C66.0907 74.7644 66.6237 74.5718 67.2 74.6892C68.0267 74.8577 68.5158 75.5325 68.3801 76.4024ZM67.9567 76.3297C68.0542 75.7049 67.7123 75.2216 67.0707 75.091C66.4343 74.9613 65.9314 75.3213 65.8395 75.9122C65.7579 76.4353 66.0607 77.0089 66.7796 77.1558C67.3799 77.2781 67.8579 76.9618 67.9567 76.3297Z" fill="white"/>
<path d="M72.7252 73.8458L72.6711 74.1926L70.243 78.248L69.7792 78.1532L72.1643 74.1803L70.0253 73.7441L69.8866 74.6346L69.4648 74.5486L69.6718 73.2235L72.7252 73.8458Z" fill="white"/>
<path d="M78.6725 75.0582L78.6183 75.405L76.1903 79.4599L75.7269 79.3656L78.112 75.3927L75.9725 74.9565L75.8338 75.8465L75.4121 75.7605L75.6191 74.4354L78.6725 75.0582Z" fill="white"/>
<path d="M82.2292 79.3251C82.0978 80.1675 81.393 80.5638 80.4006 80.3615C79.4026 80.1581 78.8778 79.5113 79.0092 78.6685C79.0981 78.0973 79.4459 77.7549 79.9935 77.6631C79.6014 77.3866 79.4262 76.9794 79.5031 76.4833C79.6237 75.7088 80.2752 75.3434 81.1547 75.5227C82.0342 75.7019 82.547 76.3046 82.4263 77.0791C82.349 77.5752 82.0552 77.8866 81.5979 77.9897C82.0896 78.2942 82.3172 78.7613 82.2292 79.3251ZM81.7911 79.2284C81.8822 78.6444 81.4991 78.1876 80.7622 78.0373C80.0257 77.887 79.5348 78.166 79.4438 78.75C79.3515 79.3413 79.7285 79.7966 80.465 79.9464C81.2019 80.0972 81.6988 79.8197 81.7911 79.2284ZM80.8227 77.6503C81.4708 77.7824 81.9084 77.528 81.9891 77.0118C82.0729 76.475 81.7134 76.0654 81.0899 75.9382C80.4603 75.81 80.0111 76.0546 79.9291 76.585C79.8475 77.1076 80.1756 77.5182 80.8227 77.6503Z" fill="white"/>
<path d="M86.4393 79.0535C86.1872 80.6704 85.2832 81.356 84.1551 81.1257C83.7801 81.0491 83.4413 80.9027 83.209 80.666L83.4422 80.3074C83.6311 80.5137 83.9069 80.6331 84.2156 80.6959C85.1127 80.8786 85.7921 80.3374 85.9931 79.0462C86.0103 78.9376 86.0257 78.8001 86.036 78.6557C85.7461 79.1365 85.2132 79.3291 84.6369 79.2117C83.8115 79.0432 83.3215 78.3689 83.4577 77.499C83.5964 76.6091 84.2972 76.1626 85.105 76.3277C86.21 76.5531 86.6733 77.5516 86.4393 79.0535ZM85.9983 77.9892C86.0794 77.4661 85.7771 76.8925 85.0582 76.7461C84.4578 76.6233 83.9794 76.9396 83.8811 77.5717C83.7832 78.197 84.1246 78.6798 84.7675 78.8109C85.4026 78.9401 85.9059 78.5806 85.9983 77.9892Z" fill="white"/>
<path d="M91.0209 77.5763L90.2793 82.333L89.8515 82.2461L90.5249 77.924L89.5449 77.7241L89.6128 77.2889L91.0209 77.5763Z" fill="white"/>
<path d="M94.6243 82.7698L94.5569 83.205L91.6396 82.6102L91.6938 82.2635L93.7242 80.6795C94.276 80.2453 94.4152 79.9442 94.4663 79.6176C94.5522 79.0671 94.2657 78.6584 93.6306 78.5292C93.1436 78.43 92.7429 78.5233 92.4131 78.8279L92.1563 78.4669C92.5449 78.0975 93.1002 77.958 93.7362 78.0877C94.5796 78.2596 95.0383 78.8583 94.9146 79.6535C94.8433 80.1088 94.6552 80.4909 93.999 81.0022L92.3371 82.3037L94.6243 82.7698Z" fill="white"/>
<path d="M98.5009 82.5993C98.3772 83.3945 97.7768 83.9033 96.7724 83.6985C96.1729 83.5762 95.6339 83.2207 95.3711 82.7816L95.6391 82.4368C95.8568 82.8105 96.3017 83.1396 96.8424 83.2496C97.5316 83.3901 97.9693 83.1008 98.0612 82.5095C98.1505 81.9388 97.8576 81.4938 97.0859 81.3361L96.7891 81.2757L96.845 80.9157L98.2548 79.4997L96.1278 79.066L96.1956 78.6309L98.8698 79.176L98.8157 79.5228L97.3753 80.9746C98.2578 81.2109 98.6194 81.8386 98.5009 82.5993Z" fill="white"/>
<path d="M65.8109 80.9742L65.4893 83.04L98.8026 89.8389L99.1242 87.7732L65.8109 80.9742Z" fill="#BDCEC7"/>
<path d="M81.3949 88.4063L81.0732 90.472L98.1592 93.9591L98.4809 91.8934L81.3949 88.4063Z" fill="#BDCEC7"/>
<g opacity="0.5">
<path d="M46.2457 64.2153L36.4638 62.2208C35.3048 61.9846 34.5326 60.7184 34.7396 59.3927L35.8532 52.25C36.0597 50.9243 37.1668 50.0418 38.3259 50.278L48.1069 52.2726C49.2656 52.5088 50.0377 53.7745 49.8312 55.1001L48.7189 62.2424C48.5123 63.5685 47.4052 64.4521 46.2457 64.2153Z" fill="#B7C1CC"/>
</g>
<path d="M34.8809 58.4873L35.0011 57.7211L42.1977 59.1887C43.0279 59.3576 43.8245 58.7226 43.9727 57.7722C44.1204 56.8223 43.5569 55.8995 42.7346 55.7428L35.5371 54.2752L35.6569 53.509L42.8535 54.9766C44.053 55.2217 44.8556 56.5365 44.6422 57.9083C44.4279 59.281 43.2774 60.1985 42.0779 59.9544L34.8809 58.4873Z" fill="#F0F4F2"/>
<path d="M44.363 57.458L44.2432 58.2238L49.1823 59.2372L49.3021 58.4714L44.363 57.458Z" fill="#F0F4F2"/>
<path d="M75.3613 47.7052L39.4111 40.3716L38.8608 43.9004L74.8109 51.234L75.3613 47.7052Z" fill="white"/>
</g>
<path d="M176.48 201.164H100.669C97.7473 201.164 95.3789 198.455 95.3789 195.114V48.6304C95.3789 45.2892 97.7473 42.5806 100.669 42.5806H176.48C179.402 42.5806 181.77 45.2892 181.77 48.6304V195.114C181.77 198.455 179.402 201.164 176.48 201.164Z" fill="#323232"/>
<path d="M172.918 194.385H104.232C102.041 194.385 100.265 192.354 100.265 189.848V53.8966C100.265 51.3906 102.041 49.3593 104.232 49.3593H172.918C175.109 49.3593 176.885 51.3908 176.885 53.8966V189.848C176.885 192.354 175.109 194.385 172.918 194.385Z" fill="#FDFBF7"/>
<path d="M159.135 64.4113H105.683C104.933 64.4113 104.324 63.7153 104.324 62.8568V56.117C104.324 55.2585 104.933 54.5625 105.683 54.5625H159.135C159.886 54.5625 160.495 55.2585 160.495 56.117V62.857C160.494 63.7155 159.886 64.4113 159.135 64.4113Z" fill="#FFB713"/>
<path d="M171.465 64.4113H164.145C163.394 64.4113 162.786 63.7153 162.786 62.8568V56.117C162.786 55.2585 163.394 54.5625 164.145 54.5625H171.465C172.216 54.5625 172.825 55.2585 172.825 56.117V62.857C172.824 63.7155 172.216 64.4113 171.465 64.4113Z" fill="#FFB713"/>
<path d="M135.624 106.37H105.683C104.932 106.37 104.324 105.675 104.324 104.816V70.5728C104.324 69.7143 104.932 69.0183 105.683 69.0183H135.624C136.375 69.0183 136.983 69.7143 136.983 70.5728V104.816C136.983 105.675 136.375 106.37 135.624 106.37Z" fill="white"/>
<path d="M105.683 69.5007H135.625C136.05 69.5009 136.501 69.9182 136.501 70.573V104.816L136.496 104.936C136.444 105.521 136.023 105.888 135.625 105.888H105.683C105.258 105.888 104.806 105.471 104.806 104.816V70.573C104.806 69.9181 105.258 69.5007 105.683 69.5007Z" stroke="#C7C4BC" stroke-opacity="0.27" stroke-width="0.964913"/>
<path d="M171.466 106.37H141.524C140.774 106.37 140.165 105.675 140.165 104.816V70.5728C140.165 69.7143 140.774 69.0183 141.524 69.0183H171.466C172.216 69.0183 172.825 69.7143 172.825 70.5728V104.816C172.825 105.675 172.216 106.37 171.466 106.37Z" fill="white"/>
<path d="M141.524 69.5007H171.466C171.891 69.5009 172.343 69.9182 172.343 70.573V104.816L172.337 104.936C172.286 105.521 171.864 105.888 171.466 105.888H141.524C141.099 105.888 140.648 105.471 140.647 104.816V70.573C140.647 69.9181 141.099 69.5007 141.524 69.5007Z" stroke="#C7C4BC" stroke-opacity="0.27" stroke-width="0.964913"/>
<path d="M135.624 148.33H105.683C104.932 148.33 104.324 147.634 104.324 146.775V112.532C104.324 111.674 104.932 110.978 105.683 110.978H135.624C136.375 110.978 136.983 111.674 136.983 112.532V146.776C136.983 147.634 136.375 148.33 135.624 148.33Z" fill="white"/>
<path d="M105.683 111.46H135.625C136.05 111.46 136.501 111.878 136.501 112.532V146.776L136.496 146.896C136.444 147.481 136.023 147.848 135.625 147.848H105.683C105.258 147.848 104.806 147.43 104.806 146.776V112.532C104.806 111.878 105.258 111.46 105.683 111.46Z" stroke="#C7C4BC" stroke-opacity="0.27" stroke-width="0.964913"/>
<path d="M171.466 148.33H141.524C140.774 148.33 140.165 147.634 140.165 146.775V112.532C140.165 111.674 140.774 110.978 141.524 110.978H171.466C172.216 110.978 172.825 111.674 172.825 112.532V146.776C172.825 147.634 172.216 148.33 171.466 148.33Z" fill="white"/>
<path d="M141.524 111.46H171.466C171.891 111.46 172.343 111.878 172.343 112.532V146.776L172.337 146.896C172.286 147.481 171.864 147.848 171.466 147.848H141.524C141.099 147.848 140.648 147.43 140.647 146.776V112.532C140.647 111.878 141.099 111.46 141.524 111.46Z" stroke="#C7C4BC" stroke-opacity="0.27" stroke-width="0.964913"/>
<path d="M135.624 190.29H105.683C104.932 190.29 104.324 189.594 104.324 188.735V154.492C104.324 153.633 104.932 152.937 105.683 152.937H135.624C136.375 152.937 136.983 153.633 136.983 154.492V188.735C136.983 189.594 136.375 190.29 135.624 190.29Z" fill="#F4F4F4"/>
<path d="M171.466 190.29H141.524C140.774 190.29 140.165 189.594 140.165 188.735V154.492C140.165 153.633 140.774 152.937 141.524 152.937H171.466C172.216 152.937 172.825 153.633 172.825 154.492V188.735C172.825 189.594 172.216 190.29 171.466 190.29Z" fill="#F9FCFF"/>
<path d="M125.069 77.8365C124.749 80.6865 116.551 80.6767 116.239 77.8365L107.586 86.9854L111.799 91.8032L114.624 88.5716V97.553C117.63 97.553 123.679 97.553 126.684 97.553V88.5716L129.509 91.8032L133.722 86.9854L125.069 77.8365Z" fill="#F99BA2"/>
<path d="M160.495 77.8365C158.501 77.8365 154.489 77.8365 152.495 77.8365L148.035 97.5528C152.252 97.5528 160.739 97.5528 164.955 97.5528L160.495 77.8365Z" fill="#C392A8"/>
<path d="M124.653 161.755C122.659 161.755 118.647 161.755 116.654 161.755L112.193 181.472C116.411 181.472 124.898 181.472 129.114 181.472L124.653 161.755Z" fill="#F4B3EA"/>
<path d="M164.033 181.472H148.957L153.934 171.014L152.726 165.119L151.734 165.791L151.019 162.956L152.726 161.755H154.801C155.35 163.415 157.639 163.415 158.188 161.755H160.263L161.969 162.956L161.254 165.791L160.263 165.119L159.053 171.014L164.033 181.472Z" fill="#F99BA2"/>
<path d="M128.132 139.387L123.215 129.055C123.235 128.957 124.404 123.254 124.424 123.16C124.439 123.17 125.4 123.822 125.414 123.832L125.415 123.831L125.416 123.832C125.414 123.828 127.044 121.643 127.045 121.641L126.13 120.997L126.131 120.996C126.106 120.979 124.446 119.812 124.424 119.796H122.348C121.775 121.465 119.532 121.46 118.961 119.796H116.886C116.868 119.809 115.199 120.982 115.179 120.996L115.179 120.997L114.265 121.641C114.265 121.642 115.896 123.829 115.894 123.832L115.895 123.831L115.895 123.832C115.913 123.819 116.868 123.172 116.886 123.16C116.904 123.25 118.076 128.966 118.094 129.055C118.012 129.228 113.196 139.346 113.117 139.513H128.193L128.132 139.387Z" fill="#F7C089"/>
<path d="M160.516 120.587C160.516 120.586 159.662 119.798 159.661 119.797C160.905 122.714 152.082 122.711 153.328 119.797C153.399 119.731 143.705 128.688 143.426 128.945L145.108 139.514H147.326C147.261 138.345 146.936 132.452 146.879 131.421L151.436 128.485L150.464 139.514C150.465 139.514 162.524 139.514 162.525 139.514L161.553 128.485L166.11 131.421C166.055 132.423 165.726 138.378 165.663 139.514H167.881L169.562 128.945L160.516 120.587Z" fill="#E1B0C6"/>
<path d="M225.562 76.8458C221.117 74.5257 215.995 74.4647 211.419 76.2089C206.843 77.9533 202.825 81.4991 200.589 86.3746C198.357 91.2433 197.882 97.4813 200.463 104.644L200.538 104.85L200.443 105.054L194.143 118.642L207.022 114.026L207.291 113.929L207.507 114.105C214.24 119.574 222.484 118.468 228.472 113.675C234.465 108.878 238.166 100.404 235.728 91.1812L235.727 91.1783C233.816 83.7591 230.002 79.1629 225.562 76.8458Z" fill="white" stroke="#F0EFED" stroke-width="1.04478"/>
<path d="M223.897 89.192L225.619 107.358L209.533 106.875L212.325 88.8447L223.897 89.192Z" fill="#F0877E"/>
<path d="M213.416 91.9038C213.458 91.8894 213.584 92.5535 214.199 93.4157C214.508 93.8398 214.956 94.2993 215.57 94.6429C216.181 94.9902 216.953 95.1978 217.776 95.222C218.597 95.2538 219.382 95.119 220.014 94.8208C220.652 94.5294 221.11 94.0801 221.424 93.6676C222.047 92.8207 222.159 92.1519 222.202 92.1679C222.219 92.1703 222.209 92.3368 222.125 92.6239C222.04 92.9091 221.882 93.3192 221.574 93.7679C221.266 94.2113 220.795 94.7025 220.121 95.0245C219.455 95.3544 218.622 95.5029 217.766 95.4691C216.909 95.4444 216.089 95.2178 215.45 94.8389C214.805 94.4635 214.348 93.9653 214.047 93.5126C213.745 93.0575 213.585 92.6469 213.498 92.3608C213.413 92.0729 213.399 91.9061 213.416 91.9038Z" fill="white"/>
<path d="M48.0447 86.8458C52.4903 84.5257 57.6115 84.4647 62.1875 86.2089C66.7637 87.9533 70.7816 91.4991 73.0176 96.3746C75.2503 101.243 75.7254 107.481 73.1437 114.644L73.069 114.85L73.1641 115.054L79.4634 128.642L66.5848 124.026L66.3157 123.929L66.0999 124.105C59.3672 129.574 51.1233 128.468 45.1348 123.675C39.1422 118.878 35.4407 110.404 37.8789 101.181L37.8796 101.178C39.7911 93.7591 43.6052 89.1629 48.0447 86.8458Z" fill="white" stroke="#F0EFED" stroke-width="1.04478"/>
<path d="M49.7091 99.1919L47.9878 117.357L64.0732 116.875L61.2809 98.8446L49.7091 99.1919Z" fill="#F0877E"/>
<path d="M60.1901 101.904C60.1486 101.889 60.0225 102.553 59.4072 103.416C59.0984 103.84 58.6503 104.299 58.036 104.643C57.4257 104.99 56.653 105.198 55.8308 105.222C55.0092 105.254 54.2246 105.119 53.5929 104.821C52.9549 104.529 52.4967 104.08 52.1829 103.668C51.5594 102.821 51.4473 102.152 51.4046 102.168C51.3873 102.17 51.3979 102.337 51.4817 102.624C51.5665 102.909 51.7242 103.319 52.0329 103.768C52.3405 104.211 52.8116 104.703 53.485 105.025C54.1517 105.354 54.9842 105.503 55.8404 105.469C56.6973 105.444 57.517 105.218 58.1567 104.839C58.8014 104.464 59.2584 103.965 59.5591 103.513C59.8617 103.057 60.0214 102.647 60.1084 102.361C60.1938 102.073 60.207 101.906 60.1901 101.904Z" fill="white"/>
<g opacity="0.5">
<path d="M58.683 158.882H36.6322C35.5518 158.882 34.6758 159.884 34.6758 161.12V203.218C34.6758 204.453 35.5516 205.455 36.6322 205.455H58.683C59.7634 205.455 60.6394 204.453 60.6394 203.218V161.12C60.6394 159.884 59.7636 158.882 58.683 158.882Z" fill="#FF7200"/>
<path d="M75.9204 175.812H61.885C61.1973 175.812 60.6396 176.45 60.6396 177.236V204.032C60.6396 204.818 61.1971 205.456 61.885 205.456H75.9204C76.608 205.456 77.1655 204.819 77.1655 204.032V177.236C77.1655 176.45 76.608 175.812 75.9204 175.812Z" fill="#FF7200"/>
<path d="M73.6103 163.57C60.5244 164.107 64.0245 160.123 63.5505 175.075C63.5505 175.482 63.839 175.812 64.1946 175.812H73.6105C73.9661 175.812 74.2544 175.482 74.2544 175.075V164.307C74.2542 163.9 73.9659 163.57 73.6103 163.57Z" fill="#FF7200"/>
</g>
<path d="M181.313 130.894C180.406 133.799 180.354 137.014 181.167 139.952C181.666 141.758 182.493 143.564 182.241 145.43C182.036 146.953 181.128 148.285 180.949 149.812C180.586 152.914 183.289 155.856 182.563 158.881C182.229 160.273 181.182 161.376 179.97 161.945C178.758 162.514 177.398 162.602 176.084 162.478C174.143 162.294 172.045 161.491 171.149 159.605C170.434 158.102 170.656 156.296 170.904 154.626C171.999 147.241 173.264 139.804 176.01 132.949" fill="url(#paint0_linear_4232_51397)"/>
<path d="M182.174 153.716C182.174 153.716 182.099 153.755 181.947 153.796C181.796 153.839 181.564 153.875 181.265 153.857C180.968 153.833 180.601 153.751 180.224 153.53C179.851 153.313 179.464 152.947 179.224 152.415C178.982 151.89 178.885 151.217 179.026 150.539C179.1 150.202 179.236 149.865 179.439 149.568C179.64 149.27 179.898 149.011 180.176 148.775C180.732 148.302 181.387 147.922 181.926 147.353C182.464 146.786 182.799 145.98 182.907 145.122C183.017 144.262 182.931 143.399 182.74 142.607C182.545 141.811 182.257 141.075 181.971 140.381C181.389 139 180.841 137.742 180.634 136.597C180.411 135.459 180.475 134.493 180.645 133.871C180.807 133.243 181.008 132.949 181.008 132.949C181.026 132.958 180.841 133.263 180.697 133.886C180.545 134.504 180.498 135.453 180.729 136.574C180.945 137.701 181.496 138.941 182.088 140.323C182.377 141.018 182.671 141.759 182.871 142.568C183.068 143.377 183.158 144.257 183.044 145.144C182.934 146.026 182.585 146.869 182.021 147.458C181.461 148.046 180.801 148.424 180.254 148.885C179.699 149.332 179.271 149.912 179.138 150.567C178.999 151.214 179.085 151.862 179.312 152.368C179.537 152.88 179.902 153.238 180.262 153.457C180.624 153.677 180.98 153.766 181.27 153.799C181.857 153.849 182.171 153.691 182.174 153.716Z" fill="#796F6A"/>
<path d="M155.461 201.259L154.357 205.874L142.979 205.76C142.979 205.76 143.816 203.587 150.036 203.689L150.494 201.259H155.461Z" fill="#F7AFA4"/>
<path d="M196.877 132.028C196.767 132.265 193.88 148.458 193.88 148.458L200.688 148.805L203.324 134.879L196.877 132.028Z" fill="#455A64"/>
<path d="M193.881 148.459L193.101 148.099L196.047 132.138L196.971 132.07L193.881 148.459Z" fill="#263238"/>
<path d="M199.615 135.566C199.591 135.778 199.728 135.969 199.921 135.995C200.115 136.021 200.29 135.872 200.314 135.66C200.338 135.449 200.201 135.257 200.007 135.231C199.814 135.205 199.638 135.355 199.615 135.566Z" fill="#263238"/>
<path d="M201.02 146.934L201.12 144.813L198.212 143.506L199.346 140.568C199.899 139.197 201.407 138.634 202.613 139.348C203.001 139.578 203.41 139.82 203.779 140.039C204.61 140.532 205.215 141.383 205.434 142.387C205.813 144.118 206.145 147.729 206.11 147.566" fill="#F7AFA4"/>
<path d="M211.222 202.716C211.222 202.716 223.186 206.329 223.667 206.514C224.387 206.79 224.266 209.672 223.145 209.626C222.614 209.605 213.955 209.978 212.861 209.904C211.766 209.829 208.466 208.41 208.466 208.41L211.222 202.716Z" fill="url(#paint1_linear_4232_51397)"/>
<path d="M216.207 207.697C216.267 207.706 216.347 207.015 216.734 206.295C217.11 205.569 217.617 205.146 217.58 205.093C217.559 205.043 216.964 205.411 216.56 206.186C216.149 206.956 216.156 207.702 216.207 207.697Z" fill="#263238"/>
<path d="M214.957 207.084C215.016 207.095 215.137 206.478 215.456 205.796C215.768 205.11 216.15 204.636 216.107 204.592C216.074 204.549 215.607 204.976 215.277 205.697C214.942 206.416 214.906 207.08 214.957 207.084Z" fill="#263238"/>
<path d="M213.788 206.739C213.849 206.736 213.803 206.083 214.068 205.36C214.322 204.633 214.762 204.187 214.72 204.139C214.696 204.09 214.159 204.493 213.882 205.281C213.596 206.065 213.74 206.758 213.788 206.739Z" fill="#263238"/>
<path d="M214.001 205.053C214.022 205.059 214.128 204.694 214.129 204.082C214.128 203.777 214.096 203.411 214.008 203.017C213.964 202.82 213.905 202.617 213.83 202.412C213.791 202.308 213.747 202.189 213.638 202.092C213.526 201.982 213.324 202.005 213.227 202.114C213.118 202.218 213.083 202.365 213.068 202.483C213.055 202.603 213.05 202.715 213.052 202.828C213.055 203.052 213.082 203.268 213.126 203.467C213.215 203.865 213.357 204.199 213.494 204.464C213.773 204.994 214.015 205.265 214.032 205.25C214.059 205.229 213.859 204.925 213.62 204.393C213.503 204.127 213.38 203.799 213.306 203.422C213.269 203.234 213.249 203.033 213.249 202.826C213.254 202.626 213.251 202.375 213.359 202.279C213.416 202.227 213.467 202.224 213.517 202.264C213.57 202.308 213.614 202.398 213.648 202.492C213.723 202.687 213.783 202.881 213.829 203.068C213.924 203.443 213.969 203.793 213.988 204.088C214.023 204.678 213.968 205.048 214.001 205.053Z" fill="#263238"/>
<path d="M213.985 204.923C213.991 204.9 213.702 204.791 213.213 204.787C212.97 204.787 212.678 204.815 212.364 204.901C212.209 204.946 212.043 204.99 211.875 205.097C211.711 205.188 211.54 205.436 211.605 205.694C211.656 205.937 211.847 206.106 212.036 206.16C212.227 206.218 212.411 206.197 212.573 206.159C212.901 206.076 213.156 205.9 213.35 205.742C213.733 205.413 213.921 205.162 213.906 205.144C213.885 205.116 213.659 205.331 213.269 205.615C213.073 205.752 212.827 205.899 212.535 205.961C212.39 205.992 212.233 206.001 212.091 205.955C211.95 205.912 211.833 205.795 211.8 205.644C211.765 205.498 211.847 205.365 211.977 205.28C212.105 205.193 212.264 205.143 212.411 205.095C212.707 205.003 212.984 204.96 213.217 204.941C213.687 204.906 213.98 204.958 213.985 204.923Z" fill="#263238"/>
<path d="M218.044 207.839C218.103 207.832 218.045 207.274 218.28 206.662C218.504 206.044 218.903 205.69 218.866 205.64C218.846 205.586 218.346 205.896 218.095 206.579C217.836 207.259 217.996 207.862 218.044 207.839Z" fill="#263238"/>
<path d="M209.695 208.44C209.69 208.454 209.854 208.538 210.158 208.678C210.465 208.805 210.915 208.982 211.489 209.128C212.633 209.443 214.265 209.621 216.057 209.601C217.85 209.579 219.465 209.49 220.637 209.439C221.192 209.407 221.656 209.38 222.024 209.359C222.351 209.335 222.532 209.315 222.531 209.3C222.531 209.285 222.349 209.276 222.021 209.274C221.654 209.277 221.189 209.28 220.633 209.284C219.421 209.31 217.823 209.344 216.056 209.382C214.272 209.402 212.66 209.25 211.52 208.978C210.376 208.721 209.709 208.4 209.695 208.44Z" fill="#263238"/>
<path d="M209.342 208.738C209.358 208.768 209.685 208.559 210.238 208.295C210.784 208.039 211.603 207.733 212.502 207.884C213.404 208.035 214.043 208.696 214.459 209.155C214.879 209.63 215.125 209.945 215.149 209.923C215.167 209.906 214.963 209.56 214.564 209.049C214.362 208.797 214.106 208.505 213.77 208.24C213.439 207.974 213.012 207.748 212.534 207.669C211.57 207.508 210.72 207.859 210.179 208.155C209.629 208.461 209.329 208.717 209.342 208.738Z" fill="#263238"/>
<path d="M196.104 197.312C196.104 197.312 184.782 205.4 184.376 205.734C183.767 206.237 184.466 208.63 185.522 208.216C186.021 208.019 195.522 205.136 196.543 204.703C197.565 204.269 200.315 201.823 200.315 201.823L196.104 197.312Z" fill="url(#paint2_linear_4232_51397)"/>
<path d="M192.74 203.709C192.789 203.697 192.588 202.985 191.983 202.387C191.382 201.782 190.713 201.628 190.707 201.683C190.686 201.746 191.286 201.981 191.847 202.548C192.416 203.106 192.685 203.737 192.74 203.709Z" fill="#263238"/>
<path d="M193.755 202.708C193.803 202.688 193.584 202.067 193.065 201.493C192.55 200.915 191.986 200.663 191.967 200.715C191.938 200.772 192.434 201.096 192.923 201.646C193.415 202.19 193.702 202.738 193.755 202.708Z" fill="#263238"/>
<path d="M194.778 201.992C194.83 201.994 194.773 201.285 194.283 200.633C193.8 199.975 193.176 199.768 193.167 199.823C193.141 199.883 193.683 200.161 194.128 200.77C194.582 201.371 194.719 202.008 194.778 201.992Z" fill="#263238"/>
<path d="M194.105 200.462C194.135 200.446 193.98 200.112 193.849 199.538C193.785 199.251 193.731 198.903 193.716 198.514C193.709 198.32 193.712 198.115 193.729 197.905C193.735 197.804 193.752 197.704 193.79 197.645C193.826 197.59 193.876 197.576 193.945 197.606C194.074 197.662 194.141 197.902 194.202 198.091C194.26 198.289 194.296 198.487 194.313 198.678C194.348 199.062 194.322 199.414 194.284 199.707C194.205 200.294 194.099 200.65 194.131 200.66C194.151 200.669 194.306 200.331 194.424 199.734C194.481 199.436 194.524 199.07 194.497 198.661C194.484 198.456 194.449 198.242 194.389 198.027C194.36 197.918 194.324 197.814 194.279 197.704C194.231 197.596 194.158 197.468 194.024 197.405C193.902 197.333 193.702 197.379 193.627 197.52C193.55 197.649 193.541 197.777 193.533 197.888C193.518 198.109 193.519 198.322 193.532 198.525C193.558 198.93 193.629 199.288 193.713 199.579C193.885 200.163 194.087 200.475 194.105 200.462Z" fill="#263238"/>
<path d="M194.083 200.326C194.098 200.357 194.363 200.21 194.819 200.089C195.047 200.03 195.322 199.979 195.63 199.968C195.784 199.965 195.949 199.96 196.095 200C196.243 200.038 196.358 200.138 196.366 200.288C196.376 200.443 196.297 200.594 196.174 200.681C196.052 200.772 195.9 200.815 195.753 200.834C195.458 200.872 195.183 200.812 194.958 200.747C194.508 200.606 194.232 200.476 194.219 200.509C194.211 200.531 194.459 200.709 194.916 200.894C195.144 200.981 195.437 201.064 195.772 201.034C195.937 201.018 196.119 200.976 196.284 200.858C196.449 200.744 196.584 200.519 196.565 200.271C196.555 200.004 196.323 199.824 196.141 199.792C195.952 199.746 195.781 199.759 195.621 199.767C195.297 199.79 195.012 199.859 194.781 199.94C194.316 200.106 194.071 200.304 194.083 200.326Z" fill="#263238"/>
<path d="M186.966 207.767C186.979 207.787 187.156 207.642 187.243 207.289C187.337 206.944 187.278 206.413 187.031 205.948C186.912 205.713 186.777 205.511 186.651 205.331C186.528 205.152 186.399 204.989 186.267 204.881C186.136 204.77 185.999 204.72 185.905 204.716C185.811 204.711 185.762 204.737 185.764 204.749C185.764 204.784 185.966 204.767 186.175 204.999C186.282 205.11 186.387 205.265 186.502 205.45C186.618 205.633 186.745 205.833 186.855 206.053C187.084 206.489 187.153 206.939 187.104 207.257C187.063 207.577 186.939 207.746 186.966 207.767Z" fill="#263238"/>
<path d="M191.03 204.452C191.082 204.458 191.066 203.831 190.631 203.268C190.202 202.7 189.639 202.571 189.635 202.628C189.613 202.689 190.092 202.894 190.478 203.408C190.872 203.913 190.971 204.464 191.03 204.452Z" fill="#263238"/>
<path d="M199.151 202.256C199.141 202.243 198.967 202.382 198.653 202.629C198.335 202.869 197.867 203.206 197.257 203.562C196.648 203.919 195.897 204.289 195.04 204.639C194.183 204.988 193.221 205.316 192.204 205.638C190.168 206.277 188.324 206.863 186.993 207.299C186.355 207.513 185.826 207.69 185.42 207.826C185.05 207.955 184.847 208.033 184.851 208.048C184.855 208.062 185.064 208.012 185.441 207.908C185.851 207.789 186.387 207.634 187.032 207.447C188.373 207.049 190.221 206.488 192.26 205.847C193.279 205.525 194.244 205.188 195.105 204.826C195.965 204.463 196.719 204.074 197.325 203.696C197.932 203.319 198.393 202.959 198.699 202.696C199.002 202.428 199.158 202.266 199.151 202.256Z" fill="#263238"/>
<path d="M199.569 202.427C199.574 202.403 199.217 202.259 198.609 202.149C198.011 202.046 197.104 201.993 196.23 202.466C195.797 202.7 195.453 203.057 195.211 203.42C194.966 203.784 194.803 204.147 194.681 204.454C194.442 205.073 194.344 205.471 194.366 205.48C194.395 205.493 194.542 205.112 194.809 204.52C195.078 203.945 195.503 203.104 196.32 202.661C197.134 202.219 197.999 202.239 198.591 202.302C199.191 202.371 199.562 202.461 199.569 202.427Z" fill="#263238"/>
<path d="M173.201 126.734C176.784 126.915 179.601 130.135 179.607 134.048C179.613 137.08 179.569 140.377 179.392 142.333C178.981 146.882 175.846 147.661 175.846 147.661C175.846 147.661 175.946 150.488 176.084 153.17C176.216 155.725 174.296 157.973 171.792 158.193C169.314 158.41 167.189 156.556 167.02 154.029L166.18 134.397C165.996 130.085 169.249 126.534 173.201 126.734Z" fill="url(#paint3_linear_4232_51397)"/>
<path d="M175.865 147.667C175.865 147.667 173.056 147.941 170.204 146.313C170.204 146.313 171.746 149.554 175.898 148.965L175.865 147.667Z" fill="#995037"/>
<path d="M170.829 134.026C170.898 134.135 171.311 133.947 171.83 133.824C172.347 133.692 172.795 133.668 172.814 133.537C172.838 133.415 172.345 133.217 171.736 133.369C171.127 133.517 170.759 133.927 170.829 134.026Z" fill="#263238"/>
<path d="M167.244 151.671C167.204 150.738 168.163 146.68 168.545 144.187C168.927 141.695 167.434 141.291 167.197 139.822C166.96 138.353 167.635 136.954 167.635 136.954C169.818 137.806 170.679 136.111 171.872 135.106C173.139 134.038 173.416 132.727 173.934 131.075C174.452 129.422 175.055 128.392 176.648 128.23C176.648 128.23 178.206 129.09 178.771 130.885C179.258 132.433 179.646 138.468 179.646 138.468C179.867 135.573 182.019 134.358 181.435 130.101C181.183 128.261 179.786 125.75 177.629 125.383C177.004 125.276 175.82 125.193 175.82 125.193C174.532 123.929 173.904 123.966 172.671 123.369C170.013 122.081 166.816 124.382 165.05 126.902C163.692 128.842 163.033 131.466 162.664 133.935C162.408 135.646 162.412 137.385 162.561 139.111C162.649 140.139 162.534 141.442 161.608 142.23C160.289 143.353 159.937 145.494 160.853 148.349C161.768 151.204 147.493 173.618 147.493 173.618C147.493 173.618 160.335 180.056 163.806 176.395C165.174 175.636 167.244 151.671 167.244 151.671Z" fill="url(#paint4_linear_4232_51397)"/>
<path d="M161.166 149.433C161.166 149.433 161.075 149.369 160.949 149.196C160.826 149.022 160.678 148.724 160.626 148.304C160.575 147.889 160.621 147.352 160.867 146.812C161.105 146.27 161.52 145.749 162.012 145.234C162.499 144.715 163.08 144.188 163.514 143.463C163.961 142.743 164.09 141.79 164.025 140.821C163.977 139.847 163.759 138.826 163.81 137.739C163.835 137.199 163.927 136.642 164.156 136.131C164.385 135.622 164.773 135.188 165.235 134.907C166.161 134.331 167.199 134.176 168.047 133.663C168.907 133.165 169.462 132.279 169.867 131.42C170.274 130.549 170.565 129.665 170.942 128.886C171.309 128.104 171.778 127.43 172.335 126.979C172.885 126.522 173.515 126.296 174.069 126.331C174.623 126.367 175.065 126.622 175.355 126.895C175.651 127.17 175.789 127.477 175.852 127.684C175.885 127.789 175.899 127.872 175.904 127.928C175.912 127.984 175.914 128.012 175.912 128.013C175.901 128.015 175.898 127.897 175.826 127.694C175.756 127.494 175.614 127.201 175.32 126.94C175.034 126.681 174.6 126.441 174.065 126.415C173.534 126.389 172.925 126.614 172.395 127.064C171.856 127.509 171.403 128.168 171.045 128.943C170.677 129.715 170.39 130.599 169.981 131.483C169.575 132.354 169.008 133.271 168.113 133.792C167.236 134.321 166.197 134.479 165.306 135.037C164.861 135.308 164.499 135.715 164.28 136.197C164.063 136.682 163.972 137.219 163.947 137.745C163.894 138.805 164.108 139.822 164.154 140.811C164.218 141.793 164.08 142.787 163.612 143.53C163.16 144.274 162.569 144.798 162.081 145.31C161.587 145.817 161.175 146.324 160.937 146.849C160.692 147.369 160.639 147.89 160.68 148.296C160.775 149.134 161.197 149.425 161.166 149.433Z" fill="#796F6A"/>
<path d="M168.953 149.131L178.237 150.086L182.009 151.251C183.621 151.749 185.096 152.671 186.305 153.937L198.459 166.664L200.677 146.893L206.749 147.469L205.736 172.919C204.831 176.015 202.195 178.187 199.117 178.195C197.296 178.2 195.556 177.361 194.228 175.999L185.574 167.125L185.314 179.809L191.322 185.131L168.165 199.204C168.165 199.204 166.909 193.827 167.481 181.848C167.585 179.65 163.892 172.981 163.61 171.017C162.526 163.476 162.696 152.44 162.696 152.44L168.953 149.131Z" fill="url(#paint5_linear_4232_51397)"/>
<path d="M163.249 152.206C163.249 152.206 158.551 154.105 157.415 158.119C156.408 161.678 153.048 181.694 153.048 181.694L149.713 202.878L156.695 203.168L164.734 167.064L163.249 152.206Z" fill="url(#paint6_linear_4232_51397)"/>
<path d="M162.937 175.602C162.95 175.605 163 175.452 163.078 175.171C163.158 174.89 163.264 174.481 163.389 173.974C163.639 172.96 163.962 171.553 164.285 169.99C164.607 168.426 164.867 167.004 165.038 165.971C165.124 165.454 165.188 165.035 165.227 164.744C165.267 164.454 165.282 164.292 165.268 164.289C165.254 164.286 165.213 164.443 165.15 164.728C165.082 165.061 164.998 165.465 164.899 165.94C164.681 167.016 164.4 168.405 164.089 169.942C163.767 171.476 163.476 172.862 163.251 173.936C163.154 174.412 163.071 174.816 163.002 175.149C162.948 175.437 162.923 175.598 162.937 175.602Z" fill="#FFB713"/>
<path d="M205.675 149.369C205.73 149.374 205.81 148.927 205.852 148.371C205.896 147.814 205.885 147.358 205.831 147.353C205.776 147.348 205.696 147.795 205.653 148.352C205.61 148.909 205.62 149.365 205.675 149.369Z" fill="#C76F1C"/>
<path d="M203.898 149.432C203.953 149.434 204.02 148.958 204.048 148.368C204.075 147.778 204.053 147.297 203.998 147.294C203.943 147.291 203.876 147.767 203.848 148.357C203.821 148.947 203.843 149.428 203.898 149.432Z" fill="#C76F1C"/>
<path d="M202.132 149.308C202.187 149.311 202.259 148.781 202.292 148.124C202.326 147.466 202.309 146.931 202.253 146.927C202.198 146.924 202.126 147.454 202.093 148.112C202.059 148.769 202.076 149.304 202.132 149.308Z" fill="#C76F1C"/>
<path d="M198.718 169.7C198.774 169.694 198.744 168.91 198.653 167.949C198.563 166.987 198.445 166.213 198.39 166.219C198.335 166.226 198.363 167.01 198.454 167.971C198.545 168.932 198.663 169.706 198.718 169.7Z" fill="#FFB713"/>
<path d="M155.546 200.962C155.491 200.952 155.37 201.427 155.276 202.024C155.182 202.62 155.149 203.113 155.204 203.123C155.258 203.133 155.379 202.658 155.473 202.061C155.568 201.465 155.6 200.972 155.546 200.962Z" fill="#C76F1C"/>
<path d="M153.252 200.962C153.197 200.952 153.086 201.383 153.004 201.924C152.921 202.466 152.899 202.913 152.953 202.923C153.007 202.933 153.118 202.502 153.201 201.96C153.283 201.419 153.306 200.971 153.252 200.962Z" fill="#C76F1C"/>
<path d="M151.073 200.719C151.017 200.715 150.938 201.205 150.844 201.807C150.752 202.41 150.68 202.902 150.734 202.917C150.786 202.933 150.947 202.457 151.041 201.843C151.137 201.231 151.127 200.724 151.073 200.719Z" fill="#C76F1C"/>
<path d="M159.479 154.674C159.479 154.714 159.967 154.682 160.724 154.855C161.475 155.022 162.501 155.446 163.387 156.29C164.273 157.134 164.798 158.186 165.05 158.975C165.31 159.77 165.346 160.301 165.383 160.296C165.395 160.295 165.399 160.162 165.377 159.922C165.356 159.683 165.3 159.339 165.185 158.926C164.961 158.105 164.439 157.001 163.519 156.125C162.599 155.249 161.525 154.834 160.75 154.703C160.359 154.634 160.039 154.621 159.819 154.631C159.599 154.639 159.479 154.66 159.479 154.674Z" fill="#FFB713"/>
<path d="M184.561 172.548C184.522 172.532 184.742 171.924 184.962 170.904C185.185 169.887 185.369 168.444 185.294 166.85C185.214 165.256 184.89 163.843 184.57 162.858C184.252 161.869 183.975 161.29 184.012 161.269C184.026 161.261 184.106 161.4 184.238 161.658C184.374 161.915 184.543 162.303 184.723 162.796C185.087 163.779 185.443 165.213 185.524 166.837C185.601 168.461 185.386 169.929 185.121 170.948C184.989 171.458 184.859 171.864 184.749 172.135C184.642 172.408 184.576 172.555 184.561 172.548Z" fill="#FFB713"/>
<path d="M185.155 179.542C185.155 179.56 185.012 179.569 184.753 179.571C184.494 179.576 184.12 179.56 183.659 179.52C182.737 179.442 181.467 179.232 180.106 178.808C178.746 178.382 177.566 177.826 176.745 177.36C176.335 177.128 176.009 176.925 175.792 176.772C175.574 176.621 175.457 176.53 175.465 176.515C175.484 176.481 175.984 176.78 176.817 177.2C177.649 177.622 178.825 178.145 180.169 178.567C181.515 178.985 182.765 179.22 183.676 179.343C184.587 179.467 185.156 179.502 185.155 179.542Z" fill="#FFB713"/>
<path d="M174.902 176.016C175.629 176.726 176.756 176.829 177.732 176.809C178.707 176.789 179.675 176.58 180.65 176.597C181.626 176.615 182.658 176.903 183.31 177.693C183.511 177.937 183.674 178.237 183.688 178.563C183.702 178.89 183.532 179.241 183.246 179.339C183.067 179.4 182.874 179.359 182.691 179.317C179.958 178.701 177.017 178.001 174.902 176.016Z" fill="#FFB713"/>
<path d="M165.956 176.961C166.678 176.733 166.794 175.813 166.865 174.997C167.155 171.646 166.545 168.207 165.128 165.216C164.787 167.431 164.222 169.739 163.82 171.993L165.956 176.961Z" fill="#FFB713"/>
<path d="M198.262 166.404C197.473 167.433 197.168 168.881 197.466 170.182C197.515 170.395 197.605 170.633 197.798 170.696C197.955 170.748 198.128 170.654 198.231 170.514C198.333 170.373 198.378 170.194 198.415 170.019C198.674 168.798 198.653 167.507 198.356 166.297" fill="#FFB713"/>
<path d="M210.165 200.767C210.165 200.767 182.401 180.898 181.263 180.485C180.127 180.071 177.379 178.108 174.632 178.934C171.884 179.761 169.421 182.448 168.19 186.376C166.958 190.304 166.863 199.09 166.863 199.09C166.863 199.09 169.042 206.015 173.305 207.462C173.661 207.583 174.033 207.684 174.416 207.767C179.62 208.893 184.911 206.282 187.825 201.445L188.444 200.416C188.444 200.416 206.607 207.696 206.891 207.592L210.165 200.767Z" fill="url(#paint7_linear_4232_51397)"/>
<path d="M219.633 177.592C219.633 177.592 223.03 178.915 223.044 183.07C223.071 191.028 208.304 199.801 208.304 199.801L188.653 185.596L185.211 183.214C185.211 183.214 213.949 174.18 219.633 177.592Z" fill="url(#paint8_linear_4232_51397)"/>
<path d="M175.814 195.297C175.814 195.297 175.864 195.325 175.966 195.37C176.076 195.418 176.227 195.483 176.421 195.567C176.831 195.739 177.422 195.987 178.181 196.306C179.725 196.941 181.953 197.856 184.723 198.995C187.502 200.125 190.83 201.47 194.564 202.953C198.299 204.434 202.438 206.06 206.857 207.693L206.938 207.722L206.977 207.64C207.671 206.194 208.403 204.669 209.146 203.121C209.525 202.332 209.901 201.548 210.252 200.816L210.294 200.727L210.217 200.674C201.88 194.9 194.421 189.734 189.039 186.006C186.351 184.157 184.182 182.664 182.677 181.628C181.931 181.121 181.351 180.725 180.949 180.451C180.756 180.323 180.607 180.223 180.498 180.151C180.396 180.084 180.341 180.054 180.341 180.054C180.341 180.054 180.389 180.096 180.488 180.169C180.594 180.246 180.74 180.351 180.929 180.488C181.326 180.769 181.9 181.175 182.637 181.697C184.134 182.747 186.291 184.259 188.965 186.132C194.339 189.875 201.786 195.061 210.109 200.857L210.074 200.715C209.723 201.447 209.347 202.23 208.969 203.019C208.226 204.568 207.494 206.094 206.801 207.54L206.921 207.487C202.503 205.859 198.362 204.241 194.624 202.772C190.892 201.29 187.558 199.966 184.769 198.858C181.99 197.746 179.756 196.852 178.206 196.232C177.442 195.928 176.846 195.692 176.434 195.528C176.237 195.452 176.084 195.393 175.973 195.35C175.869 195.312 175.814 195.297 175.814 195.297Z" fill="#29586E"/>
<path d="M198.607 192.773C198.615 192.785 198.797 192.649 199.119 192.394C199.441 192.139 199.9 191.761 200.463 191.287C201.588 190.338 203.119 188.993 204.765 187.451C206.412 185.908 207.862 184.461 208.892 183.391C209.407 182.856 209.819 182.417 210.099 182.108C210.379 181.8 210.529 181.625 210.519 181.614C210.51 181.603 210.341 181.758 210.045 182.047C209.724 182.363 209.303 182.778 208.796 183.277C207.743 184.318 206.28 185.745 204.635 187.286C202.991 188.826 201.477 190.187 200.375 191.166C199.846 191.638 199.406 192.029 199.072 192.327C198.764 192.603 198.598 192.761 198.607 192.773Z" fill="#29586E"/>
<path d="M214.084 180.568C214.092 180.514 213.215 180.421 212.191 180.755C211.163 181.081 210.474 181.679 210.507 181.72C210.54 181.777 211.256 181.279 212.247 180.965C213.235 180.641 214.085 180.635 214.084 180.568Z" fill="#29586E"/>
<path d="M212.392 179.312C212.374 179.261 211.744 179.563 211.227 180.268C210.703 180.969 210.566 181.704 210.615 181.712C210.673 181.734 210.888 181.066 211.383 180.405C211.87 179.739 212.423 179.369 212.392 179.312Z" fill="#29586E"/>
<path d="M220.713 204.512C220.723 204.487 220.478 204.435 220.206 204.68C219.939 204.913 219.711 205.38 219.638 205.924C219.564 206.473 219.676 206.977 219.818 207.297C219.957 207.622 220.11 207.775 220.127 207.76C220.154 207.74 220.046 207.559 219.949 207.239C219.849 206.924 219.769 206.458 219.837 205.955C219.904 205.455 220.092 205.023 220.302 204.795C220.509 204.556 220.717 204.547 220.713 204.512Z" fill="#263238"/>
<path d="M85.799 130.97C86.7055 133.875 86.7576 137.09 85.9447 140.028C85.4455 141.834 84.6189 143.64 84.8707 145.506C85.0762 147.029 85.9841 148.361 86.163 149.888C86.5261 152.99 83.8224 155.932 84.5487 158.957C84.8827 160.349 85.9297 161.452 87.1416 162.021C88.3534 162.59 89.7137 162.678 91.028 162.554C92.9683 162.37 95.0669 161.567 95.9633 159.681C96.6776 158.178 96.4554 156.372 96.2076 154.702C95.1124 147.317 93.8475 139.88 91.1018 133.025" fill="url(#paint9_linear_4232_51397)"/>
<path d="M84.9372 153.792C84.9372 153.792 85.0123 153.83 85.1643 153.872C85.3158 153.915 85.5478 153.951 85.8464 153.933C86.1433 153.909 86.5104 153.827 86.8873 153.606C87.2606 153.388 87.6472 153.023 87.8871 152.491C88.1296 151.966 88.2259 151.293 88.085 150.615C88.0116 150.278 87.8751 149.941 87.6728 149.644C87.4718 149.346 87.2138 149.087 86.9354 148.851C86.3792 148.378 85.7245 147.998 85.1855 147.428C84.647 146.862 84.3121 146.056 84.2047 145.198C84.0938 144.338 84.1804 143.475 84.3713 142.683C84.5665 141.887 84.8542 141.151 85.14 140.457C85.7223 139.076 86.2705 137.818 86.4777 136.673C86.7 135.535 86.6368 134.569 86.4667 133.947C86.3041 133.319 86.1035 133.025 86.1035 133.025C86.085 133.034 86.2705 133.339 86.4146 133.962C86.5661 134.58 86.6134 135.529 86.3819 136.65C86.1658 137.777 85.6149 139.017 85.0238 140.399C84.734 141.094 84.4406 141.835 84.2401 142.644C84.0435 143.452 83.9533 144.333 84.0673 145.219C84.1769 146.102 84.5268 146.945 85.0901 147.534C85.6507 148.122 86.3107 148.499 86.8572 148.961C87.4126 149.408 87.8402 149.988 87.9732 150.643C88.1128 151.29 88.0267 151.938 87.7991 152.444C87.5747 152.956 87.2089 153.314 86.8497 153.533C86.4875 153.753 86.1314 153.842 85.8416 153.875C85.2544 153.925 84.9399 153.767 84.9372 153.792Z" fill="#796F6A"/>
<path d="M111.652 201.335L112.756 205.95L124.133 205.836C124.133 205.836 123.296 203.663 117.077 203.765L116.618 201.335H111.652Z" fill="#F7AFA4"/>
<path d="M70.2338 132.104C70.3438 132.341 73.2305 148.534 73.2305 148.534L66.4229 148.881L63.7872 134.956L70.2338 132.104Z" fill="#455A64"/>
<path d="M73.23 148.535L74.0098 148.175L71.0639 132.214L70.1401 132.146L73.23 148.535Z" fill="#263238"/>
<path d="M67.4963 135.642C67.5202 135.853 67.3829 136.045 67.1896 136.071C66.9963 136.097 66.8207 135.947 66.7968 135.736C66.773 135.525 66.9102 135.333 67.1035 135.307C67.2968 135.281 67.4725 135.431 67.4963 135.642Z" fill="#263238"/>
<path d="M66.0913 147.01L65.9906 144.89L68.8984 143.582L67.7648 140.644C67.2121 139.273 65.7043 138.71 64.4982 139.424C64.1099 139.654 63.7012 139.896 63.3314 140.115C62.5004 140.608 61.896 141.459 61.6765 142.463C61.2974 144.195 60.9656 147.805 61.001 147.642" fill="#F7AFA4"/>
<path d="M55.8892 202.793C55.8892 202.793 43.925 206.405 43.4448 206.59C42.7242 206.866 42.8453 209.748 43.9665 209.703C44.4971 209.681 53.1562 210.054 54.2506 209.98C55.3449 209.905 58.6455 208.486 58.6455 208.486L55.8892 202.793Z" fill="url(#paint10_linear_4232_51397)"/>
<path d="M50.9048 207.772C50.8447 207.782 50.7638 207.091 50.3777 206.371C50.0009 205.644 49.4945 205.222 49.5317 205.169C49.5524 205.119 50.1471 205.487 50.5513 206.262C50.9622 207.032 50.9551 207.778 50.9048 207.772Z" fill="white"/>
<path d="M52.1539 207.16C52.0952 207.171 51.9741 206.554 51.6556 205.872C51.3433 205.186 50.9611 204.712 51.004 204.668C51.0371 204.625 51.5045 205.052 51.8345 205.773C52.169 206.492 52.2052 207.156 52.1539 207.16Z" fill="white"/>
<path d="M53.323 206.815C53.2625 206.812 53.3084 206.159 53.0434 205.436C52.7889 204.709 52.3498 204.263 52.3917 204.216C52.4156 204.166 52.9524 204.569 53.2298 205.357C53.5152 206.141 53.3716 206.834 53.323 206.815Z" fill="white"/>
<path d="M53.1104 205.129C53.0892 205.135 52.9832 204.77 52.9823 204.158C52.9832 203.853 53.0154 203.487 53.1034 203.093C53.1471 202.896 53.2063 202.693 53.2814 202.488C53.3203 202.384 53.3644 202.265 53.4731 202.167C53.5849 202.058 53.7877 202.081 53.884 202.19C53.9936 202.294 54.0285 202.441 54.0435 202.559C54.0559 202.679 54.0616 202.791 54.0589 202.903C54.0558 203.128 54.0293 203.344 53.9852 203.543C53.8968 203.941 53.7541 204.275 53.6171 204.54C53.3384 205.07 53.0967 205.341 53.0795 205.326C53.0521 205.305 53.2527 205.001 53.4912 204.469C53.6088 204.202 53.7316 203.875 53.8049 203.498C53.842 203.31 53.8624 203.109 53.8628 202.902C53.8575 202.702 53.8601 202.451 53.7523 202.354C53.6954 202.303 53.6441 202.3 53.5942 202.34C53.5412 202.384 53.497 202.474 53.463 202.568C53.3887 202.763 53.3287 202.957 53.2818 203.144C53.1877 203.519 53.1422 203.868 53.1237 204.163C53.0883 204.754 53.1431 205.124 53.1104 205.129Z" fill="white"/>
<path d="M53.126 204.999C53.1203 204.976 53.4092 204.867 53.8979 204.863C54.1408 204.863 54.4329 204.891 54.747 204.977C54.902 205.022 55.0682 205.066 55.236 205.173C55.3999 205.264 55.5714 205.512 55.5064 205.77C55.4552 206.013 55.2643 206.183 55.0752 206.236C54.8848 206.294 54.7001 206.273 54.5384 206.235C54.2102 206.152 53.9548 205.976 53.7613 205.818C53.3779 205.489 53.1905 205.238 53.2051 205.22C53.2263 205.193 53.4525 205.407 53.8426 205.691C54.0388 205.828 54.2844 205.975 54.5764 206.037C54.7218 206.068 54.8786 206.077 55.02 206.031C55.1609 205.988 55.278 205.871 55.3116 205.72C55.346 205.574 55.2647 205.441 55.134 205.356C55.0059 205.269 54.8473 205.219 54.7001 205.171C54.4041 205.079 54.1271 205.036 53.8939 205.018C53.4242 204.982 53.1309 205.034 53.126 204.999Z" fill="white"/>
<path d="M49.0672 207.915C49.008 207.908 49.0668 207.35 48.8313 206.738C48.6073 206.12 48.2079 205.766 48.2455 205.716C48.2653 205.662 48.7654 205.972 49.0168 206.655C49.2748 207.335 49.1153 207.938 49.0672 207.915Z" fill="white"/>
<path d="M57.4159 208.516C57.4212 208.53 57.2568 208.614 56.9533 208.754C56.6458 208.881 56.1961 209.058 55.6218 209.204C54.4775 209.519 52.846 209.697 51.0541 209.676C49.2613 209.655 47.6457 209.566 46.4736 209.515C45.9191 209.483 45.4544 209.456 45.0872 209.435C44.7599 209.411 44.5792 209.391 44.5796 209.376C44.5801 209.361 44.7617 209.352 45.0895 209.35C45.457 209.353 45.9222 209.356 46.478 209.36C47.6898 209.386 49.2878 209.42 51.055 209.458C52.8389 209.478 54.451 209.326 55.5904 209.054C56.7346 208.797 57.4022 208.476 57.4159 208.516Z" fill="white"/>
<path d="M57.7687 208.814C57.7523 208.845 57.425 208.635 56.8723 208.371C56.3262 208.115 55.5071 207.809 54.6081 207.961C53.7064 208.111 53.0675 208.772 52.6509 209.231C52.2317 209.706 51.9856 210.021 51.9613 209.999C51.9432 209.983 52.1473 209.636 52.5467 209.126C52.7486 208.873 53.0048 208.581 53.3401 208.316C53.6715 208.05 54.0983 207.824 54.5763 207.745C55.5407 207.584 56.3907 207.935 56.9315 208.231C57.4811 208.537 57.781 208.793 57.7687 208.814Z" fill="white"/>
<path d="M71.0067 197.388C71.0067 197.388 82.3281 205.476 82.7341 205.81C83.3438 206.313 82.6444 208.706 81.5885 208.292C81.0889 208.095 71.5886 205.212 70.5672 204.779C69.5453 204.345 66.7956 201.899 66.7956 201.899L71.0067 197.388Z" fill="url(#paint11_linear_4232_51397)"/>
<path d="M74.3701 203.785C74.3206 203.773 74.5216 203.061 75.1273 202.463C75.7281 201.858 76.397 201.704 76.4028 201.759C76.424 201.822 75.8236 202.057 75.2625 202.624C74.6939 203.182 74.4249 203.813 74.3701 203.785Z" fill="white"/>
<path d="M73.3545 202.784C73.3068 202.763 73.5259 202.143 74.0446 201.569C74.5597 200.991 75.1239 200.739 75.1433 200.791C75.1721 200.847 74.6759 201.172 74.1873 201.722C73.6947 202.266 73.4075 202.814 73.3545 202.784Z" fill="white"/>
<path d="M72.3326 202.068C72.2809 202.07 72.3375 201.361 72.8274 200.709C73.3112 200.051 73.9346 199.844 73.9434 199.899C73.9699 199.959 73.4278 200.237 72.9829 200.846C72.5292 201.448 72.3914 202.084 72.3326 202.068Z" fill="white"/>
<path d="M73.0045 200.538C72.9749 200.522 73.1295 200.188 73.2607 199.614C73.3252 199.327 73.3791 198.979 73.3937 198.59C73.4012 198.396 73.3976 198.191 73.3813 197.981C73.3751 197.88 73.3579 197.78 73.3199 197.721C73.2837 197.666 73.2337 197.652 73.1653 197.682C73.0358 197.738 72.9687 197.978 72.9077 198.167C72.8503 198.365 72.814 198.563 72.7968 198.754C72.7619 199.138 72.7875 199.49 72.8255 199.783C72.905 200.37 73.0111 200.726 72.9793 200.736C72.959 200.745 72.8043 200.407 72.6859 199.809C72.6289 199.512 72.5861 199.146 72.613 198.737C72.6263 198.532 72.6607 198.318 72.7204 198.103C72.7495 197.994 72.7862 197.89 72.8313 197.78C72.8785 197.672 72.9523 197.544 73.0857 197.481C73.2077 197.409 73.4074 197.455 73.4834 197.596C73.5598 197.725 73.5686 197.853 73.577 197.964C73.5916 198.185 73.5912 198.398 73.5779 198.601C73.5523 199.006 73.4811 199.364 73.3972 199.655C73.2253 200.238 73.023 200.551 73.0045 200.538Z" fill="white"/>
<path d="M73.0269 200.402C73.0123 200.433 72.7473 200.286 72.2914 200.165C72.0638 200.106 71.7882 200.055 71.4802 200.044C71.3265 200.042 71.1617 200.036 71.0155 200.076C70.867 200.114 70.7526 200.214 70.7446 200.364C70.7345 200.519 70.8136 200.67 70.9359 200.757C71.0579 200.848 71.2099 200.891 71.357 200.91C71.6525 200.948 71.9277 200.888 72.1526 200.823C72.6028 200.682 72.8785 200.552 72.8909 200.585C72.8993 200.607 72.6514 200.785 72.1946 200.97C71.9662 201.057 71.6737 201.14 71.338 201.11C71.1732 201.094 70.9916 201.052 70.8264 200.934C70.6612 200.82 70.5268 200.595 70.5454 200.347C70.5551 200.08 70.7875 199.9 70.9691 199.868C71.1586 199.822 71.3291 199.835 71.4895 199.843C71.8129 199.866 72.0987 199.935 72.3298 200.016C72.7941 200.182 73.0389 200.38 73.0269 200.402Z" fill="white"/>
<path d="M80.1445 207.843C80.1317 207.862 79.9541 207.718 79.8675 207.365C79.773 207.019 79.8322 206.489 80.0796 206.024C80.198 205.789 80.3336 205.586 80.4591 205.407C80.5828 205.228 80.7109 205.065 80.8434 204.957C80.9742 204.846 81.1112 204.795 81.2053 204.792C81.2998 204.787 81.3484 204.813 81.3466 204.825C81.3462 204.86 81.1443 204.843 80.9349 205.075C80.8284 205.185 80.7233 205.341 80.6084 205.526C80.4926 205.709 80.3658 205.909 80.2554 206.129C80.0261 206.564 79.9576 207.015 80.0062 207.333C80.0473 207.653 80.171 207.822 80.1445 207.843Z" fill="white"/>
<path d="M76.0801 204.528C76.0275 204.534 76.0435 203.906 76.4786 203.344C76.9081 202.776 77.4709 202.647 77.4749 202.704C77.4965 202.765 77.0176 202.97 76.6324 203.484C76.2383 203.989 76.1384 204.54 76.0801 204.528Z" fill="white"/>
<path d="M67.9598 202.332C67.9695 202.319 68.1432 202.459 68.4573 202.705C68.7758 202.945 69.2437 203.282 69.8529 203.638C70.4621 203.995 71.2136 204.365 72.0703 204.715C72.9278 205.064 73.8891 205.392 74.9061 205.714C76.9428 206.354 78.7868 206.939 80.117 207.375C80.755 207.589 81.2847 207.766 81.6902 207.902C82.0605 208.031 82.2633 208.11 82.2597 208.124C82.2557 208.138 82.0459 208.088 81.6691 207.984C81.2591 207.865 80.7236 207.71 80.0786 207.523C78.7378 207.125 76.8893 206.564 74.8504 205.923C73.8317 205.601 72.8659 205.264 72.0053 204.902C71.1451 204.539 70.3914 204.15 69.7853 203.772C69.1783 203.396 68.7175 203.035 68.4113 202.772C68.1083 202.504 67.9519 202.342 67.9598 202.332Z" fill="white"/>
<path d="M67.5412 202.503C67.5354 202.479 67.8924 202.335 68.5007 202.225C69.0985 202.122 70.0059 202.069 70.8802 202.542C71.3132 202.776 71.6569 203.133 71.8986 203.496C72.1442 203.86 72.3068 204.223 72.4292 204.53C72.6677 205.149 72.7658 205.547 72.7441 205.556C72.715 205.569 72.5683 205.188 72.301 204.596C72.032 204.021 71.607 203.18 70.7901 202.737C69.9759 202.295 69.1104 202.315 68.5189 202.378C67.9185 202.447 67.5482 202.538 67.5412 202.503Z" fill="white"/>
<path d="M93.9085 126.81C90.3256 126.991 87.5087 130.211 87.5021 134.124C87.4968 137.156 87.5405 140.453 87.7172 142.409C88.1285 146.958 91.2635 147.737 91.2635 147.737C91.2635 147.737 91.1632 150.564 91.0249 153.246C90.8933 155.801 92.8138 158.049 95.3169 158.268C97.7954 158.486 99.9209 156.632 100.089 154.105L100.929 134.472C101.114 130.161 97.8603 126.61 93.9085 126.81Z" fill="url(#paint12_linear_4232_51397)"/>
<path d="M91.2451 147.743C91.2451 147.743 94.0545 148.017 96.9062 146.39C96.9062 146.39 95.3648 149.63 91.212 149.041L91.2451 147.743Z" fill="#CC8E79"/>
<path d="M96.2826 134.102C96.2136 134.211 95.8001 134.023 95.2815 133.9C94.7646 133.768 94.3166 133.744 94.2976 133.613C94.2733 133.491 94.7668 133.293 95.3756 133.445C95.9848 133.593 96.3524 134.003 96.2826 134.102Z" fill="#263238"/>
<path d="M99.8678 151.747C99.9076 150.814 98.9484 146.756 98.5667 144.263C98.185 141.771 99.6783 141.367 99.9151 139.898C100.152 138.429 99.4768 137.03 99.4768 137.03C97.2939 137.882 96.4329 136.187 95.2396 135.182C93.973 134.114 93.6955 132.803 93.1777 131.151C92.66 129.498 92.0569 128.468 90.4634 128.306C90.4634 128.306 88.9056 129.166 88.341 130.961C87.8542 132.509 87.4658 138.544 87.4658 138.544C87.2445 135.649 85.093 134.434 85.6766 130.177C85.9288 128.337 87.3253 125.826 89.4826 125.459C90.1073 125.352 91.2913 125.269 91.2913 125.269C92.5796 124.005 93.2078 124.042 94.4408 123.445C97.0987 122.158 100.296 124.458 102.062 126.979C103.42 128.918 104.079 131.542 104.448 134.011C104.704 135.722 104.7 137.461 104.551 139.187C104.462 140.215 104.578 141.518 105.504 142.306C106.823 143.429 107.175 145.57 106.259 148.425C105.343 151.28 98.5667 171.576 98.5667 171.576C98.5667 171.576 102.869 178.888 99.3978 175.227C98.03 174.467 99.8678 151.747 99.8678 151.747Z" fill="url(#paint13_linear_4232_51397)"/>
<path d="M105.946 149.51C105.946 149.51 106.036 149.446 106.163 149.272C106.285 149.098 106.434 148.8 106.486 148.38C106.536 147.965 106.49 147.428 106.245 146.889C106.007 146.346 105.592 145.825 105.099 145.31C104.612 144.791 104.031 144.264 103.597 143.54C103.15 142.819 103.021 141.867 103.086 140.897C103.134 139.923 103.352 138.902 103.301 137.815C103.276 137.275 103.184 136.718 102.956 136.207C102.726 135.698 102.338 135.265 101.876 134.983C100.951 134.408 99.9125 134.252 99.0643 133.739C98.2041 133.241 97.6497 132.356 97.2446 131.496C96.8372 130.625 96.5461 129.741 96.1692 128.962C95.8021 128.18 95.3329 127.506 94.7763 127.056C94.2262 126.599 93.5962 126.372 93.0427 126.407C92.4882 126.443 92.0464 126.698 91.7566 126.971C91.4602 127.246 91.3219 127.553 91.2592 127.76C91.2265 127.865 91.2123 127.948 91.207 128.004C91.1995 128.06 91.1969 128.088 91.1991 128.089C91.2106 128.091 91.2137 127.973 91.2852 127.77C91.3555 127.57 91.4977 127.277 91.7911 127.016C92.0778 126.757 92.5116 126.518 93.0462 126.492C93.5777 126.466 94.186 126.691 94.7166 127.14C95.2552 127.585 95.7084 128.244 96.0667 129.019C96.4347 129.791 96.721 130.675 97.1301 131.559C97.5366 132.43 98.103 133.347 98.998 133.868C99.875 134.397 100.915 134.556 101.805 135.113C102.25 135.385 102.612 135.791 102.831 136.273C103.049 136.758 103.139 137.295 103.165 137.822C103.217 138.881 103.004 139.899 102.958 140.888C102.894 141.869 103.032 142.863 103.499 143.606C103.951 144.35 104.542 144.874 105.03 145.386C105.524 145.893 105.936 146.4 106.174 146.925C106.419 147.445 106.473 147.966 106.431 148.373C106.337 149.21 105.915 149.501 105.946 149.51Z" fill="#796F6A"/>
<path d="M98.1582 149.207L88.8739 150.163L85.1019 151.328C83.4902 151.826 82.0151 152.748 80.8064 154.013L68.6527 166.741L66.434 146.969L60.362 147.545L61.3755 172.995C62.2807 176.091 64.9164 178.263 67.994 178.271C69.8155 178.276 71.5557 177.437 72.8833 176.076L81.5375 167.201L81.7978 179.885L75.7898 185.207L98.9463 199.28C98.9463 199.28 100.202 193.903 99.6307 181.924C99.526 179.726 103.219 173.057 103.501 171.094C104.585 163.552 104.416 152.516 104.416 152.516L98.1582 149.207Z" fill="url(#paint14_linear_4232_51397)"/>
<path d="M103.863 152.282C103.863 152.282 108.56 154.181 109.696 158.195C110.703 161.754 114.064 181.77 114.064 181.77L117.398 202.954L110.416 203.244L102.377 167.14L103.863 152.282Z" fill="url(#paint15_linear_4232_51397)"/>
<path d="M103.863 152.282C103.863 152.282 108.56 154.181 109.696 158.195C110.703 161.754 114.064 181.77 114.064 181.77L117.398 202.954L110.416 203.244L102.377 167.14L103.863 152.282Z" fill="url(#paint16_linear_4232_51397)"/>
<path d="M61.4354 149.445C61.3802 149.45 61.3008 149.003 61.258 148.447C61.2147 147.89 61.2249 147.435 61.2796 147.429C61.3348 147.424 61.4142 147.871 61.457 148.428C61.5002 148.985 61.4901 149.441 61.4354 149.445Z" fill="#629FC4"/>
<path d="M63.2131 149.508C63.1579 149.51 63.0908 149.034 63.0635 148.444C63.0361 147.854 63.0582 147.373 63.1134 147.37C63.1685 147.367 63.2356 147.843 63.263 148.433C63.2908 149.023 63.2683 149.504 63.2131 149.508Z" fill="#629FC4"/>
<path d="M64.9797 149.384C64.9245 149.387 64.8526 148.857 64.819 148.2C64.7855 147.542 64.8027 147.007 64.8579 147.003C64.913 147 64.985 147.53 65.0185 148.188C65.0521 148.845 65.0349 149.381 64.9797 149.384Z" fill="#629FC4"/>
<path d="M68.392 169.776C68.3369 169.77 68.366 168.986 68.4569 168.025C68.5478 167.063 68.6656 166.289 68.7208 166.295C68.7755 166.301 68.7469 167.086 68.6559 168.047C68.565 169.008 68.4472 169.782 68.392 169.776Z" fill="#539BB8"/>
<path d="M111.566 201.038C111.62 201.028 111.741 201.503 111.835 202.1C111.93 202.696 111.962 203.188 111.908 203.199C111.853 203.209 111.733 202.734 111.639 202.137C111.544 201.54 111.511 201.048 111.566 201.038Z" fill="#5A7BC1"/>
<path d="M113.86 201.038C113.915 201.028 114.026 201.459 114.108 202C114.191 202.542 114.213 202.989 114.159 202.999C114.105 203.009 113.993 202.578 113.911 202.036C113.828 201.495 113.806 201.047 113.86 201.038Z" fill="#5A7BC1"/>
<path d="M116.038 200.795C116.094 200.791 116.174 201.281 116.267 201.883C116.359 202.486 116.432 202.978 116.377 202.993C116.325 203.009 116.164 202.533 116.07 201.919C115.975 201.307 115.984 200.8 116.038 200.795Z" fill="#5A7BC1"/>
<path d="M107.632 154.75C107.632 154.79 107.145 154.758 106.388 154.931C105.637 155.098 104.61 155.522 103.724 156.366C102.838 157.21 102.314 158.262 102.061 159.051C101.802 159.846 101.765 160.377 101.728 160.372C101.716 160.371 101.713 160.238 101.734 159.999C101.756 159.759 101.811 159.415 101.927 159.002C102.151 158.181 102.673 157.077 103.593 156.201C104.513 155.326 105.586 154.911 106.362 154.779C106.752 154.71 107.073 154.697 107.293 154.707C107.513 154.715 107.633 154.737 107.632 154.75Z" fill="#539BB8"/>
<path d="M82.5496 172.624C82.5885 172.608 82.3689 172 82.1485 170.98C81.9263 169.963 81.7416 168.521 81.8167 166.927C81.8971 165.332 82.2205 163.919 82.5404 162.934C82.8585 161.946 83.1354 161.366 83.0988 161.345C83.0846 161.337 83.0051 161.476 82.8726 161.734C82.7365 161.991 82.5682 162.379 82.3875 162.872C82.0239 163.855 81.6683 165.289 81.5865 166.914C81.5101 168.537 81.7244 170.005 81.9903 171.024C82.122 171.534 82.2514 171.94 82.3619 172.211C82.4692 172.484 82.5351 172.631 82.5496 172.624Z" fill="#539BB8"/>
<path d="M81.9558 179.618C81.9562 179.636 82.0989 179.645 82.3578 179.647C82.6167 179.652 82.9905 179.636 83.4517 179.596C84.3737 179.518 85.6443 179.308 87.005 178.884C88.3653 178.458 89.5453 177.902 90.3657 177.436C90.7762 177.204 91.1018 177.001 91.3187 176.848C91.5369 176.697 91.6536 176.606 91.6456 176.591C91.6271 176.557 91.127 176.856 90.2942 177.276C89.4618 177.698 88.2862 178.221 86.9414 178.643C85.5962 179.061 84.3455 179.296 83.4345 179.419C82.524 179.543 81.9545 179.578 81.9558 179.618Z" fill="#5A89C4"/>
<path d="M92.2085 176.092C91.4822 176.802 90.3547 176.905 89.3793 176.886C88.4042 176.865 87.4363 176.656 86.4608 176.673C85.4853 176.691 84.4533 176.979 83.8008 177.77C83.6002 178.013 83.4372 178.313 83.423 178.64C83.4093 178.966 83.5785 179.317 83.8648 179.415C84.0437 179.476 84.2368 179.435 84.4201 179.393C87.1526 178.777 90.0941 178.078 92.2085 176.092Z" fill="#5897B9"/>
<path d="M68.85 166.48C69.639 167.509 69.9443 168.957 69.6457 170.258C69.5966 170.471 69.5069 170.709 69.3143 170.772C69.1566 170.824 68.9834 170.73 68.8809 170.589C68.7788 170.449 68.7338 170.27 68.6967 170.095C68.4378 168.874 68.4585 167.583 68.7559 166.372" fill="#5897B9"/>
<path d="M56.9463 200.844C56.9463 200.844 84.7107 180.974 85.8478 180.561C86.9846 180.147 89.7321 178.184 92.4796 179.01C95.2271 179.837 97.6901 182.525 98.9218 186.452C100.154 190.38 100.248 199.166 100.248 199.166C100.248 199.166 98.0691 206.092 93.8058 207.539C93.4506 207.659 93.0787 207.76 92.6956 207.843C87.4918 208.969 82.2 206.358 79.2868 201.521L78.667 200.492C78.667 200.492 60.5045 207.772 60.2199 207.668L56.9463 200.844Z" fill="url(#paint17_linear_4232_51397)"/>
<path d="M47.4781 177.668C47.4781 177.668 44.0816 178.991 44.0675 183.146C44.0401 191.104 58.807 199.877 58.807 199.877L78.4579 185.672L81.9004 183.29C81.9004 183.29 53.1626 174.256 47.4781 177.668Z" fill="url(#paint18_linear_4232_51397)"/>
<path d="M91.2969 195.373C91.2969 195.373 91.2465 195.401 91.1445 195.446C91.0349 195.494 90.8838 195.559 90.6898 195.643C90.2803 195.815 89.6892 196.063 88.9298 196.382C87.3857 197.017 85.1577 197.932 82.3881 199.071C79.6093 200.201 76.2808 201.546 72.5468 203.029C68.8119 204.51 64.6732 206.136 60.2535 207.769L60.1731 207.798L60.1338 207.716C59.4397 206.27 58.7077 204.745 57.9646 203.197C57.586 202.407 57.21 201.624 56.8592 200.892L56.8168 200.803L56.8937 200.75C65.2307 194.975 72.6895 189.81 78.0723 186.082C80.7601 184.233 82.9289 182.74 84.4341 181.704C85.1794 181.196 85.7599 180.801 86.1619 180.527C86.3545 180.399 86.5043 180.299 86.613 180.227C86.715 180.16 86.7698 180.13 86.7698 180.13C86.7698 180.13 86.7221 180.172 86.6232 180.245C86.5171 180.322 86.3709 180.427 86.1822 180.564C85.7846 180.845 85.2107 181.251 84.4738 181.773C82.9766 182.823 80.8193 184.335 78.1456 186.208C72.7717 189.951 65.3253 195.136 57.0019 200.933L57.0364 200.791C57.3876 201.522 57.7636 202.306 58.1422 203.095C58.8848 204.643 59.6164 206.169 60.31 207.615L60.1903 207.563C64.6078 205.935 68.7487 204.317 72.4867 202.848C76.219 201.366 79.5527 200.042 82.3422 198.934C85.1206 197.822 87.3552 196.928 88.9046 196.308C89.6693 196.004 90.2644 195.768 90.677 195.604C90.8736 195.528 91.0265 195.469 91.1378 195.426C91.2421 195.388 91.2969 195.373 91.2969 195.373Z" fill="#29586E"/>
<path d="M68.5046 192.849C68.4962 192.861 68.3146 192.726 67.9925 192.47C67.6705 192.216 67.211 191.837 66.6486 191.363C65.5233 190.414 63.9926 189.07 62.346 187.528C60.6994 185.984 59.249 184.537 58.2192 183.467C57.7041 182.932 57.2923 182.494 57.0127 182.185C56.7326 181.877 56.5824 181.701 56.5921 181.69C56.6018 181.679 56.7701 181.834 57.0661 182.123C57.3873 182.439 57.8079 182.854 58.3151 183.354C59.3688 184.394 60.8315 185.821 62.4759 187.362C64.1202 188.902 65.6347 190.264 66.7361 191.242C67.2658 191.714 67.7049 192.105 68.0398 192.404C68.3473 192.679 68.513 192.837 68.5046 192.849Z" fill="#29586E"/>
<path d="M53.0272 180.644C53.0197 180.59 53.8966 180.497 54.9207 180.831C55.9479 181.157 56.637 181.755 56.6044 181.796C56.5717 181.852 55.8555 181.355 54.8642 181.041C53.8759 180.717 53.0263 180.711 53.0272 180.644Z" fill="#29586E"/>
<path d="M54.7189 179.388C54.7366 179.337 55.3666 179.639 55.8839 180.344C56.4074 181.045 56.5453 181.78 56.4953 181.788C56.4379 181.81 56.2232 181.142 55.728 180.481C55.2411 179.815 54.6875 179.445 54.7189 179.388Z" fill="#29586E"/>
<path d="M46.3982 204.588C46.3876 204.563 46.6328 204.511 46.9045 204.756C47.1723 204.989 47.3993 205.456 47.4727 206C47.5465 206.549 47.4347 207.053 47.2933 207.373C47.1541 207.698 47.0013 207.851 46.9841 207.836C46.9571 207.816 47.0649 207.635 47.1617 207.315C47.262 207 47.3419 206.534 47.2739 206.031C47.2067 205.531 47.0185 205.099 46.8091 204.871C46.6015 204.632 46.3943 204.623 46.3982 204.588Z" fill="#263238"/>
<defs>
<linearGradient id="paint0_linear_4232_51397" x1="176.677" y1="130.894" x2="176.677" y2="162.527" gradientUnits="userSpaceOnUse">
<stop stop-color="#702200"/>
<stop offset="1" stop-color="#9B3500"/>
</linearGradient>
<linearGradient id="paint1_linear_4232_51397" x1="216.292" y1="202.716" x2="216.292" y2="209.913" gradientUnits="userSpaceOnUse">
<stop stop-color="#3F9590"/>
<stop offset="1" stop-color="#184762"/>
</linearGradient>
<linearGradient id="paint2_linear_4232_51397" x1="192.232" y1="197.312" x2="192.232" y2="208.264" gradientUnits="userSpaceOnUse">
<stop stop-color="#3F9590"/>
<stop offset="1" stop-color="#184762"/>
</linearGradient>
<linearGradient id="paint3_linear_4232_51397" x1="172.89" y1="126.726" x2="172.89" y2="158.21" gradientUnits="userSpaceOnUse">
<stop stop-color="#F6A99E"/>
<stop offset="1" stop-color="#FABEB2"/>
</linearGradient>
<linearGradient id="paint4_linear_4232_51397" x1="169.966" y1="123" x2="169.966" y2="156.056" gradientUnits="userSpaceOnUse">
<stop stop-color="#9F3700"/>
<stop offset="1" stop-color="#611C00"/>
</linearGradient>
<linearGradient id="paint5_linear_4232_51397" x1="184.718" y1="146.893" x2="184.718" y2="199.204" gradientUnits="userSpaceOnUse">
<stop stop-color="#FFDC5C"/>
<stop offset="0.784" stop-color="#FF7C08"/>
</linearGradient>
<linearGradient id="paint6_linear_4232_51397" x1="161.606" y1="153.8" x2="156.399" y2="203.081" gradientUnits="userSpaceOnUse">
<stop offset="0.0308206" stop-color="#FFC84A"/>
<stop offset="0.554" stop-color="#FF7C09"/>
<stop offset="0.864" stop-color="#FF8612"/>
</linearGradient>
<linearGradient id="paint7_linear_4232_51397" x1="175.376" y1="184.096" x2="211.751" y2="205.212" gradientUnits="userSpaceOnUse">
<stop stop-color="#06224B"/>
<stop offset="1" stop-color="#419992"/>
</linearGradient>
<linearGradient id="paint8_linear_4232_51397" x1="206.731" y1="177.913" x2="195.096" y2="215.766" gradientUnits="userSpaceOnUse">
<stop stop-color="#06234B"/>
<stop offset="1" stop-color="#3E928E"/>
</linearGradient>
<linearGradient id="paint9_linear_4232_51397" x1="90.4352" y1="130.97" x2="90.4352" y2="162.603" gradientUnits="userSpaceOnUse">
<stop stop-color="#753B1E"/>
<stop offset="1" stop-color="#824427"/>
</linearGradient>
<linearGradient id="paint10_linear_4232_51397" x1="50.8197" y1="202.793" x2="50.8197" y2="209.99" gradientUnits="userSpaceOnUse">
<stop stop-color="#3F9590"/>
<stop offset="1"/>
</linearGradient>
<linearGradient id="paint11_linear_4232_51397" x1="74.8783" y1="197.388" x2="74.8783" y2="208.34" gradientUnits="userSpaceOnUse">
<stop stop-color="#3F9590"/>
<stop offset="1"/>
</linearGradient>
<linearGradient id="paint12_linear_4232_51397" x1="94.2191" y1="126.802" x2="94.2191" y2="158.286" gradientUnits="userSpaceOnUse">
<stop stop-color="#F6A99E"/>
<stop offset="1" stop-color="#FABEB2"/>
</linearGradient>
<linearGradient id="paint13_linear_4232_51397" x1="97.1463" y1="123.076" x2="97.1463" y2="156.132" gradientUnits="userSpaceOnUse">
<stop stop-color="#652F12"/>
<stop offset="1" stop-color="#BA6E4F"/>
</linearGradient>
<linearGradient id="paint14_linear_4232_51397" x1="82.3937" y1="146.969" x2="82.3937" y2="199.28" gradientUnits="userSpaceOnUse">
<stop stop-color="#439C94"/>
<stop offset="0.784" stop-color="#7EA2F0"/>
</linearGradient>
<linearGradient id="paint15_linear_4232_51397" x1="105.505" y1="153.876" x2="110.712" y2="203.157" gradientUnits="userSpaceOnUse">
<stop offset="0.0308206" stop-color="#FFC84A"/>
<stop offset="0.554" stop-color="#FF7C09"/>
<stop offset="0.864" stop-color="#FF8612"/>
</linearGradient>
<linearGradient id="paint16_linear_4232_51397" x1="109.887" y1="152.282" x2="109.887" y2="203.244" gradientUnits="userSpaceOnUse">
<stop stop-color="#439C94"/>
<stop offset="0.784" stop-color="#7EA2F0"/>
</linearGradient>
<linearGradient id="paint17_linear_4232_51397" x1="91.7353" y1="184.172" x2="55.3604" y2="205.288" gradientUnits="userSpaceOnUse">
<stop stop-color="#031530"/>
<stop offset="1" stop-color="#364847"/>
</linearGradient>
<linearGradient id="paint18_linear_4232_51397" x1="60.3803" y1="177.989" x2="72.0151" y2="215.842" gradientUnits="userSpaceOnUse">
<stop stop-color="#061832"/>
<stop offset="1" stop-color="#1D2F3B"/>
</linearGradient>
</defs>
</svg>
