<svg width="19" height="20" viewBox="0 0 19 20" fill="none" xmlns="http://www.w3.org/2000/svg">
<path d="M15.7841 10.6244C15.759 8.14365 18.0727 6.93675 18.1785 6.88056C16.8681 5.1849 14.8371 4.95322 14.1234 4.93475C12.4176 4.77542 10.7629 5.84069 9.894 5.84069C9.00771 5.84069 7.66959 4.95014 6.22741 4.97631C4.37157 5.00171 2.63541 5.95538 1.68321 7.43629C-0.281903 10.4558 1.18369 14.8932 3.06641 17.3339C4.00821 18.5293 5.10871 19.8639 6.54915 19.817C7.95837 19.7654 8.48477 19.0196 10.1854 19.0196C11.8704 19.0196 12.3647 19.817 13.8338 19.787C15.3462 19.7654 16.2984 18.5862 17.2072 17.3801C18.2956 16.01 18.7327 14.6607 18.75 14.5915C18.7144 14.5807 15.8127 13.5978 15.7841 10.6244Z" fill="white"/>
<path d="M13.009 3.32915C13.767 2.48786 14.2856 1.34331 14.1416 0.181824C13.0446 0.224927 11.6727 0.855315 10.8826 1.67813C10.1836 2.40319 9.55925 3.59161 9.72056 4.70923C10.9529 4.79081 12.2181 4.15735 13.009 3.32915Z" fill="white"/>
</svg>
